<?xml version="1.0" encoding="UTF-8" standalone="no"?>
<!-- Created with Inkscape (http://www.inkscape.org/) -->

<svg
   xmlns:dc="http://purl.org/dc/elements/1.1/"
   xmlns:cc="http://creativecommons.org/ns#"
   xmlns:rdf="http://www.w3.org/1999/02/22-rdf-syntax-ns#"
   xmlns:svg="http://www.w3.org/2000/svg"
   xmlns="http://www.w3.org/2000/svg"
   xmlns:sodipodi="http://sodipodi.sourceforge.net/DTD/sodipodi-0.dtd"
   xmlns:inkscape="http://www.inkscape.org/namespaces/inkscape"
   width="193.44641mm"
   height="193.44554mm"
   viewBox="0 0 193.44641 193.44554"
   version="1.1"
   id="svg6468"
   inkscape:version="0.92.1 r15371"
   sodipodi:docname="answer_incorrect.svg"
   inkscape:export-filename="/home/nuage/Documents/Logs éducatifs/tuxmath_js/images/icons/answer_incorrect.png"
   inkscape:export-xdpi="3.2825775"
   inkscape:export-ydpi="3.2825775">
  <defs
     id="defs6462" />
  <sodipodi:namedview
     id="base"
     pagecolor="#ffffff"
     bordercolor="#666666"
     borderopacity="1.0"
     inkscape:pageopacity="0.0"
     inkscape:pageshadow="2"
     inkscape:zoom="0.35"
     inkscape:cx="-215.86056"
     inkscape:cy="354.13783"
     inkscape:document-units="mm"
     inkscape:current-layer="layer1"
     showgrid="false"
     fit-margin-top="0"
     fit-margin-left="0"
     fit-margin-right="0"
     fit-margin-bottom="0"
     inkscape:window-width="1278"
     inkscape:window-height="772"
     inkscape:window-x="0"
     inkscape:window-y="0"
     inkscape:window-maximized="1" />
  <metadata
     id="metadata6465">
    <rdf:RDF>
      <cc:Work
         rdf:about="">
        <dc:format>image/svg+xml</dc:format>
        <dc:type
           rdf:resource="http://purl.org/dc/dcmitype/StillImage" />
        <dc:title />
      </cc:Work>
    </rdf:RDF>
  </metadata>
  <g
     inkscape:label="Calque 1"
     inkscape:groupmode="layer"
     id="layer1"
     transform="translate(146.23808,-52.110562)">
    <g
       transform="matrix(0.26458333,0,0,0.26458333,-427.1375,-213.02362)"
       id="g44">
      <path
         d="m 1271.17,1292.89 c 21.58,-21.74 43.35,-43.3101 64.9399,-65.05 29.96,29.4601 59.55,59.3301 89.22,89.0901 29.25,-28.9601 58.25,-58.17 87.36,-87.25 0.7201,-0.5701 1.79,-2.3601 2.76,-1.0901 21.4401,21.4301 42.9301,42.8101 64.28,64.3301 -29.84,29.61 -59.41,59.49 -89.25,89.1 29.88,29.6 59.35,59.61 89.24,89.2 -21.5499,21.73 -43.39,43.1801 -64.83,65.03 -5.28,-4.39 -9.78,-9.62 -14.74,-14.35 -24.9501,-24.9 -49.8101,-49.9 -74.8,-74.75 -27.9399,28.12 -56.0499,56.0699 -84.0499,84.13 -1.79,1.4399 -3.1101,3.99 -5.3201,4.6 -21.7,-21.4401 -43.1799,-43.14 -64.79,-64.6901 29.7301,-29.7 59.4301,-59.4199 89.15,-89.1399 C 1330.58,1352.37 1300.87,1322.63 1271.17,1292.89 Z"
         id="path30"
         inkscape:connector-curvature="0"
         style="fill:#ffffff" />
      <path
         d="m 1416.21,1002.25 c 46.4,-1.4 93.0701,5.95 136.66,21.97 68.76,25.01 129.45,71.4 171.91,130.9601 24.21,33.8199 42.58,71.8199 54,111.8099 19.35,67.63 18.6699,140.86 -2.01,208.1 -17.88,58.53 -50.96,112.26 -94.87,154.86 -44.4301,43.2001 -99.98,74.92 -159.89,90.8601 -69.83,18.73 -145.22,16.22 -213.59,-7.3301 -72.4,-24.7 -136.39,-73 -180.3,-135.6 -23.3,-33.01 -41.01,-69.95 -52.1899,-108.79 -25.03,-86.22 -16.9401,-181.65 22.88,-262.1899 33.3199,-68.29 88.5499,-125.6 155.5299,-161.4601 49.61,-26.73 105.53,-41.65 161.87,-43.19 m -11.8,37.24 c -39.35,2.49 -78.13,12.5601 -113.98,28.89 -43.87,19.99 -83.15,49.9301 -114.3101,86.6899 -23.79,27.9 -42.55,59.9701 -55.92,94.0901 -16.33,42.11 -23.58,87.65 -21.62,132.77 1.8,43.8899 12.6001,87.3899 31.4301,127.0699 16.48,34.16 38.59,65.7 65.74,92.23 14.12,14.42 29.83,27.26 46.5699,38.51 14.9,9.85 30.2101,19.21 46.5801,26.45 34.03,15.8201 70.7999,25.67 108.1799,29.03 37.2101,3.15 75.04,0.7101 111.2301,-8.71 34.8099,-8.71 68.08,-23.41 98.1299,-42.99 12.03,-7.4 22.9301,-16.42 33.9401,-25.21 23.95,-20.4901 45.04,-44.3301 62.23,-70.75 40.59,-61.2201 59.08,-136.55 52.24,-209.6201 -1.9299,-20.23 -5.14,-40.3899 -11.0699,-59.86 -2.54,-10.1899 -6.22,-20.0299 -10.01,-29.7999 -5.97,-16.75 -14.23,-32.5601 -23.14,-47.91 -38.09,-64.73 -99.08,-115.65 -169.62,-141.49 C 1497.55,1042.85 1450.62,1036.0699 1404.41,1039.49 Z"
         id="path32"
         inkscape:connector-curvature="0"
         style="fill:#c2272d" />
      <path
         d="m 1328.75,1212.66 c 2.46,-2.24 4.35,-5.17 7.23,-6.91 3.78,1.6 6.1,5.38 9.0601,8.12 23.14,22.9 45.99,46.09 69.13,69 3.6599,3.84 7.38,7.67 11.51,11.03 26.38,-26.37 52.7599,-52.74 79.13,-79.12 3.35,-3.15 6.22,-6.8201 10.0399,-9.4501 27.55,27.39 54.9301,54.9501 82.48,82.3401 1.7301,1.6799 3.3301,3.51 4.9,5.37 -28.87,29.2 -58.11,58.0499 -87.02,87.22 -2.84,2.29 0.89,4.41 2.42,6.0699 28.05,28.3201 56.55,56.2101 84.41,84.7001 -10.8201,11.8099 -22.52,22.8099 -33.75,34.24 -17.87,17.89 -35.88,35.65 -53.5901,53.6899 -27.51,-27.0499 -54.59,-54.5399 -81.9399,-81.75 -2.4,-2.46 -4.8,-4.9299 -7.49,-7.0499 -27.02,26.98 -54.02,53.98 -81.05,80.95 -2.59,2.63 -5.0699,5.38 -7.9299,7.74 -29.5601,-28.96 -58.4401,-58.62 -87.9701,-87.6 27.16,-27.15 54.3301,-54.28 81.4601,-81.47 2.28,-2.37 4.9399,-4.42 6.84,-7.13 0.47,-1.24 -0.73,-2.13 -1.37,-2.9501 -26.01,-25.98 -51.99,-52 -77.99,-77.99 -2.92,-2.83 -5.85,-5.64 -8.45,-8.76 4.8099,-5.87 10.61,-10.8199 15.83,-16.3099 21.3499,-21.35 42.67,-42.72 64.1099,-63.98 m -57.58,80.23 c 29.7,29.74 59.4099,59.48 89.1699,89.16 -29.72,29.72 -59.4199,59.4399 -89.15,89.1399 21.6101,21.55 43.0901,43.25 64.79,64.6901 2.21,-0.61 3.53,-3.16 5.3201,-4.6 28,-28.0601 56.11,-56.01 84.0499,-84.13 24.99,24.85 49.85,49.85 74.8,74.75 4.96,4.73 9.46,9.96 14.74,14.35 21.4399,-21.85 43.28,-43.3 64.83,-65.03 -29.89,-29.59 -59.36,-59.6 -89.24,-89.2 29.84,-29.61 59.41,-59.49 89.25,-89.1 -21.35,-21.52 -42.84,-42.9 -64.28,-64.3301 -0.97,-1.27 -2.0399,0.52 -2.76,1.0901 -29.11,29.08 -58.11,58.2899 -87.36,87.25 -29.6699,-29.76 -59.26,-59.63 -89.22,-89.0901 C 1314.52,1249.58 1292.75,1271.15 1271.17,1292.89 Z"
         id="path34"
         inkscape:connector-curvature="0"
         style="fill:#c2272d" />
      <path
         d="m 1404.41,1039.49 c 46.21,-3.42 93.14,3.36 136.6,19.39 70.54,25.84 131.53,76.76 169.62,141.49 8.91,15.35 17.17,31.16 23.14,47.91 3.79,9.77 7.47,19.61 10.01,29.7999 5.9299,19.4701 9.14,39.63 11.0699,59.86 6.84,73.0701 -11.65,148.4 -52.24,209.6201 -17.1899,26.4199 -38.28,50.2599 -62.23,70.75 -11.01,8.7899 -21.91,17.8099 -33.9401,25.21 -30.0499,19.58 -63.3199,34.28 -98.1299,42.99 -36.1901,9.42 -74.02,11.86 -111.2301,8.71 -37.38,-3.36 -74.1499,-13.21 -108.1799,-29.03 -16.37,-7.24 -31.6801,-16.6 -46.5801,-26.45 -16.74,-11.25 -32.45,-24.09 -46.5699,-38.51 -27.15,-26.53 -49.26,-58.0699 -65.74,-92.23 -18.83,-39.6801 -29.63,-83.1801 -31.4301,-127.0699 -1.96,-45.12 5.29,-90.66 21.62,-132.77 13.37,-34.12 32.13,-66.1901 55.92,-94.0901 31.16,-36.7599 70.4401,-66.7 114.3101,-86.6899 35.8501,-16.3301 74.6302,-26.4001 113.9801,-28.8901 m -7.43,15.48 c -38.21,3.12 -76.9,13.1 -108.66,35.29 -18.35,12.6899 -35.9099,26.6 -51.86,42.22 -26.49,25.62 -48.3099,56.22 -62.89,90.12 -16.0599,37.37 -23.83,78.02 -25.1899,118.5601 1.78,-9.8201 4.34,-19.49 7.84,-28.8401 12.5,-33.6899 31.85,-64.63 55.5701,-91.5499 24.72,-28.5701 54.85,-52.5701 88.88,-69.12 37.51,-19.66 80.46,-25.3 122.2699,-26.24 12.3301,-0.01 24.8401,-1.05 37,1.61 18.52,3.76 35.6101,12.49 51.42,22.59 18.66,11.76 35.8201,25.6901 54.0701,38.04 14.97,10.1899 30.36,21.12 48.5199,24.5399 9.74,1.4301 20.0801,1.1201 29.2001,-2.9399 6.4399,-2.74 12.36,-7.62 14.84,-14.3199 2.37,-5.9401 1.51,-12.62 -0.52,-18.52 -5.73,-16.79 -16.5399,-31.3401 -28.97,-43.78 -13.96,-13.5 -29.84,-24.85 -46.47,-34.8101 -15.64,-9.1399 -31.5801,-17.97 -48.6,-24.3099 C 1490.04,1057.36 1443.0601,1051.6 1396.98,1054.97 m -68.23,157.69 c -21.4399,21.26 -42.76,42.63 -64.11,63.98 -5.22,5.49 -11.02,10.4399 -15.83,16.3099 2.6,3.12 5.5299,5.9301 8.45,8.76 26,25.99 51.98,52.01 77.99,77.99 0.64,0.8201 1.84,1.7101 1.37,2.9501 -1.9,2.71 -4.5599,4.76 -6.84,7.13 -27.13,27.1899 -54.3,54.3199 -81.4601,81.47 29.53,28.98 58.41,58.64 87.9701,87.6 2.86,-2.36 5.34,-5.11 7.9299,-7.74 27.03,-26.97 54.03,-53.97 81.05,-80.95 2.6899,2.12 5.09,4.59 7.49,7.0499 27.35,27.2101 54.4299,54.7001 81.9399,81.75 17.7101,-18.0399 35.7201,-35.7999 53.5901,-53.6899 11.23,-11.4301 22.9299,-22.4301 33.75,-34.24 -27.86,-28.49 -56.36,-56.38 -84.41,-84.7001 -1.53,-1.6599 -5.26,-3.7799 -2.42,-6.0699 28.91,-29.17 58.15,-58.02 87.02,-87.22 -1.5699,-1.86 -3.1699,-3.6901 -4.9,-5.37 -27.5499,-27.39 -54.9299,-54.9501 -82.48,-82.3401 -3.8199,2.63 -6.6899,6.3 -10.0399,9.4501 -26.3701,26.38 -52.75,52.75 -79.13,79.12 -4.13,-3.36 -7.8501,-7.1901 -11.51,-11.03 -23.14,-22.91 -45.99,-46.1 -69.13,-69 -2.9601,-2.74 -5.28,-6.52 -9.0601,-8.12 -2.8799,1.74 -4.7699,4.67 -7.2299,6.91 m 410.27,54.46 c -0.49,5.64 0.53,11.26 0.45,16.91 1.1,45.39 -6.5599,91.02 -22.9399,133.4 -25.38,66.4199 -72.25,124.8099 -132.85,162.2799 -64,40.1901 -142.91,55.54 -217.3601,42.8201 -40.9399,-7 -80.5699,-21.92 -115.72,-44.0701 -66.23,-40.74 -117.12,-105.26 -142.47,-178.6699 -3.04,-7.8201 -4.9,-16.03 -7.75,-23.9 4.73,53.83 21.77,106.66 50.01,152.78 38.47,63.4399 98.12,114.1599 167.73,140.26 37.5,14.22 77.73,21.2799 117.83,20.45 35.52,-0.9301 70.9701,-7.55 104.1901,-20.22 32.62,-12.14 62.89,-30.2101 89.77,-52.26 37.65,-31.24 68.02,-71.17 88.5599,-115.55 32.42,-69.09 40.41,-149.03 23.67,-223.39 -0.89,-3.66 -1.3299,-7.48 -3.12,-10.84 m -591.4501,96.24 c 0.52,-5.91 0.9801,-11.91 0.2301,-17.8099 -1.33,5.8099 -1.58,11.9799 -0.2301,17.8099 z"
         id="path36"
         inkscape:connector-curvature="0"
         style="fill:#ec2b3c" />
      <path
         d="m 1396.98,1054.97 c 46.0801,-3.37 93.0601,2.39 136.4501,18.54 17.0199,6.34 32.96,15.17 48.6,24.3099 16.63,9.9601 32.51,21.3101 46.47,34.8101 12.4301,12.4399 23.24,26.99 28.97,43.78 2.03,5.9 2.89,12.58 0.52,18.52 -2.48,6.7 -8.4,11.58 -14.84,14.3199 -9.12,4.0601 -19.4601,4.37 -29.2001,2.9399 -18.1599,-3.4199 -33.5499,-14.35 -48.5199,-24.5399 -18.25,-12.35 -35.41,-26.28 -54.0701,-38.04 -15.8099,-10.1 -32.9,-18.83 -51.42,-22.59 -12.1599,-2.66 -24.6699,-1.62 -37,-1.61 -41.8099,0.9399 -84.7599,6.58 -122.2699,26.24 -34.03,16.5499 -64.16,40.5499 -88.88,69.12 -23.7201,26.9199 -43.0701,57.86 -55.5701,91.5499 -3.5,9.3501 -6.0599,19.02 -7.84,28.8401 1.36,-40.54 9.13,-81.1901 25.1899,-118.5601 14.5801,-33.9 36.4,-64.5 62.89,-90.12 15.9501,-15.62 33.51,-29.53 51.86,-42.22 31.7601,-22.1899 70.4501,-32.1698 108.6601,-35.2898 z"
         id="path38"
         inkscape:connector-curvature="0"
         style="fill:#f4939c" />
      <path
         d="m 1739.02,1267.12 c 1.79,3.36 2.23,7.1801 3.12,10.84 16.74,74.36 8.75,154.3 -23.67,223.39 -20.5399,44.38 -50.9099,84.3101 -88.5599,115.55 -26.88,22.0499 -57.15,40.12 -89.77,52.26 -33.22,12.6699 -68.67,19.2899 -104.1901,20.22 -40.1,0.83 -80.33,-6.23 -117.83,-20.45 -69.61,-26.1001 -129.26,-76.8201 -167.73,-140.26 -28.24,-46.12 -45.28,-98.9501 -50.01,-152.78 2.85,7.87 4.71,16.08 7.75,23.9 25.35,73.4099 76.24,137.9299 142.47,178.6699 35.15,22.15 74.78,37.0701 115.72,44.0701 74.4501,12.72 153.3601,-2.63 217.3601,-42.8201 60.6,-37.47 107.47,-95.86 132.85,-162.2799 16.38,-42.38 24.0399,-88.01 22.9399,-133.4 0.08,-5.65 -0.94,-11.27 -0.45,-16.91 z"
         id="path40"
         inkscape:connector-curvature="0"
         style="fill:#fe0000" />
      <path
         d="m 1147.5699,1363.36 c -1.35,-5.83 -1.1,-12 0.2301,-17.8099 0.75,5.8999 0.29,11.8999 -0.2301,17.8099 z"
         id="path42"
         inkscape:connector-curvature="0"
         style="fill:#f46469" />
    </g>
  </g>
</svg>
