<?xml version="1.0" encoding="UTF-8" standalone="no"?>
<!-- Created with Inkscape (http://www.inkscape.org/) -->

<svg
   xmlns:dc="http://purl.org/dc/elements/1.1/"
   xmlns:cc="http://creativecommons.org/ns#"
   xmlns:rdf="http://www.w3.org/1999/02/22-rdf-syntax-ns#"
   xmlns:svg="http://www.w3.org/2000/svg"
   xmlns="http://www.w3.org/2000/svg"
   xmlns:sodipodi="http://sodipodi.sourceforge.net/DTD/sodipodi-0.dtd"
   xmlns:inkscape="http://www.inkscape.org/namespaces/inkscape"
   width="193.44641mm"
   height="193.44554mm"
   viewBox="0 0 193.44641 193.44554"
   version="1.1"
   id="svg6468"
   inkscape:version="0.92.1 r15371"
   sodipodi:docname="answer_incorrect3.svg"
   inkscape:export-filename="/home/nuage/Documents/Logs éducatifs/tuxmath_js/images/icons/answer_incorrect.png"
   inkscape:export-xdpi="3.2825775"
   inkscape:export-ydpi="3.2825775">
  <defs
     id="defs6462" />
  <sodipodi:namedview
     id="base"
     pagecolor="#ffffff"
     bordercolor="#666666"
     borderopacity="1.0"
     inkscape:pageopacity="0.0"
     inkscape:pageshadow="2"
     inkscape:zoom="0.7"
     inkscape:cx="172.37817"
     inkscape:cy="318.14192"
     inkscape:document-units="mm"
     inkscape:current-layer="g44"
     showgrid="false"
     fit-margin-top="0"
     fit-margin-left="0"
     fit-margin-right="0"
     fit-margin-bottom="0"
     inkscape:window-width="1278"
     inkscape:window-height="772"
     inkscape:window-x="0"
     inkscape:window-y="0"
     inkscape:window-maximized="1" />
  <metadata
     id="metadata6465">
    <rdf:RDF>
      <cc:Work
         rdf:about="">
        <dc:format>image/svg+xml</dc:format>
        <dc:type
           rdf:resource="http://purl.org/dc/dcmitype/StillImage" />
        <dc:title></dc:title>
      </cc:Work>
    </rdf:RDF>
  </metadata>
  <g
     inkscape:label="Calque 1"
     inkscape:groupmode="layer"
     id="layer1"
     transform="translate(146.23808,-52.110562)">
    <g
       transform="matrix(0.26458333,0,0,0.26458333,-427.1375,-213.02362)"
       id="g44">
      <path
         d="m 1416.21,1002.25 c 46.4,-1.4 93.0701,5.95 136.66,21.97 68.76,25.01 129.45,71.4 171.91,130.9601 24.21,33.8199 42.58,71.8199 54,111.8099 19.35,67.63 18.6699,140.86 -2.01,208.1 -17.88,58.53 -50.96,112.26 -94.87,154.86 -44.4301,43.2001 -99.98,74.92 -159.89,90.8601 -69.83,18.73 -145.22,16.22 -213.59,-7.3301 -72.4,-24.7 -136.39,-73 -180.3,-135.6 -23.3,-33.01 -41.01,-69.95 -52.1899,-108.79 -25.03,-86.22 -16.9401,-181.65 22.88,-262.1899 33.3199,-68.29 88.5499,-125.6 155.5299,-161.4601 49.61,-26.73 105.53,-41.65 161.87,-43.19 m -11.8,37.24 c -39.35,2.49 -78.13,12.5601 -113.98,28.89 -43.87,19.99 -83.15,49.9301 -114.3101,86.6899 -23.79,27.9 -42.55,59.9701 -55.92,94.0901 -16.33,42.11 -23.58,87.65 -21.62,132.77 1.8,43.8899 12.6001,87.3899 31.4301,127.0699 16.48,34.16 38.59,65.7 65.74,92.23 14.12,14.42 29.83,27.26 46.5699,38.51 14.9,9.85 30.2101,19.21 46.5801,26.45 34.03,15.8201 70.7999,25.67 108.1799,29.03 37.2101,3.15 75.04,0.7101 111.2301,-8.71 34.8099,-8.71 68.08,-23.41 98.1299,-42.99 12.03,-7.4 22.9301,-16.42 33.9401,-25.21 23.95,-20.4901 45.04,-44.3301 62.23,-70.75 40.59,-61.2201 59.08,-136.55 52.24,-209.6201 -1.9299,-20.23 -5.14,-40.3899 -11.0699,-59.86 -2.54,-10.1899 -6.22,-20.0299 -10.01,-29.7999 -5.97,-16.75 -14.23,-32.5601 -23.14,-47.91 -38.09,-64.73 -99.08,-115.65 -169.62,-141.49 C 1497.55,1042.85 1450.62,1036.0699 1404.41,1039.49 Z"
         id="path32"
         inkscape:connector-curvature="0"
         style="fill:#c2272d" />
      <path
         d="m 1404.41,1039.49 c 46.21,-3.42 93.14,3.36 136.6,19.39 70.54,25.84 131.53,76.76 169.62,141.49 8.91,15.35 17.17,31.16 23.14,47.91 3.79,9.77 7.47,19.61 10.01,29.7999 5.9299,19.4701 9.14,39.63 11.0699,59.86 6.84,73.0701 -11.65,148.4 -52.24,209.6201 -17.1899,26.4199 -38.28,50.2599 -62.23,70.75 -11.01,8.7899 -21.91,17.8099 -33.9401,25.21 -30.0499,19.58 -63.3199,34.28 -98.1299,42.99 -36.1901,9.42 -74.02,11.86 -111.2301,8.71 -37.38,-3.36 -74.1499,-13.21 -108.1799,-29.03 -16.37,-7.24 -31.6801,-16.6 -46.5801,-26.45 -16.74,-11.25 -32.45,-24.09 -46.5699,-38.51 -27.15,-26.53 -49.26,-58.0699 -65.74,-92.23 -18.83,-39.6801 -29.63,-83.1801 -31.4301,-127.0699 -1.96,-45.12 5.29,-90.66 21.62,-132.77 13.37,-34.12 32.13,-66.1901 55.92,-94.0901 31.16,-36.7599 70.4401,-66.7 114.3101,-86.6899 35.8501,-16.3301 74.6302,-26.4001 113.9801,-28.8901 m -7.43,15.48 c -38.21,3.12 -76.9,13.1 -108.66,35.29 -18.35,12.6899 -35.9099,26.6 -51.86,42.22 -26.49,25.62 -48.3099,56.22 -62.89,90.12 -16.0599,37.37 -23.83,78.02 -25.1899,118.5601 1.78,-9.8201 4.34,-19.49 7.84,-28.8401 12.5,-33.6899 31.85,-64.63 55.5701,-91.5499 24.72,-28.5701 54.85,-52.5701 88.88,-69.12 37.51,-19.66 80.46,-25.3 122.2699,-26.24 12.3301,-0.01 24.8401,-1.05 37,1.61 18.52,3.76 35.6101,12.49 51.42,22.59 18.66,11.76 35.8201,25.6901 54.0701,38.04 14.97,10.1899 30.36,21.12 48.5199,24.5399 9.74,1.4301 20.0801,1.1201 29.2001,-2.9399 6.4399,-2.74 12.36,-7.62 14.84,-14.3199 2.37,-5.9401 1.51,-12.62 -0.52,-18.52 -5.73,-16.79 -16.5399,-31.3401 -28.97,-43.78 -13.96,-13.5 -29.84,-24.85 -46.47,-34.8101 -15.64,-9.1399 -31.5801,-17.97 -48.6,-24.3099 C 1490.04,1057.36 1443.0601,1051.6 1396.98,1054.97 m 342.04,212.15 c -0.49,5.64 0.53,11.26 0.45,16.91 1.1,45.39 -6.5599,91.02 -22.9399,133.4 -25.38,66.4199 -72.25,124.8099 -132.85,162.2799 -64,40.1901 -142.91,55.54 -217.3601,42.8201 -40.9399,-7 -80.5699,-21.92 -115.72,-44.0701 -66.23,-40.74 -117.12,-105.26 -142.47,-178.6699 -3.04,-7.8201 -4.9,-16.03 -7.75,-23.9 4.73,53.83 21.77,106.66 50.01,152.78 38.47,63.4399 98.12,114.1599 167.73,140.26 37.5,14.22 77.73,21.2799 117.83,20.45 35.52,-0.9301 70.9701,-7.55 104.1901,-20.22 32.62,-12.14 62.89,-30.2101 89.77,-52.26 37.65,-31.24 68.02,-71.17 88.5599,-115.55 32.42,-69.09 40.41,-149.03 23.67,-223.39 -0.89,-3.66 -1.3299,-7.48 -3.12,-10.84 m -591.4501,96.24 c 0.52,-5.91 0.9801,-11.91 0.2301,-17.8099 -1.33,5.8099 -1.58,11.9799 -0.2301,17.8099 z"
         id="path36"
         inkscape:connector-curvature="0"
         style="fill:#ec2b3c"
         sodipodi:nodetypes="ccccccccccccccccccccccccccccccccccccccccccccccccccccccccccc" />
      <path
         d="m 1396.98,1054.97 c 46.0801,-3.37 93.0601,2.39 136.4501,18.54 17.0199,6.34 32.96,15.17 48.6,24.3099 16.63,9.9601 32.51,21.3101 46.47,34.8101 12.4301,12.4399 23.24,26.99 28.97,43.78 2.03,5.9 2.89,12.58 0.52,18.52 -2.48,6.7 -8.4,11.58 -14.84,14.3199 -9.12,4.0601 -19.4601,4.37 -29.2001,2.9399 -18.1599,-3.4199 -33.5499,-14.35 -48.5199,-24.5399 -18.25,-12.35 -35.41,-26.28 -54.0701,-38.04 -15.8099,-10.1 -32.9,-18.83 -51.42,-22.59 -12.1599,-2.66 -24.6699,-1.62 -37,-1.61 -41.8099,0.9399 -84.7599,6.58 -122.2699,26.24 -34.03,16.5499 -64.16,40.5499 -88.88,69.12 -23.7201,26.9199 -43.0701,57.86 -55.5701,91.5499 -3.5,9.3501 -6.0599,19.02 -7.84,28.8401 1.36,-40.54 9.13,-81.1901 25.1899,-118.5601 14.5801,-33.9 36.4,-64.5 62.89,-90.12 15.9501,-15.62 33.51,-29.53 51.86,-42.22 31.7601,-22.1899 70.4501,-32.1698 108.6601,-35.2898 z"
         id="path38"
         inkscape:connector-curvature="0"
         style="fill:#f4939c" />
      <path
         d="m 1739.02,1267.12 c 1.79,3.36 2.23,7.1801 3.12,10.84 16.74,74.36 8.75,154.3 -23.67,223.39 -20.5399,44.38 -50.9099,84.3101 -88.5599,115.55 -26.88,22.0499 -57.15,40.12 -89.77,52.26 -33.22,12.6699 -68.67,19.2899 -104.1901,20.22 -40.1,0.83 -80.33,-6.23 -117.83,-20.45 -69.61,-26.1001 -129.26,-76.8201 -167.73,-140.26 -28.24,-46.12 -45.28,-98.9501 -50.01,-152.78 2.85,7.87 4.71,16.08 7.75,23.9 25.35,73.4099 76.24,137.9299 142.47,178.6699 35.15,22.15 74.78,37.0701 115.72,44.0701 74.4501,12.72 153.3601,-2.63 217.3601,-42.8201 60.6,-37.47 107.47,-95.86 132.85,-162.2799 16.38,-42.38 24.0399,-88.01 22.9399,-133.4 0.08,-5.65 -0.94,-11.27 -0.45,-16.91 z"
         id="path40"
         inkscape:connector-curvature="0"
         style="fill:#fe0000" />
      <path
         d="m 1147.5699,1363.36 c -1.35,-5.83 -1.1,-12 0.2301,-17.8099 0.75,5.8999 0.29,11.8999 -0.2301,17.8099 z"
         id="path42"
         inkscape:connector-curvature="0"
         style="fill:#f46469" />
      <path
         d="m 1300.1791,1163.8637 c 3.1925,-2.9069 5.6454,-6.7094 9.3829,-8.9676 4.9056,2.0765 7.9164,6.9821 11.758,10.538 30.0305,29.7191 63.6847,63.8144 93.7151,93.5465 4.7498,4.9835 13.5777,13.9539 18.9375,18.3145 34.2353,-34.2224 76.4704,-76.4447 110.6929,-110.68 4.3476,-4.0879 8.0723,-8.851 13.0296,-12.2641 35.7537,35.5461 55.2869,55.3129 91.0405,90.859 2.2453,2.1801 4.3217,4.5552 6.3591,6.969 -37.4667,37.895 -83.4137,83.3357 -120.9324,121.1919 -3.6858,2.972 1.155,5.7232 3.1405,7.8774 36.4027,36.7531 81.3893,80.9481 117.5454,117.9217 -14.0421,15.3266 -21.2261,21.6021 -35.8,36.4358 -23.1912,23.2172 -42.5642,38.2657 -65.5479,61.6775 -35.7019,-35.1048 -78.8455,-78.7806 -114.3395,-114.0932 -3.1147,-3.1925 -6.2294,-6.3979 -9.7204,-9.1491 -35.0659,35.0139 -74.1059,78.0539 -109.1846,113.0548 -3.3613,3.4132 -6.5797,6.982 -10.2913,10.0448 -38.3623,-37.5836 -59.8421,-60.0756 -98.1654,-97.6851 35.2476,-35.2345 74.5082,-78.4432 109.7169,-113.7297 2.9589,-3.0758 6.4108,-5.7363 8.8767,-9.2532 0.61,-1.6092 -0.9473,-2.7643 -1.778,-3.8286 -33.755,-33.7162 -75.4713,-75.4843 -109.2133,-109.2134 -3.7896,-3.6727 -7.5921,-7.3195 -10.9663,-11.3686 6.2421,-7.6179 13.7694,-14.0417 20.5438,-21.1665 27.7073,-27.7075 43.3761,-39.441 71.2002,-67.0318"
         id="path34"
         inkscape:connector-curvature="0"
         style="fill:#ffffff;fill-opacity:1;stroke:#aa2227;stroke-width:30.7405529;stroke-miterlimit:4;stroke-dasharray:none;stroke-opacity:1"
         sodipodi:nodetypes="cccccccccccccccccccccccccc"
         inkscape:export-xdpi="3.2825627"
         inkscape:export-ydpi="3.2825627" />
      <path
         d="m 1396.98,1054.97 c 46.0801,-3.37 93.0601,2.39 136.4501,18.54 17.0199,6.34 32.96,15.17 48.6,24.3099 16.63,9.9601 32.51,21.3101 46.47,34.8101 12.4301,12.4399 23.24,26.99 28.97,43.78 2.03,5.9 2.89,12.58 0.52,18.52 -2.48,6.7 -8.4,11.58 -14.84,14.3199 -9.12,4.0601 -19.4601,4.37 -29.2001,2.9399 -18.1599,-3.4199 -33.5499,-14.35 -48.5199,-24.5399 -18.25,-12.35 -35.41,-26.28 -54.0701,-38.04 -15.8099,-10.1 -32.9,-18.83 -51.42,-22.59 -12.1599,-2.66 -24.6699,-1.62 -37,-1.61 -41.8099,0.9399 -84.7599,6.58 -122.2699,26.24 -34.03,16.5499 -64.16,40.5499 -88.88,69.12 -23.7201,26.9199 -43.0701,57.86 -55.5701,91.5499 -3.5,9.3501 -6.0599,19.02 -7.84,28.8401 1.36,-40.54 9.13,-81.1901 25.1899,-118.5601 14.5801,-33.9 36.4,-64.5 62.89,-90.12 15.9501,-15.62 33.51,-29.53 51.86,-42.22 31.7601,-22.1899 70.4501,-32.1698 108.6601,-35.2898 z"
         id="path38-6"
         inkscape:connector-curvature="0"
         style="fill:#f4939c;opacity:0.525" />
    </g>
  </g>
</svg>
