<?xml version="1.0" encoding="UTF-8" standalone="no"?>
<!-- Created with Inkscape (http://www.inkscape.org/) -->

<svg
   xmlns:dc="http://purl.org/dc/elements/1.1/"
   xmlns:cc="http://creativecommons.org/ns#"
   xmlns:rdf="http://www.w3.org/1999/02/22-rdf-syntax-ns#"
   xmlns:svg="http://www.w3.org/2000/svg"
   xmlns="http://www.w3.org/2000/svg"
   xmlns:sodipodi="http://sodipodi.sourceforge.net/DTD/sodipodi-0.dtd"
   xmlns:inkscape="http://www.inkscape.org/namespaces/inkscape"
   width="193.44748mm"
   height="193.4408mm"
   viewBox="0 0 193.44748 193.4408"
   version="1.1"
   id="svg5917"
   inkscape:version="0.92.1 r15371"
   sodipodi:docname="answer_correct.svg"
   inkscape:export-filename="/home/nuage/Documents/Logs éducatifs/tuxmath_js/images/icons/answer_correct.png"
   inkscape:export-xdpi="3.2826581"
   inkscape:export-ydpi="3.2826581">
  <defs
     id="defs5911" />
  <sodipodi:namedview
     id="base"
     pagecolor="#ffffff"
     bordercolor="#666666"
     borderopacity="1.0"
     inkscape:pageopacity="0.0"
     inkscape:pageshadow="2"
     inkscape:zoom="0.35"
     inkscape:cx="-580.14424"
     inkscape:cy="111.2717"
     inkscape:document-units="mm"
     inkscape:current-layer="layer1"
     showgrid="false"
     fit-margin-top="0"
     fit-margin-left="0"
     fit-margin-right="0"
     fit-margin-bottom="0"
     inkscape:window-width="1278"
     inkscape:window-height="772"
     inkscape:window-x="0"
     inkscape:window-y="0"
     inkscape:window-maximized="1" />
  <metadata
     id="metadata5914">
    <rdf:RDF>
      <cc:Work
         rdf:about="">
        <dc:format>image/svg+xml</dc:format>
        <dc:type
           rdf:resource="http://purl.org/dc/dcmitype/StillImage" />
        <dc:title />
      </cc:Work>
    </rdf:RDF>
  </metadata>
  <g
     inkscape:label="Calque 1"
     inkscape:groupmode="layer"
     id="layer1"
     transform="translate(49.854694,12.143013)">
    <g
       transform="matrix(0.26458333,0,0,0.26458333,-74.415837,-277.27681)"
       id="g60">
      <path
         d="m 399.39,1397.75 c 62.61,-51.92 125.16,-103.89 187.73,-155.85 15.12,15.3199 30.27,30.61 45.3,46.01 -77.92,77.9099 -155.9,155.75 -233.7,233.77 -44.71,-44.46 -89.16,-89.18 -133.83,-133.68 21.87,-21.7 43.58,-43.5601 65.3,-65.41 23.1,25.02 46.13,50.11 69.2,75.16 z"
         id="path46"
         inkscape:connector-curvature="0"
         style="fill:#ffffff" />
      <path
         d="m 446.15,1002.29 c 52.71,-1.78 105.83,7.79 154.39,28.44 70.21,29.48 130.59,81.62 170.11,146.6901 20.24,33.01 35.05,69.33 43.8199,107.0299 11.2401,48.3101 12.5,98.92 3.8101,147.75 -13.92,79.51 -55.48,153.7201 -115.65,207.4701 -29.36,26.4199 -63.03,48.0299 -99.29,63.6899 -85.5,37.24 -185.38,39.7001 -272.67,6.92 -73.99,-27.41 -138.37,-79.69 -180.67,-146.27 -22.47,-35.1801 -38.85,-74.25 -48.06,-114.96 -11.3,-49.65 -12.09,-101.65 -2.36,-151.63 15.48,-80.77 59.54,-155.5801 122.37,-208.6001 37.6,-31.98 81.75,-56.25 128.96,-70.6899 30.85,-9.5 62.98,-14.83 95.24,-15.84 m -141.53,76.35 c -69.09,37.42 -123.84,100.49 -151.05,174.22 -15.5,41.4301 -22.25,86 -20.18,130.17 -0.74,-0.9301 -1.47,-1.85 -2.2,-2.74 1.7,11.22 2.6,22.58 4.9,33.72 1.43,6.59 1.58,13.45 3.64,19.9 11.47,57.2 38.91,111.0299 78.09,154.22 50.11,55.89 119.96,93.66 194.22,104.75 45.5,6.9 92.47,4.33 136.87,-7.84 39.23,-10.67 76.42,-28.8 109.04,-53.0601 58.81,-43.4399 102.49,-107 121.52,-177.63 11.85,-43.26 14.44,-88.95 8.27,-133.34 -6.05,-42.67 -20.58,-84.12 -42.65,-121.14 -36.1,-61.1 -92.52,-109.9399 -158.2401,-136.75 -46.91,-19.3099 -98.35,-27.34 -148.92,-23.62 C 391.37,1042.78 345.56,1056.23 304.62,1078.64 Z"
         id="path48"
         inkscape:connector-curvature="0"
         style="fill:#016938" />
      <path
         d="m 400.88,1375.73 c 62.34,-51.98 124.97,-103.63 187.27,-155.66 22.46,22.4801 44.55,45.3301 66.88,67.9401 -81.98,82.04 -164.05,163.98 -246.03,246 -3.56,3.4299 -6.84,7.16 -10.64,10.33 -47.66,-47.89 -95.59,-95.5299 -143.26,-143.4099 -0.95,-0.67 -2.05,-0.9701 -3.29,-0.92 -1.78,-2.5 -3.38,-5.13 -4.94,-7.76 1.99,-1.66 3.98,-3.3101 5.94,-4.99 -1.8,-1.55 -3.48,-3.2 -5.02,-4.99 27.72,-27.55 55.23,-55.3 82.96,-82.84 23.37,25.4298 46.82,50.7998 70.13,76.2998 m -1.49,22.02 c -23.07,-25.05 -46.1,-50.14 -69.2,-75.16 -21.72,21.85 -43.43,43.7101 -65.3,65.41 44.67,44.5 89.12,89.22 133.83,133.6801 77.8,-78.02 155.78,-155.8601 233.7,-233.77 -15.03,-15.4 -30.18,-30.6901 -45.3,-46.01 C 524.55,1293.86 462,1345.83 399.39,1397.75 Z"
         id="path50"
         inkscape:connector-curvature="0"
         style="fill:#016938" />
      <path
         d="m 304.62,1078.64 c 40.94,-22.41 86.75,-35.86 133.31,-39.14 50.57,-3.72 102.01,4.3101 148.92,23.62 65.72,26.8101 122.14,75.65 158.2401,136.75 22.0699,37.02 36.6,78.47 42.65,121.14 6.17,44.39 3.58,90.08 -8.27,133.34 -19.03,70.63 -62.71,134.1901 -121.52,177.63 -32.62,24.26 -69.81,42.39 -109.04,53.0601 -44.4,12.1699 -91.37,14.74 -136.87,7.84 -74.26,-11.09 -144.11,-48.86 -194.22,-104.75 -39.18,-43.1901 -66.62,-97.02 -78.09,-154.22 3.27,7.65 4.52,15.96 7.36,23.76 22.09,70.5199 67.55,133.5599 127.85,176.35 29.82,21.14 63.04,37.61 98.21,47.6899 76.87,22.6801 162.36,14.1001 233.16,-23.46 30.52,-15.95 58.22,-37.15 82.1,-61.91 26.82,-28.48 48.97,-61.4399 64.53,-97.37 27.49,-62.49 35.45,-133.1799 23.55,-200.34 -1.89,-9.41 -3.25,-19.01 -6.39,-28.1 -0.38,7.1699 0.77,14.3099 0.52,21.49 0.84,43.1899 -6.67,86.48 -21.7,126.97 -24.75,66.67 -70.98,125.5701 -131.21,163.6801 -31.87,20.39 -67.52,34.7799 -104.55,42.47 -48.14,10.08 -98.61,8.45 -146.05,-4.5 -67.05,-18.24 -127.41,-58.9301 -170.76,-113.08 -24.59,-30.5 -43.79,-65.29 -56.83,-102.2201 -2.24,-7.37 -5.66,-14.5299 -6.13,-22.3099 -2.07,-44.17 4.68,-88.74 20.18,-130.17 C 180.78,1179.13 235.53,1116.0601 304.62,1078.64 m 97.34,-20.42 c -26.9,4.73 -53.5,13.36 -76.6,28.17 -16.51,10.7999 -32.23,22.84 -46.93,35.99 -28.06,24.92 -51.86,54.88 -68.39,88.64 -19.06,39.1899 -28.39,82.6699 -30.29,126.04 1.44,-2.4501 1.79,-5.29 2.46,-7.9901 1.96,-8.47 4.98,-16.6499 8.24,-24.6899 6.98,-16.89 15.59,-33.11 25.61,-48.4 9.45,-14.88 20.87,-28.37 32.54,-41.54 9.58,-10.0299 19.32,-19.98 30.15,-28.6799 16.63,-13.66 34.96,-25.21 54.26,-34.71 37.2,-19.1801 79.63,-24.7101 120.97,-25.62 13.12,0.01 26.48,-1.1901 39.35,2.08 26.02,5.85 48.53,21.05 70.01,36.2 16.1299,11.9501 32.41,23.74 49.29,34.62 13.03,7.99 27.64,15.27 43.34,14.54 8.71,0.2 17.52,-2.1899 24.69,-7.17 6.01,-4.2 10.1201,-11.3199 9.89,-18.74 0.05,-5.95 -2.13,-11.59 -4.36,-16.99 -8.32,-18.99 -22.47,-34.7899 -38.27,-47.9199 -15.41,-12.74 -32.46,-23.3401 -49.99,-32.88 -14.43,-8.03 -29.56,-14.8201 -45.31,-19.8101 -48.38,-15.55 -100.53,-19.2902 -150.66,-11.1401 m -1.08,317.51 c -23.31,-25.5 -46.76,-50.87 -70.13,-76.2999 -27.73,27.5399 -55.24,55.2899 -82.96,82.84 1.54,1.79 3.22,3.4399 5.02,4.99 -1.96,1.6799 -3.95,3.33 -5.94,4.99 1.56,2.63 3.16,5.26 4.94,7.76 1.24,-0.05 2.34,0.25 3.29,0.92 47.67,47.88 95.6,95.5199 143.26,143.4099 3.8,-3.1699 7.08,-6.9 10.64,-10.33 81.98,-82.02 164.05,-163.96 246.03,-246 -22.33,-22.61 -44.42,-45.46 -66.88,-67.9401 C 525.85,1272.1 463.22,1323.75 400.88,1375.73 m -222.41,-27.37 c -0.88,4.88 -0.81,9.92 0.13,14.8 0.5,-4.87 1.63,-10.0901 -0.13,-14.8 z"
         id="path52"
         inkscape:connector-curvature="0"
         style="fill:#8cc63e" />
      <path
         d="m 401.96,1058.22 c 50.13,-8.15 102.28,-4.4099 150.66,11.14 15.75,4.99 30.88,11.78 45.31,19.8101 17.53,9.5399 34.58,20.14 49.99,32.88 15.8,13.13 29.95,28.9299 38.27,47.9199 2.23,5.4 4.41,11.04 4.36,16.99 0.23,7.42 -3.88,14.54 -9.89,18.74 -7.17,4.9801 -15.98,7.37 -24.69,7.17 -15.7,0.73 -30.31,-6.55 -43.34,-14.54 -16.88,-10.88 -33.16,-22.6699 -49.29,-34.62 -21.48,-15.1499 -43.9901,-30.35 -70.01,-36.2 -12.87,-3.27 -26.23,-2.0701 -39.35,-2.08 -41.34,0.9099 -83.77,6.4399 -120.97,25.62 -19.3,9.5 -37.63,21.0499 -54.26,34.71 -10.83,8.7 -20.57,18.65 -30.15,28.6799 -11.67,13.17 -23.09,26.66 -32.54,41.54 -10.02,15.29 -18.63,31.51 -25.61,48.4 -3.26,8.04 -6.28,16.22 -8.24,24.6899 -0.67,2.7001 -1.02,5.54 -2.46,7.9901 1.9,-43.3701 11.23,-86.8501 30.29,-126.04 16.53,-33.76 40.33,-63.72 68.39,-88.64 14.7,-13.15 30.42,-25.1901 46.93,-35.99 23.1,-14.8099 49.7,-23.4399 76.6,-28.1699 z"
         id="path54"
         inkscape:connector-curvature="0"
         style="fill:#c5df96" />
      <path
         d="m 770.1,1270.53 c 3.14,9.09 4.5,18.6899 6.39,28.1 11.9,67.16 3.94,137.85 -23.55,200.34 -15.56,35.9301 -37.71,68.89 -64.53,97.37 -23.8799,24.76 -51.58,45.9601 -82.1,61.91 -70.8,37.5601 -156.29,46.14 -233.16,23.46 -35.17,-10.08 -68.39,-26.5499 -98.21,-47.6899 -60.3,-42.79 -105.76,-105.8301 -127.85,-176.35 -2.84,-7.8 -4.09,-16.11 -7.36,-23.76 -2.06,-6.4501 -2.21,-13.3101 -3.64,-19.9 -2.3,-11.14 -3.2,-22.5 -4.9,-33.72 0.73,0.89 1.46,1.8099 2.2,2.74 0.47,7.78 3.89,14.9399 6.13,22.3099 13.04,36.9301 32.24,71.7201 56.83,102.2201 43.35,54.1499 103.71,94.84 170.76,113.08 47.44,12.95 97.91,14.58 146.05,4.5 37.03,-7.6901 72.6801,-22.08 104.55,-42.47 60.23,-38.11 106.46,-97.01 131.21,-163.6801 15.03,-40.49 22.54,-83.78 21.7,-126.97 0.25,-7.18 -0.9,-14.32 -0.52,-21.49 z"
         id="path56"
         inkscape:connector-curvature="0"
         style="fill:#3ab54b" />
      <path
         d="m 178.47,1348.36 c 1.76,4.71 0.63,9.9301 0.13,14.8 -0.94,-4.88 -1.01,-9.92 -0.13,-14.8 z"
         id="path58"
         inkscape:connector-curvature="0"
         style="fill:#a9d66d" />
    </g>
  </g>
</svg>
