<?xml version="1.0" encoding="UTF-8" standalone="no"?>
<!--part of the rodentia icon theme by sixsixfive released under CC0 (https://creativecommons.org/publicdomain/zero/1.0/) on openclipart-->

<svg
   xmlns:dc="http://purl.org/dc/elements/1.1/"
   xmlns:cc="http://creativecommons.org/ns#"
   xmlns:rdf="http://www.w3.org/1999/02/22-rdf-syntax-ns#"
   xmlns:svg="http://www.w3.org/2000/svg"
   xmlns="http://www.w3.org/2000/svg"
   xmlns:xlink="http://www.w3.org/1999/xlink"
   xmlns:sodipodi="http://sodipodi.sourceforge.net/DTD/sodipodi-0.dtd"
   xmlns:inkscape="http://www.inkscape.org/namespaces/inkscape"
   viewBox="0 0 48 48"
   version="1.1"
   id="svg22"
   sodipodi:docname="expand.svg"
   inkscape:version="0.92.1 r15371">
  <metadata
     id="metadata26">
    <rdf:RDF>
      <cc:Work
         rdf:about="">
        <dc:format>image/svg+xml</dc:format>
        <dc:type
           rdf:resource="http://purl.org/dc/dcmitype/StillImage" />
        <dc:title></dc:title>
      </cc:Work>
    </rdf:RDF>
  </metadata>
  <sodipodi:namedview
     pagecolor="#ffffff"
     bordercolor="#666666"
     borderopacity="1"
     objecttolerance="10"
     gridtolerance="10"
     guidetolerance="10"
     inkscape:pageopacity="0"
     inkscape:pageshadow="2"
     inkscape:window-width="1278"
     inkscape:window-height="772"
     id="namedview24"
     showgrid="false"
     inkscape:zoom="6.9532167"
     inkscape:cx="18.015471"
     inkscape:cy="26.319407"
     inkscape:window-x="0"
     inkscape:window-y="0"
     inkscape:window-maximized="1"
     inkscape:current-layer="svg22" />
  <defs
     id="0">
    <linearGradient
       id="8">
      <stop
         id="E"
         stop-color="#fff"
         stop-opacity="0.8" />
      <stop
         id="F"
         offset="1"
         stop-color="#fff"
         stop-opacity="0" />
    </linearGradient>
    <linearGradient
       id="9">
      <stop
         id="G"
         stop-color="#2e3436" />
      <stop
         id="H"
         offset="1"
         stop-color="#2e3436"
         stop-opacity="0" />
    </linearGradient>
    <linearGradient
       id="A">
      <stop
         id="I"
         stop-color="#eeeeec" />
      <stop
         id="J"
         offset="1"
         stop-color="#d3d7cf" />
    </linearGradient>
    <radialGradient
       cx="25.978"
       cy="44.784"
       r="25.648"
       id="B"
       xlink:href="#9"
       gradientUnits="userSpaceOnUse"
       gradientTransform="matrix(1,0,0,0.1189711,0,39.455735)" />
    <linearGradient
       y1="5.656"
       x2="0"
       y2="42.34"
       id="C"
       xlink:href="#8"
       gradientUnits="userSpaceOnUse" />
    <radialGradient
       cx="14.811"
       cy="12.225"
       r="21.815"
       id="D"
       xlink:href="#A"
       gradientUnits="userSpaceOnUse"
       gradientTransform="matrix(0.00205886,0.8920877,-2.1481498,0.004958,41.040825,-0.9947773)" />
  </defs>
  <path
     d="m -73.375,-1.1875 c -0.483779,0 -0.84375,0.3599707 -0.84375,0.84375 l 0,38.25 c 0,0.483779 0.359972,0.84375 0.84375,0.84375 l 38.21875,0 c 0.48378,0 0.84375,-0.35997 0.84375,-0.84375 l 0,-38.25 c 0,-0.4837793 -0.359971,-0.84375 -0.84375,-0.84375 l -38.21875,0 z"
     transform="translate(-78.769885,-4.7231289)"
     id="4"
     fill="none"
     stroke="#fff"
     stroke-linejoin="round"
     stroke-linecap="round" />
  <path
     d="M 3.2908732,1.1371869 A 1.2080318,1.2080318 0 0 0 3.1617914,1.1802143 C 2.0565875,1.4361026 1.2557296,2.4123495 1.2685897,3.5467164 V 17.702702 a 1.2080318,1.2080318 0 0 0 0,0.04303 c 0.018587,0.925418 0.543373,1.811245 1.4629286,2.194393 0.919558,0.383151 1.9253199,0.149875 2.6246659,-0.516327 a 1.2080318,1.2080318 0 0 0 0.043029,0 L 8.02388,16.799131 14.951277,23.726528 8.02388,30.653926 5.3561865,27.986231 a 1.2080318,1.2080318 0 0 0 -0.043029,0 C 4.6138095,27.320026 3.6080463,27.086753 2.6884909,27.469901 1.7689307,27.853048 1.24415,28.738877 1.2255624,29.664294 a 1.2080318,1.2080318 0 0 0 0,0.04303 v 14.199012 c 0.018662,1.301897 1.107633,2.390867 2.4095294,2.409529 H 17.834105 a 1.2080318,1.2080318 0 0 0 0.04303,0 c 0.92542,-0.01859 1.811245,-0.543373 2.194393,-1.462928 0.38315,-0.919558 0.149872,-1.925321 -0.516328,-2.624667 a 1.2080318,1.2080318 0 0 0 0,-0.04303 l -2.667693,-2.71072 6.884369,-6.88437 6.970424,6.970425 -2.581638,2.624665 a 1.2080318,1.2080318 0 0 0 0,0.04303 c -0.666202,0.699347 -0.899474,1.705112 -0.516328,2.624667 0.383147,0.919559 1.268975,1.444342 2.194394,1.462928 a 1.2080318,1.2080318 0 0 0 0.04303,0 h 14.155985 c 1.301896,-0.01866 2.390867,-1.107633 2.409529,-2.409529 V 29.707325 a 1.2080318,1.2080318 0 0 0 0,-0.04303 c -0.01859,-0.925419 -0.543373,-1.811244 -1.462928,-2.194393 -0.919558,-0.383151 -1.925321,-0.149872 -2.624665,0.516328 a 1.2080318,1.2080318 0 0 0 -0.04303,0 l -2.624666,2.624666 -6.88437,-6.841343 a 1.2080318,1.2080318 0 0 0 -0.04303,-0.04303 1.2080318,1.2080318 0 0 0 0,-0.04303 l 6.927397,-6.927397 2.667693,2.667693 a 1.2080318,1.2080318 0 0 0 0.04303,0 c 0.699348,0.666201 1.705113,0.899474 2.624667,0.516327 0.919561,-0.383146 1.444342,-1.268974 1.462929,-2.194393 a 1.2080318,1.2080318 0 0 0 0,-0.04303 V 3.5467164 C 46.471637,2.24482 45.382661,1.1558487 44.080763,1.1371869 H 29.881751 a 1.2080318,1.2080318 0 0 0 -0.04303,0 c -0.925417,0.018588 -1.811244,0.5433731 -2.194393,1.4629287 -0.383151,0.9195581 -0.149873,1.9253202 0.516328,2.6246659 a 1.2080318,1.2080318 0 0 0 0,0.043027 L 30.785322,7.8494471 23.814898,14.819872 16.887502,7.9355021 19.555194,5.267809 a 1.2080318,1.2080318 0 0 0 0,-0.043027 C 20.221399,4.5254345 20.454673,3.5196709 20.071524,2.6001156 19.688378,1.6805553 18.80255,1.1557746 17.877131,1.1371869 a 1.2080318,1.2080318 0 0 0 -0.04303,0 h -14.0269 c -0.042652,-0.00453 -0.086294,0.00226 -0.1290819,0 -0.1283618,-0.00679 -0.2592893,-0.013589 -0.3872459,0 z"
     id="5"
     inkscape:connector-curvature="0"
     style="fill:#babdb6;fill-rule:evenodd;stroke-width:1.37687397" />
  <path
     d="M 3.4199553,2.3419517 A 1.2224108,1.2224108 0 0 0 2.4733543,3.5467164 V 17.702702 a 1.2224108,1.2224108 0 0 0 2.0653105,0.860546 l 3.485213,-3.485212 8.6484882,8.648489 -8.6484882,8.64849 -3.5282394,-3.528239 A 1.2224108,1.2224108 0 0 0 2.430327,29.707322 v 14.199013 a 1.2224108,1.2224108 0 0 0 1.2047648,1.204764 H 17.834105 a 1.2224108,1.2224108 0 0 0 0.860546,-2.065311 l -3.52824,-3.571267 8.605462,-8.605462 8.691516,8.691517 -3.442183,3.485212 a 1.2224108,1.2224108 0 0 0 0.860545,2.065311 H 44.037736 A 1.2224108,1.2224108 0 0 0 45.2425,43.906335 V 29.707322 a 1.2224108,1.2224108 0 0 0 -2.06531,-0.860546 l -3.485211,3.485212 -7.830971,-7.830971 a 1.2224108,1.2224108 0 0 0 -0.04303,0 l -0.04303,-0.08605 A 1.2224108,1.2224108 0 0 0 31.60284,24.285884 h -0.04303 l -0.559356,-0.602381 0.430273,-0.473301 0.129083,-0.04303 a 1.2224108,1.2224108 0 0 0 0.08606,-0.08606 1.2224108,1.2224108 0 0 0 0.172108,-0.129082 l 7.873998,-7.917025 3.528239,3.52824 A 1.2224108,1.2224108 0 0 0 45.285526,17.7027 V 3.5467164 A 1.2224108,1.2224108 0 0 0 44.080761,2.3419517 H 29.881749 a 1.2224108,1.2224108 0 0 0 -0.860546,2.065311 l 3.485212,3.4421844 -8.691517,8.6915169 -8.64849,-8.6054619 3.52824,-3.5282394 A 1.2224108,1.2224108 0 0 0 17.834105,2.3419517 H 3.6781191 a 1.2224108,1.2224108 0 0 0 -0.2581638,0 z"
     id="6"
     style="fill:#999999;fill-rule:evenodd;stroke-width:1.37687397"
     inkscape:connector-curvature="0" />
  <path
     d="M 3.6782781,3.5272759 V 17.70366 L 8.0179873,13.363951 18.375428,23.721392 8.0179873,34.078833 3.6493468,29.710192 V 43.886576 H 17.825729 L 13.428158,39.489004 23.785599,29.131565 34.200902,39.546867 29.861194,43.886576 H 44.037578 V 29.710192 l -4.339709,4.33971 -8.708352,-8.708351 -0.02892,0.02892 -1.67802,-1.678022 1.649089,-1.649088 0.02892,0.02892 8.737283,-8.737284 4.36864,4.368641 V 3.527269 H 29.890127 L 34.229835,7.8669789 23.814531,18.282281 13.457091,7.9248424 17.854663,3.527269 H 3.6782795 Z"
     id="7"
     style="fill:#ffffff;fill-rule:evenodd;stroke-width:1.37687397"
     inkscape:connector-curvature="0" />
</svg>
