<?xml version="1.0" encoding="UTF-8" standalone="no"?>
<svg
   xmlns:dc="http://purl.org/dc/elements/1.1/"
   xmlns:cc="http://creativecommons.org/ns#"
   xmlns:rdf="http://www.w3.org/1999/02/22-rdf-syntax-ns#"
   xmlns:svg="http://www.w3.org/2000/svg"
   xmlns="http://www.w3.org/2000/svg"
   xmlns:sodipodi="http://sodipodi.sourceforge.net/DTD/sodipodi-0.dtd"
   xmlns:inkscape="http://www.inkscape.org/namespaces/inkscape"
   width="32"
   height="32"
   viewBox="0 0 8.4666667 8.4666667"
   version="1.1"
   id="svg8"
   inkscape:version="1.0.2 (e86c870879, 2021-01-15)"
   sodipodi:docname="announce-close.svg">
  <defs
     id="defs2" />
  <sodipodi:namedview
     id="base"
     pagecolor="#ffffff"
     bordercolor="#666666"
     borderopacity="1.0"
     inkscape:pageopacity="0.0"
     inkscape:pageshadow="2"
     inkscape:zoom="11.2"
     inkscape:cx="10.294191"
     inkscape:cy="13.680131"
     inkscape:document-units="mm"
     inkscape:current-layer="layer1"
     inkscape:document-rotation="0"
     showgrid="false"
     units="px"
     inkscape:window-width="1280"
     inkscape:window-height="1000"
     inkscape:window-x="1280"
     inkscape:window-y="0"
     inkscape:window-maximized="1" />
  <metadata
     id="metadata5">
    <rdf:RDF>
      <cc:Work
         rdf:about="">
        <dc:format>image/svg+xml</dc:format>
        <dc:type
           rdf:resource="http://purl.org/dc/dcmitype/StillImage" />
        <dc:title />
      </cc:Work>
    </rdf:RDF>
  </metadata>
  <g
     inkscape:label="Calque 1"
     inkscape:groupmode="layer"
     id="layer1">
    <path
       id="rect833"
       style="fill:#ffffff;fill-opacity:0.90328354;stroke:none;stroke-width:0.137711;stroke-linecap:round;stroke-linejoin:round"
       d="M 1.5613811,0.32884247 C 1.24409,0.32810908 0.92656897,0.44907053 0.68288212,0.69163347 0.19550845,1.1767593 0.19404173,1.9594005 0.67916756,2.4467742 L 2.4912653,4.267539 0.70393145,6.0517776 C 0.21741086,6.5374062 0.21694411,7.3198986 0.70269324,7.8062991 1.1884424,8.2926996 1.9713134,8.2931659 2.4578339,7.8075372 L 4.2420721,6.0263946 6.0523126,7.8453022 c 0.485126,0.4873737 1.268386,0.4888403 1.7557597,0.00371 C 8.2954459,7.363891 8.2969129,6.5812496 7.8117869,6.093876 L 5.9996893,4.2731112 7.787023,2.4888727 C 8.2735437,2.0032441 8.2740103,1.2207516 7.7882612,0.73435117 7.302512,0.24795072 6.5196409,0.24686517 6.0331206,0.73249388 L 4.2482633,2.5136366 2.4386419,0.69534804 C 2.196079,0.45166125 1.8786722,0.32957589 1.5613811,0.32884247 Z" />
  </g>
</svg>
