<?xml version="1.0" encoding="UTF-8" standalone="no"?>
<svg
   xmlns:dc="http://purl.org/dc/elements/1.1/"
   xmlns:cc="http://creativecommons.org/ns#"
   xmlns:rdf="http://www.w3.org/1999/02/22-rdf-syntax-ns#"
   xmlns:svg="http://www.w3.org/2000/svg"
   xmlns="http://www.w3.org/2000/svg"
   xmlns:sodipodi="http://sodipodi.sourceforge.net/DTD/sodipodi-0.dtd"
   xmlns:inkscape="http://www.inkscape.org/namespaces/inkscape"
   id="svg4285"
   sodipodi:docname="announce-icon.svg"
   viewBox="0 0 356.24998 389.0625"
   version="1.1"
   inkscape:version="1.0.2 (e86c870879, 2021-01-15)"
   width="380"
   height="415">
  <defs
     id="defs12" />
  <sodipodi:namedview
     id="base"
     bordercolor="#666666"
     inkscape:pageshadow="2"
     inkscape:window-y="0"
     fit-margin-left="0"
     pagecolor="#767676"
     fit-margin-top="0"
     inkscape:window-maximized="1"
     inkscape:zoom="1.979899"
     inkscape:window-x="1280"
     inkscape:window-height="1000"
     showgrid="false"
     borderopacity="1.0"
     inkscape:current-layer="g4430"
     inkscape:cx="197.85802"
     inkscape:cy="174.40188"
     fit-margin-right="0"
     fit-margin-bottom="0"
     inkscape:window-width="1280"
     inkscape:pageopacity="0"
     inkscape:document-units="px"
     inkscape:document-rotation="0"
     inkscape:snap-global="false" />
  <g
     id="layer1"
     inkscape:label="Layer 1"
     inkscape:groupmode="layer"
     transform="translate(-350.9844,-291.34542)">
    <g
       id="g4430"
       transform="matrix(-1,0,0,1,936.9784,0)">
      <g
         id="g918"
         style="fill:#ffffff;fill-opacity:1;stroke:none;stroke-opacity:1"
         transform="translate(18.749999,-3.7499998)">
        <path
           id="path4313"
           style="fill:#ffffff;fill-opacity:1;stroke:none;stroke-width:0.293712;stroke-miterlimit:10;stroke-opacity:1"
           inkscape:connector-curvature="0"
           stroke-miterlimit="10"
           d="m 301.07548,408.26814 3.32887,-4.9109 72.74814,13.47931 c -0.72322,1.54343 -0.24296,3.42492 1.21195,4.41086 l 25.10914,17.01629 c 1.61123,1.09235 3.80253,0.67142 4.89489,-0.93981 l 15.85142,-23.39056 c 1.09235,-1.61123 0.67142,-3.80347 -0.93981,-4.89489 l -25.10914,-17.01628 c -1.49728,-1.01608 -3.4946,-0.72228 -4.64628,0.61774 l -41.42199,-61.24732 2.83637,-5.24519 -7.36776,-4.99283 -55.09246,81.28925 z" />
        <path
           id="path4317"
           inkscape:connector-curvature="0"
           d="m 493.48096,403.42787 c -18.25742,-15.58021 -44.59735,-15.51335 -62.69469,-1.09895 l 30.83083,51.61104 -16.48705,-3.50025 -32.67937,-4.18863 c 1.30518,12.07243 7.04476,23.69002 17.00969,32.19534 20.71712,17.67829 51.8427,15.21578 69.52099,-5.49945 17.67829,-20.71617 15.21672,-51.83987 -5.5004,-69.5191 z"
           style="fill:#ffffff;fill-opacity:1;stroke:none;stroke-width:0.941687;stroke-opacity:1" />
        <path
           id="polygon4319"
           d="m 395.91654,622.20529 v 25.86814 l -16.5266,8.07968 v 14.55848 l 26.4049,0.53676 1.61028,-46.88659 12.37545,0.4631 6.79322,0.80309 5.59198,0.23937 5.9666,38.37488 -8.62585,3.22999 v 10.24555 h 25.86814 l -8.52472,-52.55092 16.78729,0.38598 -14.9045,-59.51314 10.67339,-45.96869 31.15054,38.31831 -37.40685,20.00916 7.49948,24.10665 24.25786,-6.46939 -11.05774,-17.93722 39.73092,-17.32884 -53.28065,-63.59212 -15.16116,-2.15647 -19.94493,-7.00615 -26.4049,-54.58959 -18.06156,-11.69575 -14.27597,22.09197 21.55521,15.3495 7.91017,-8.88011 17.98414,53.09127 c -0.28275,2.78167 -0.88093,5.87081 -1.30789,9.24648 -7.17172,9.07276 -6.95348,14.84312 -0.78296,17.73756 l 0.54699,33.26991 -33.62798,57.92485 z"
           sodipodi:nodetypes="ccccccccccccccccccccccccccccccccccccc"
           style="fill:#ffffff;fill-opacity:1;stroke:none;stroke-width:0.941687;stroke-opacity:1" />
        <polygon
           id="polygon4321"
           points="403.64,344.36 396.21,339.79 388.77,347.8 399.64,355.24 "
           transform="matrix(0.94168696,0,0,0.94168696,3.5909237,124.92865)"
           style="fill:#ffffff;fill-opacity:1;stroke:none;stroke-opacity:1" />
        <path
           style="color:#000000;font-style:normal;font-variant:normal;font-weight:normal;font-stretch:normal;font-size:medium;line-height:normal;font-family:sans-serif;font-variant-ligatures:normal;font-variant-position:normal;font-variant-caps:normal;font-variant-numeric:normal;font-variant-alternates:normal;font-variant-east-asian:normal;font-feature-settings:normal;font-variation-settings:normal;text-indent:0;text-align:start;text-decoration:none;text-decoration-line:none;text-decoration-style:solid;text-decoration-color:#000000;letter-spacing:normal;word-spacing:normal;text-transform:none;writing-mode:lr-tb;direction:ltr;text-orientation:mixed;dominant-baseline:auto;baseline-shift:baseline;text-anchor:start;white-space:normal;shape-padding:0;shape-margin:0;inline-size:0;clip-rule:nonzero;display:inline;overflow:visible;visibility:visible;opacity:1;isolation:auto;mix-blend-mode:normal;color-interpolation:sRGB;color-interpolation-filters:linearRGB;solid-color:#000000;solid-opacity:1;vector-effect:none;fill:#ffffff;fill-opacity:1;fill-rule:nonzero;stroke:none;stroke-linecap:round;stroke-linejoin:miter;stroke-miterlimit:4;stroke-dasharray:none;stroke-dashoffset:0;stroke-opacity:1;color-rendering:auto;image-rendering:auto;shape-rendering:auto;text-rendering:auto;enable-background:accumulate;stop-color:#000000;stop-opacity:1"
           d="m 272.00977,327.48242 a 3.9727399,3.9727399 0 0 0 -3.30274,1.75196 3.9727399,3.9727399 0 0 0 1.07227,5.51562 l 26.72265,18.01367 a 3.9727399,3.9727399 0 0 0 5.51367,-1.07226 3.9727399,3.9727399 0 0 0 -1.07226,-5.51563 L 274.2207,328.16211 a 3.9727399,3.9727399 0 0 0 -2.21093,-0.67969 z"
           id="path835-6" />
        <path
           style="color:#000000;font-style:normal;font-variant:normal;font-weight:normal;font-stretch:normal;font-size:medium;line-height:normal;font-family:sans-serif;font-variant-ligatures:normal;font-variant-position:normal;font-variant-caps:normal;font-variant-numeric:normal;font-variant-alternates:normal;font-variant-east-asian:normal;font-feature-settings:normal;font-variation-settings:normal;text-indent:0;text-align:start;text-decoration:none;text-decoration-line:none;text-decoration-style:solid;text-decoration-color:#000000;letter-spacing:normal;word-spacing:normal;text-transform:none;writing-mode:lr-tb;direction:ltr;text-orientation:mixed;dominant-baseline:auto;baseline-shift:baseline;text-anchor:start;white-space:normal;shape-padding:0;shape-margin:0;inline-size:0;clip-rule:nonzero;display:inline;overflow:visible;visibility:visible;opacity:1;isolation:auto;mix-blend-mode:normal;color-interpolation:sRGB;color-interpolation-filters:linearRGB;solid-color:#000000;solid-opacity:1;vector-effect:none;fill:#ffffff;fill-opacity:1;fill-rule:nonzero;stroke:none;stroke-linecap:round;stroke-linejoin:miter;stroke-miterlimit:4;stroke-dasharray:none;stroke-dashoffset:0;stroke-opacity:1;color-rendering:auto;image-rendering:auto;shape-rendering:auto;text-rendering:auto;enable-background:accumulate;stop-color:#000000;stop-opacity:1"
           d="m 256.22266,363.2207 a 3.9727399,3.9727399 0 0 0 -3.80469,2.81055 3.9727399,3.9727399 0 0 0 2.63867,4.96094 l 30.81836,9.42187 a 3.9727399,3.9727399 0 0 0 4.96094,-2.63867 3.9727399,3.9727399 0 0 0 -2.63867,-4.95898 l -30.81836,-9.42188 a 3.9727399,3.9727399 0 0 0 -1.15625,-0.17383 z"
           id="path835-6-7" />
        <path
           style="color:#000000;font-style:normal;font-variant:normal;font-weight:normal;font-stretch:normal;font-size:medium;line-height:normal;font-family:sans-serif;font-variant-ligatures:normal;font-variant-position:normal;font-variant-caps:normal;font-variant-numeric:normal;font-variant-alternates:normal;font-variant-east-asian:normal;font-feature-settings:normal;font-variation-settings:normal;text-indent:0;text-align:start;text-decoration:none;text-decoration-line:none;text-decoration-style:solid;text-decoration-color:#000000;letter-spacing:normal;word-spacing:normal;text-transform:none;writing-mode:lr-tb;direction:ltr;text-orientation:mixed;dominant-baseline:auto;baseline-shift:baseline;text-anchor:start;white-space:normal;shape-padding:0;shape-margin:0;inline-size:0;clip-rule:nonzero;display:inline;overflow:visible;visibility:visible;opacity:1;isolation:auto;mix-blend-mode:normal;color-interpolation:sRGB;color-interpolation-filters:linearRGB;solid-color:#000000;solid-opacity:1;vector-effect:none;fill:#ffffff;fill-opacity:1;fill-rule:nonzero;stroke:none;stroke-linecap:round;stroke-linejoin:miter;stroke-miterlimit:4;stroke-dasharray:none;stroke-dashoffset:0;stroke-opacity:1;color-rendering:auto;image-rendering:auto;shape-rendering:auto;text-rendering:auto;enable-background:accumulate;stop-color:#000000;stop-opacity:1"
           d="m 295.85547,300.1543 a 3.9727399,3.9727399 0 0 0 -2.49805,0.93164 3.9727399,3.9727399 0 0 0 -0.48437,5.59765 l 20.73828,24.66602 a 3.9727399,3.9727399 0 0 0 5.59765,0.48437 3.9727399,3.9727399 0 0 0 0.48438,-5.59765 l -20.74024,-24.66602 a 3.9727399,3.9727399 0 0 0 -3.09765,-1.41601 z"
           id="path835-6-5" />
      </g>
    </g>
  </g>
  <metadata
     id="metadata9">
    <rdf:RDF>
      <cc:Work>
        <dc:format>image/svg+xml</dc:format>
        <dc:type
           rdf:resource="http://purl.org/dc/dcmitype/StillImage" />
        <cc:license
           rdf:resource="http://creativecommons.org/publicdomain/zero/1.0/" />
        <dc:publisher>
          <cc:Agent
             rdf:about="http://openclipart.org/">
            <dc:title>Openclipart</dc:title>
          </cc:Agent>
        </dc:publisher>
        <dc:title />
      </cc:Work>
      <cc:License
         rdf:about="http://creativecommons.org/publicdomain/zero/1.0/">
        <cc:permits
           rdf:resource="http://creativecommons.org/ns#Reproduction" />
        <cc:permits
           rdf:resource="http://creativecommons.org/ns#Distribution" />
        <cc:permits
           rdf:resource="http://creativecommons.org/ns#DerivativeWorks" />
      </cc:License>
    </rdf:RDF>
  </metadata>
</svg>
