<?xml version="1.0" encoding="UTF-8" standalone="no"?>
<svg
   xmlns:dc="http://purl.org/dc/elements/1.1/"
   xmlns:cc="http://creativecommons.org/ns#"
   xmlns:rdf="http://www.w3.org/1999/02/22-rdf-syntax-ns#"
   xmlns:svg="http://www.w3.org/2000/svg"
   xmlns="http://www.w3.org/2000/svg"
   xmlns:sodipodi="http://sodipodi.sourceforge.net/DTD/sodipodi-0.dtd"
   xmlns:inkscape="http://www.inkscape.org/namespaces/inkscape"
   width="36"
   height="36"
   viewBox="0 0 9.5249999 9.5249999"
   version="1.1"
   id="svg7573"
   inkscape:version="1.0.2 (e86c870879, 2021-01-15)"
   sodipodi:docname="goldstar.svg">
  <defs
     id="defs7567" />
  <sodipodi:namedview
     id="base"
     pagecolor="#ffffff"
     bordercolor="#666666"
     borderopacity="1.0"
     inkscape:pageopacity="0.0"
     inkscape:pageshadow="2"
     inkscape:zoom="3.7595835"
     inkscape:cx="51.132464"
     inkscape:cy="33.398977"
     inkscape:document-units="px"
     inkscape:current-layer="layer1"
     inkscape:document-rotation="0"
     showgrid="false"
     units="px"
     fit-margin-top="0"
     fit-margin-left="0"
     fit-margin-right="0"
     fit-margin-bottom="0"
     inkscape:window-width="1272"
     inkscape:window-height="721"
     inkscape:window-x="0"
     inkscape:window-y="27"
     inkscape:window-maximized="0" />
  <metadata
     id="metadata7570">
    <rdf:RDF>
      <cc:Work
         rdf:about="">
        <dc:format>image/svg+xml</dc:format>
        <dc:type
           rdf:resource="http://purl.org/dc/dcmitype/StillImage" />
        <dc:title></dc:title>
      </cc:Work>
    </rdf:RDF>
  </metadata>
  <g
     inkscape:label="Calque 1"
     inkscape:groupmode="layer"
     id="layer1"
     transform="translate(-98.511568,-71.373029)">
    <g
       id="g6723"
       transform="matrix(0.06222155,0,0,0.06222155,98.827923,71.695625)"
       style="opacity:0.875">
      <path
         inkscape:connector-curvature="0"
         d="m 75.699861,111.80023 -15.5,0.8 45.499999,27.6 8.7,-5.9 -8.7,-45.999998 31.7,-33 -3.6,-11.3 -52.099999,-1.6 11.8,10.7 -17.5,-33.1 -14.1,-16.0000001 -19.5,43.0000001 -38.3999999,10.6 25.5999999,29.4 -9.1,48.399998 21.2,-4.3 z"
         style="fill:none;stroke:#ff1c00;stroke-width:8;stroke-linecap:butt;stroke-linejoin:round;stroke-miterlimit:4;stroke-dasharray:none;stroke-opacity:0.491713"
         id="path3238" />
      <path
         inkscape:connector-curvature="0"
         d="m 75.699861,111.80023 -15.5,0.8 45.499999,27.6 8.7,-5.9 -8.7,-45.999998 31.7,-33 -3.6,-11.3 -52.099999,-1.6 11.8,10.7 -17.5,-33.1 -14.1,-16.0000001 -19.5,43.0000001 -38.3999999,10.6 25.5999999,29.4 -9.1,48.399998 21.2,-4.3 z"
         style="fill:#eec229;fill-opacity:1;stroke:none;stroke-width:0.80787;stroke-linecap:round;stroke-linejoin:round;stroke-opacity:0.668508"
         id="path7727" />
      <path
         inkscape:connector-curvature="0"
         d="m 60.199861,112.60023 -39.7,22.8 7.1,-17.7 29,-17.2 z"
         style="fill:#fff239;fill-opacity:1;stroke:none;stroke-width:0.80787;stroke-linecap:round;stroke-linejoin:round"
         id="line262" />
      <path
         inkscape:connector-curvature="0"
         d="m 14.599861,60.300232 19.6,22 -4.6,4.7 -25.5999999,-29.4 z"
         style="fill:#fff239;fill-opacity:1;stroke:none;stroke-width:0.80787;stroke-linecap:round;stroke-linejoin:round"
         id="line270" />
      <path
         inkscape:connector-curvature="0"
         d="m 58.099861,21.000232 -14.5,31.8 -1.2,-5.8 19.5,-43.0000001 z"
         style="fill:#eeb129;fill-opacity:1;stroke:none;stroke-width:0.80787;stroke-linecap:round;stroke-linejoin:round;stroke-opacity:0.668508"
         id="line278" />
      <path
         inkscape:connector-curvature="0"
         d="m 105.69986,140.20023 -45.499999,-27.6 -3.6,-12.1 31.6,18.4"
         style="fill:#eec229;fill-opacity:1;stroke:none;stroke-width:0.80787;stroke-linecap:round;stroke-linejoin:round;stroke-opacity:0.668508"
         id="path7659" />
      <path
         inkscape:connector-curvature="0"
         d="m 27.599861,117.70023 -7.1,17.7 9.1,-48.399998 4.6,-4.7 z"
         style="fill:#eec229;fill-opacity:1;stroke:none;stroke-width:0.80787;stroke-linecap:round;stroke-linejoin:round;stroke-opacity:0.668508"
         id="line266" />
      <path
         inkscape:connector-curvature="0"
         d="m 95.699861,84.300232 38.099999,-40.3 -25.5,7.4 -26.599999,28.5"
         style="fill:#fff239;fill-opacity:1;stroke:none;stroke-width:0.80787;stroke-linecap:round;stroke-linejoin:round"
         id="line250" />
      <path
         inkscape:connector-curvature="0"
         d="m 56.599861,100.50023 -29,17.2 6.6,-35.399998 -19.6,-22 29,-7.5 14.5,-31.8 m -1.5,79.499998 31.6,18.4 -6.5,-38.999998 26.599999,-28.5 -36.099999,-1.7 -14.1,-28.7"
         style="fill:#fff918;fill-opacity:1;stroke:none;stroke-width:0.80787;stroke-linecap:round;stroke-linejoin:round"
         id="path7705" />
      <g
         id="g4171"
         style="fill:#ffd539;fill-opacity:1"
         transform="translate(-1.1871389,-1.1867681)">
        <path
           id="line260"
           style="fill:#ffd539;fill-opacity:1;stroke:none;stroke-width:0.80787;stroke-linecap:round;stroke-linejoin:round"
           d="m 89.387,120.087 17.5,21.3 -10,-55.9 -14,-4.4 z"
           inkscape:connector-curvature="0" />
        <path
           id="path7657"
           style="fill:#ffd539;fill-opacity:1;stroke:none;stroke-width:0.80787;stroke-linecap:round;stroke-linejoin:round"
           d="m 77.187,21.187 m -14.1,-16 -3.8,17 14.1,28.7 9.5,-7.3 z"
           inkscape:connector-curvature="0" />
        <path
           id="line274"
           style="fill:#ffd539;fill-opacity:1;stroke:none;stroke-width:0.80787;stroke-linecap:round;stroke-linejoin:round"
           d="m 43.587,48.187 -38.4,10.6 10.6,2.7 29,-7.5 z"
           inkscape:connector-curvature="0" />
        <path
           id="line244"
           style="fill:#ffd539;fill-opacity:1;stroke:none;stroke-width:0.80787;stroke-linecap:round;stroke-linejoin:round"
           d="m 109.487,52.587 -36.1,-1.7 9.5,-7.3 52.1,1.6 z"
           inkscape:connector-curvature="0" />
      </g>
    </g>
  </g>
</svg>
