<?xml version="1.0" encoding="UTF-8" standalone="no"?>
<svg
   xmlns:dc="http://purl.org/dc/elements/1.1/"
   xmlns:cc="http://creativecommons.org/ns#"
   xmlns:rdf="http://www.w3.org/1999/02/22-rdf-syntax-ns#"
   xmlns:svg="http://www.w3.org/2000/svg"
   xmlns="http://www.w3.org/2000/svg"
   xmlns:sodipodi="http://sodipodi.sourceforge.net/DTD/sodipodi-0.dtd"
   xmlns:inkscape="http://www.inkscape.org/namespaces/inkscape"
   width="20mm"
   height="20mm"
   viewBox="0 0 20 20"
   version="1.1"
   id="svg8"
   inkscape:version="1.0.2 (e86c870879, 2021-01-15)"
   sodipodi:docname="icon_options.svg">
  <defs
     id="defs2" />
  <sodipodi:namedview
     id="base"
     pagecolor="#51a1ff"
     bordercolor="#666666"
     borderopacity="1.0"
     inkscape:pageopacity="0"
     inkscape:pageshadow="2"
     inkscape:zoom="14.481547"
     inkscape:cx="32.314948"
     inkscape:cy="38.903387"
     inkscape:document-units="mm"
     inkscape:current-layer="layer1"
     showgrid="false"
     inkscape:window-width="1280"
     inkscape:window-height="776"
     inkscape:window-x="0"
     inkscape:window-y="0"
     inkscape:window-maximized="1"
     inkscape:document-rotation="0" />
  <metadata
     id="metadata5">
    <rdf:RDF>
      <cc:Work
         rdf:about="">
        <dc:format>image/svg+xml</dc:format>
        <dc:type
           rdf:resource="http://purl.org/dc/dcmitype/StillImage" />
        <dc:title></dc:title>
      </cc:Work>
    </rdf:RDF>
  </metadata>
  <g
     inkscape:label="Calque 1"
     inkscape:groupmode="layer"
     id="layer1"
     transform="translate(0,-277)">
    <path
       id="path2097"
       style="fill:#ffffff;stroke-width:0.816578"
       d="M 40.632812 12.953125 C 39.778832 15.049251 39.081526 17.069396 38.382812 19.087891 L 37.294922 19.087891 L 36.984375 19.087891 C 36.052757 19.165749 35.199686 19.243099 34.345703 19.398438 C 33.646991 19.476296 32.946759 19.708625 32.248047 19.941406 C 31.005892 18.155768 29.687467 16.37004 28.445312 14.662109 L 28.367188 14.583984 C 27.901379 14.739323 27.435049 14.894172 27.046875 15.126953 C 26.270529 15.43763 25.571759 15.827142 24.873047 16.292969 C 23.78616 16.836427 22.77732 17.534688 21.845703 18.388672 L 21.845703 18.466797 C 22.77732 20.40766 23.630883 22.3482 24.5625 24.289062 C 24.019055 24.832521 23.553699 25.298832 23.087891 25.919922 C 22.466815 26.540974 21.92284 27.317435 21.457031 28.09375 C 21.224141 28.404427 21.069333 28.713367 20.914062 29.101562 C 18.740291 28.713367 16.56635 28.326189 14.392578 28.015625 C 14.004404 28.947241 13.617179 29.877472 13.306641 30.886719 C 12.996103 32.439424 12.684566 33.915589 12.529297 35.390625 L 18.585938 37.71875 L 18.585938 38.806641 C 18.585938 39.660625 18.663586 40.591822 18.896484 41.523438 C 18.974123 42.29979 19.206549 43.077201 19.439453 43.853516 C 17.653854 45.095695 15.945755 46.336439 14.160156 47.65625 C 15.091773 49.98527 16.41215 52.159202 17.964844 54.177734 L 18.041016 54.177734 C 19.981883 53.246119 21.922903 52.392553 23.941406 51.460938 C 24.407215 51.926764 24.874035 52.315461 25.339844 52.78125 C 26.038556 53.40234 26.892602 53.944861 27.824219 54.488281 C 28.057109 54.64362 28.367196 54.798469 28.677734 55.03125 C 28.28956 57.127376 27.978506 59.302805 27.667969 61.476562 C 28.521948 61.864758 29.376977 62.175309 30.308594 62.408203 C 30.541484 62.486061 31.006857 62.639545 31.783203 62.794922 C 32.87009 63.105599 33.957547 63.260753 34.966797 63.416016 C 35.82078 61.31989 36.596209 59.301204 37.294922 57.205078 L 38.226562 57.205078 L 38.304688 57.205078 C 39.236303 57.205078 40.089375 57.127617 40.943359 56.972656 C 41.719705 56.817318 42.497089 56.584495 43.273438 56.351562 C 43.273438 56.351562 43.271978 56.429688 43.349609 56.429688 C 44.591766 58.215287 45.912144 60.001509 47.154297 61.787109 C 47.542469 61.55429 47.93165 61.397488 48.242188 61.242188 C 49.018533 60.93151 49.717302 60.544407 50.416016 60.15625 C 51.580533 59.457567 52.666534 58.682109 53.675781 57.828125 C 52.821805 55.809668 51.8906 53.868104 50.958984 51.849609 C 51.424792 51.383783 51.813489 50.916999 52.279297 50.451172 C 52.822744 49.752488 53.366223 48.976065 53.832031 48.277344 C 53.832031 48.199485 53.908203 48.122402 53.908203 48.044922 C 54.063466 47.812103 54.219718 47.502426 54.375 47.269531 C 56.548773 47.657727 58.722712 47.967273 60.896484 48.355469 C 61.284661 47.423853 61.593756 46.493622 61.904297 45.484375 C 61.981928 45.251556 62.06104 45.017595 62.138672 44.707031 C 62.216303 44.474212 62.215831 44.242167 62.371094 43.931641 C 62.526357 42.922356 62.758302 41.912084 62.835938 40.980469 C 60.817435 40.126484 58.721631 39.428697 56.703125 38.652344 L 56.703125 37.720703 C 56.703125 36.789087 56.625473 35.779272 56.392578 34.847656 C 56.314947 34.148935 56.083016 33.450712 55.927734 32.751953 C 57.713334 31.509811 59.499063 30.188952 61.207031 28.869141 L 61.283203 28.869141 C 60.351587 26.540082 59.110308 24.366151 57.402344 22.347656 C 55.383842 23.201641 53.44282 24.134791 51.501953 25.066406 C 50.95851 24.522986 50.414537 23.979499 49.871094 23.513672 C 49.172384 22.970251 48.473611 22.425267 47.697266 22.037109 C 47.464371 21.80429 47.154777 21.649404 46.921875 21.494141 C 47.232401 19.320383 47.6211 17.146452 47.931641 14.972656 C 47.000025 14.584461 45.989716 14.197245 44.980469 13.886719 C 44.747574 13.80886 44.437984 13.730469 44.205078 13.730469 C 43.894552 13.57513 43.660636 13.498047 43.427734 13.498047 C 42.496115 13.265228 41.564428 13.108388 40.632812 12.953125 z M 37.574219 29.693359 C 38.388084 29.671341 39.214232 29.778467 40.041016 30.023438 C 42.245773 30.595053 43.960311 31.901923 45.103516 33.943359 C 46.24674 35.903158 46.573558 38.027672 46.001953 40.232422 L 46.001953 40.3125 C 45.348692 42.517287 44.123475 44.150093 42.082031 45.375 C 40.040591 46.518118 37.917645 46.764937 35.712891 46.193359 C 33.508134 45.540068 31.793597 44.314874 30.650391 42.273438 L 30.568359 42.273438 C 29.42515 40.313639 29.180723 38.189125 29.833984 35.984375 C 30.405589 33.69795 31.630432 31.985028 33.671875 30.841797 C 34.89674 30.127348 36.217777 29.730057 37.574219 29.693359 z "
       transform="matrix(0.26458333,0,0,0.26458333,0,277)" />
  </g>
</svg>
