<?xml version="1.0" encoding="UTF-8" standalone="no"?>
<svg
   xmlns:dc="http://purl.org/dc/elements/1.1/"
   xmlns:cc="http://creativecommons.org/ns#"
   xmlns:rdf="http://www.w3.org/1999/02/22-rdf-syntax-ns#"
   xmlns:svg="http://www.w3.org/2000/svg"
   xmlns="http://www.w3.org/2000/svg"
   xmlns:sodipodi="http://sodipodi.sourceforge.net/DTD/sodipodi-0.dtd"
   xmlns:inkscape="http://www.inkscape.org/namespaces/inkscape"
   width="20mm"
   height="20mm"
   viewBox="0 0 20 20"
   version="1.1"
   id="svg8"
   inkscape:version="1.0.2 (e86c870879, 2021-01-15)"
   sodipodi:docname="icon_option_lang.svg">
  <defs
     id="defs2" />
  <sodipodi:namedview
     id="base"
     pagecolor="#346eff"
     bordercolor="#666666"
     borderopacity="1.0"
     inkscape:pageopacity="0"
     inkscape:pageshadow="2"
     inkscape:zoom="2.8"
     inkscape:cx="68.613148"
     inkscape:cy="51.157151"
     inkscape:document-units="mm"
     inkscape:current-layer="layer1"
     showgrid="false"
     inkscape:window-width="1280"
     inkscape:window-height="776"
     inkscape:window-x="0"
     inkscape:window-y="0"
     inkscape:window-maximized="1"
     inkscape:document-rotation="0" />
  <metadata
     id="metadata5">
    <rdf:RDF>
      <cc:Work
         rdf:about="">
        <dc:format>image/svg+xml</dc:format>
        <dc:type
           rdf:resource="http://purl.org/dc/dcmitype/StillImage" />
        <dc:title></dc:title>
      </cc:Work>
    </rdf:RDF>
  </metadata>
  <g
     inkscape:label="Calque 1"
     inkscape:groupmode="layer"
     id="layer1"
     transform="translate(0,-277)">
    <g
       id="g1153"
       transform="matrix(0.02285086,0,0,0.02285086,-2.9398565,261.74478)">
      <g
         style="fill:#ffffff;fill-opacity:0.551341;stroke-linejoin:miter"
         id="g9">
        <path
           d="M 854.70355,1102.1669 C 852.6044,1258.3765 724.27075,1383.3068 568.0624,1381.2101 411.8531,1379.1124 286.92224,1250.7806 289.01996,1094.5715 291.11755,938.36237 419.44965,813.42883 575.65924,815.5272 731.8693,817.62463 856.802,945.95807 854.70355,1102.1669 Z"
           id="path7"
           style="fill:#ffffff;fill-opacity:0.551341" />
      </g>
      <g
         style="fill:#ffffff;fill-opacity:1;stroke-linejoin:miter"
         id="g13">
        <path
           d="m 721.86884,975.8421 c 0,0 -61.15668,11.791 -82.83574,-0.2141 0,0 -14.3186,-19.09864 -55.51253,-3.4363 0,0 -72.48377,42.2446 -74.00519,85.4666 0,0 -21.16818,85.2942 54.24255,98.0064 0,0 79.55494,-25.0459 89.15677,5.7046 0,0 2.2309,37.8667 9.41404,46.0656 0,0 11.58959,17.5564 10.54431,28.0557 0,0 -8.68295,35.0049 1.9046,62.1892 0,0 6.95055,23.5081 5.9491,30.7018 0,0 69.48242,-18.8951 92.19049,-83.4359 0,0 13.35926,-44.8547 14.42026,-56.5562 0,0 18.9016,-51.9878 23.6788,-68.1308 0,0 17.04455,-48.4192 -10.3675,-42.4683 0,0 -18.88836,-18.28 -32.3477,-31.9778 -13.48805,-13.6904 -39.19435,-65.37406 -46.43226,-69.9705 z"
           id="path11"
           style="fill:#ffffff" />
      </g>
      <g
         style="fill:#ffffff;fill-opacity:1;stroke-linejoin:miter"
         id="g17">
        <path
           d="M 781.96344,1044.2106 706.4266,972.9278 c 0,0 16.58494,-14.18287 11.2379,-22.34986 -5.3459,-8.19274 -17.3318,2.45776 -27.35426,2.32346 -9.99737,-0.13474 -23.76459,7.78494 -29.13104,0.4961 -5.36633,-7.27903 -9.027,-5.52635 -14.5607,-1.0842 -5.5229,4.42724 -15.63315,11.50536 -16.4873,6.97704 -0.84385,-4.51294 -17.2601,-2.9226 -18.1036,-7.44114 -0.8435,-4.5193 2.93584,-17.0741 -5.287,-14.485 -8.1986,2.5803 -20.1772,11.45227 -22.0555,15.91955 -1.8773,4.48195 -8.4189,17.896 -14.8131,17.80935 -6.376,-0.0852 -22.8074,3.2976 -25.4671,-2.14406 -2.6603,-5.43994 -7.88085,-23.53784 -2.33666,-28.85044 5.52696,-5.3399 32.17556,0.738 31.02076,-5.886 -1.13856,-6.6145 -4.09693,-21.1519 -0.0529,-23.16115 4.06177,-1.99341 15.27771,-25.27289 22.61307,-27.8742 7.301,-2.60155 26.2985,7.56079 29.12283,1.28905 0,0 1.15777,-18.8995 -2.44933,-21.65417 -3.61,-2.75513 -6.2494,-10.87646 -12.5878,-10.09106 -6.4217,0.81833 -9.2307,7.09863 -4.7076,9.85863 4.53856,2.76027 8.0142,13.61757 5.28154,13.5812 -2.75754,-0.0374 -27.34241,1.43505 -28.17054,-4.87086 -0.83746,-6.32044 3.0145,-21.58948 11.2636,-26.8761 8.30226,-5.28444 25.5679,-4.16404 30.9951,-1.38501 5.4448,2.77222 11.8756,-2.54663 13.7717,-7.02148 1.8617,-4.4668 -25.6263,-19.9187 -33.82904,-20.02759 0,0 215.55004,19.00049 249.6217,240.09324 0,0 -21.96086,-76.0435 -37.37921,-80.7515 0,0 -8.26805,5.2944 -13.7196,4.3174 -5.45068,-0.97805 -32.52905,-18.46365 -34.4093,-13.97244 -1.89565,4.47534 12.47035,19.97854 27.9563,21.97874 15.41795,2.01834 16.32531,3.83206 17.10449,11.95333 0.81326,8.10667 3.37402,20.76297 1.46376,28.83017 -1.9508,8.0784 -13.1968,32.2542 -33.01436,15.7818 z"
           id="path15"
           style="fill:#ffffff" />
      </g>
      <g
         style="fill:#ffffff;fill-opacity:1;stroke-linejoin:miter"
         id="g21">
        <path
           d="m 558.3224,880.87695 c 0,0 -7.325,4.40235 -11.06434,10.64405 -3.73766,6.259 -3.81031,11.66406 -3.81031,11.66406 0,0 4.59085,2.75124 9.24842,2.83008 4.67703,0.0784 17.18723,-4.26174 17.27183,-10.57054 0.0846,-6.3079 -11.6456,-14.56765 -11.6456,-14.56765 z"
           id="path19"
           style="fill:#ffffff" />
      </g>
      <g
         style="fill:#ffffff;fill-opacity:1;stroke-linejoin:miter"
         id="g25">
        <path
           d="m 548.1285,826.68665 c 0,0 -22.20516,25.8247 -33.1584,28.38355 -10.9722,2.5576 -29.29212,11.30614 -33.88416,14.8644 -4.60706,3.5412 -19.99842,-2.9689 -10.80237,-10.05215 9.21515,-7.09839 33.99277,-22.98315 28.56937,-24.84155 -5.43918,-1.8657 -30.25339,14.9216 -40.35617,21.9839 -10.12812,7.0708 -18.45947,17.74424 -23.08173,24.8956 -4.67157,7.145 -4.00354,26.0698 -14.05777,29.5383 -10.09583,3.467 -54.02771,20.8866 -68.74477,33.31004 -14.74135,12.406 -30.5546,21.49902 -37.11833,34.02296 -6.52947,12.5249 3.49359,-20.085 9.28851,-32.08766 0,0 39.64386,-68.43534 128.53586,-110.49078 -0.0158,0.011 67.5766,-16.18579 94.80996,-9.52661 z"
           id="path23"
           style="fill:#ffffff" />
      </g>
      <g
         style="fill:#ffffff;fill-opacity:1;stroke-linejoin:miter"
         id="g29">
        <path
           d="m 288.96448,1140.2734 c 0,0 -8.46468,-48.7619 1.60187,-53.1257 10.06439,-4.365 13.10545,-5.2795 21.82147,3.8972 8.66726,9.1682 20.58856,24.596 25.0224,32.7664 4.48413,8.156 20.73364,18.2798 20.64868,24.5805 -0.0845,6.3077 -3.9425,21.5767 -0.3868,28.8222 3.52126,7.2551 8.97506,8.2322 17.13802,11.945 8.14716,3.7049 23.55118,9.3096 32.52578,17.5511 8.99177,8.2309 21.62952,18.2995 18.7442,29.0701 -2.88415,10.7722 -8.55794,26.9017 -6.82302,33.2192 1.73222,6.3323 7.9653,17.2209 0.63129,21.6374 -7.35877,4.4031 -12.80359,3.4419 -11.9961,11.5389 0.81299,8.1228 9.59967,33.4406 12.26239,37.9777 -0.004,0 -112.86822,-49.8367 -131.19018,-199.88 z"
           id="path27"
           style="fill:#ffffff" />
      </g>
      <g
         style="fill:#c2c2c2;fill-opacity:1;stroke-linejoin:miter"
         id="g33">
        <path
           d="m 846.18317,1121.1102 v 0 -3e-4 -10e-4 0 0 10e-4 q 0,-10e-4 0,-10e-4 z"
           id="path31" />
      </g>
    </g>
  </g>
</svg>
