<?xml version="1.0" encoding="UTF-8" standalone="no"?>
<svg
   xmlns:dc="http://purl.org/dc/elements/1.1/"
   xmlns:cc="http://creativecommons.org/ns#"
   xmlns:rdf="http://www.w3.org/1999/02/22-rdf-syntax-ns#"
   xmlns:svg="http://www.w3.org/2000/svg"
   xmlns="http://www.w3.org/2000/svg"
   xmlns:sodipodi="http://sodipodi.sourceforge.net/DTD/sodipodi-0.dtd"
   xmlns:inkscape="http://www.inkscape.org/namespaces/inkscape"
   width="20mm"
   height="20mm"
   viewBox="0 0 20 20"
   version="1.1"
   id="svg8"
   inkscape:version="1.0.2 (e86c870879, 2021-01-15)"
   sodipodi:docname="icon_option_theme.svg">
  <defs
     id="defs2">
    <linearGradient
       id="f"
       x1="600.75597"
       x2="736.77761"
       y1="121.89042"
       y2="121.89042"
       gradientTransform="scale(0.80263412,1.2458977)"
       gradientUnits="userSpaceOnUse">
      <stop
         stop-color="#00398f"
         offset="0"
         id="stop31" />
      <stop
         stop-color="#fff"
         offset="1"
         id="stop33" />
    </linearGradient>
    <linearGradient
       id="e"
       x1="106.80412"
       x2="92.103147"
       y1="989.10565"
       y2="989.10565"
       gradientTransform="scale(1.5944858,0.62716144)"
       gradientUnits="userSpaceOnUse">
      <stop
         stop-color="#ffce63"
         offset="0"
         id="stop2" />
      <stop
         stop-color="#ffce63"
         stop-opacity="0"
         offset="1"
         id="stop4" />
    </linearGradient>
    <linearGradient
       id="d"
       x1="14.804154"
       x2="46.521276"
       y1="1788.3381"
       y2="1788.3381"
       gradientTransform="matrix(0.05782397,0,0,0.01564712,2.4068955,280.70236)"
       gradientUnits="userSpaceOnUse">
      <stop
         offset="0"
         id="stop12" />
      <stop
         stop-opacity="0"
         offset="1"
         id="stop14" />
    </linearGradient>
    <linearGradient
       id="c"
       x1="306.80504"
       x2="144.86585"
       y1="390.80563"
       y2="390.80563"
       gradientTransform="matrix(0.03280563,0,0,0.02757999,2.4068955,280.70236)"
       gradientUnits="userSpaceOnUse">
      <stop
         offset="0"
         id="stop26" />
      <stop
         stop-opacity="0"
         offset="1"
         id="stop28" />
    </linearGradient>
    <linearGradient
       id="b"
       x1="191.96005"
       x2="305.15203"
       y1="340.51851"
       y2="340.51851"
       gradientTransform="matrix(0.0317281,0,0,0.02851663,13.241947,280.19319)"
       gradientUnits="userSpaceOnUse">
      <stop
         stop-color="#fffdff"
         offset="0"
         id="stop17" />
      <stop
         stop-opacity=".498"
         offset=".5"
         id="stop19" />
      <stop
         stop-opacity=".247"
         offset=".5"
         id="stop21" />
      <stop
         stop-opacity="0"
         offset="1"
         id="stop23" />
    </linearGradient>
    <linearGradient
       id="a"
       x1="244.54309"
       x2="380.90311"
       y1="196.60669"
       y2="196.60669"
       gradientTransform="matrix(0.02644867,0,0,0.03420885,28.648468,284.67535)"
       gradientUnits="userSpaceOnUse">
      <stop
         stop-color="#fff"
         offset="0"
         id="stop7" />
      <stop
         stop-color="#fff"
         stop-opacity="0"
         offset="1"
         id="stop9" />
    </linearGradient>
  </defs>
  <sodipodi:namedview
     id="base"
     pagecolor="#346eff"
     bordercolor="#666666"
     borderopacity="1.0"
     inkscape:pageopacity="0"
     inkscape:pageshadow="2"
     inkscape:zoom="1.979899"
     inkscape:cx="65.341404"
     inkscape:cy="-20.81758"
     inkscape:document-units="mm"
     inkscape:current-layer="layer1"
     showgrid="false"
     inkscape:window-width="1280"
     inkscape:window-height="948"
     inkscape:window-x="1280"
     inkscape:window-y="27"
     inkscape:window-maximized="1"
     inkscape:document-rotation="0" />
  <metadata
     id="metadata5">
    <rdf:RDF>
      <cc:Work
         rdf:about="">
        <dc:format>image/svg+xml</dc:format>
        <dc:type
           rdf:resource="http://purl.org/dc/dcmitype/StillImage" />
        <dc:title />
      </cc:Work>
    </rdf:RDF>
  </metadata>
  <g
     inkscape:label="Calque 1"
     inkscape:groupmode="layer"
     id="layer1"
     transform="translate(0,-277)">
    <g
       stroke="#000000"
       id="g44"
       transform="matrix(0.03007954,0,0,0.03007954,2.7506245,279.18178)"
       style="stroke:none">
      <path
         id="path38"
         style="fill:#ffffff;stroke:none;stroke-width:0.113686"
         d="m 55.390625,8.6738281 c -1.299567,0.04124 -2.708984,1.5507809 -2.708984,1.5507809 0,0 -4.352828,7.23751 -4.601563,13.873047 -0.248746,6.635651 -2.26213,8.825667 -5.101562,9.492188 -2.655943,0.353906 -2.703674,1.538209 -4.101563,2.814453 0,0 14.88333,1.327225 15.753906,1.085937 0.623855,-0.79967 0.371172,-2.498359 -0.667968,-2.814453 C 52.553737,34.160327 50.920878,31.734808 52.183594,29.767578 54.173448,26.389954 58.278141,15.29007 57.283203,10.826172 56.910084,9.1522059 56.170365,8.6490861 55.390625,8.6738281 Z m -1.235198,3.1935599 c 0.0091,-8.3e-5 0.02734,0 0.02734,0 0.896949,-4.98e-4 1.624037,0.783462 1.623047,1.75 -10e-4,0.965012 -0.727515,1.74659 -1.623047,1.746093 -0.89477,-6.65e-4 -1.62008,-0.781903 -1.621093,-1.746093 -0.0011,-0.954332 0.708265,-1.733257 1.59375,-1.75 z"
         transform="matrix(8.796123,0,0,8.796123,-91.445032,-72.533689)"
         sodipodi:nodetypes="scsccccccsccccccc" />
      <path
         d="m 382.84392,302.78767 -9.92101,51.59308 c -7.3493,15.25474 -66.24991,24.44372 -109.80465,20.72481 -25.12349,-2.14517 -39.75916,-9.04837 -50.98315,-17.78091 -14.84679,-2.13964 -4.6923,-25.416 -4.6923,-25.416 l 18.92198,-45.6213 c 52.20305,9.96666 104.98522,3.14003 156.47913,16.50032 z"
         fill="url(#e)"
         id="path40"
         style="fill:#ffffff;stroke:none"
         sodipodi:nodetypes="ccscccc" />
      <path
         d="m 211.15491,344.17875 c -27.349,0 -47.925,81.001 -161.7,76.756 -31.725,12.735 -19.9,15.571 -19.9,15.571 -51.204269,54.06677 210.0533,77.73803 292.26,4.2449 14.018,-7.9159 49.32545,-65.17657 51.108,-86.3699 l -32.678,12.0839 -24.067,-9.551 -68.92,9.551 c -4.3758,-12.735 -2.1879,-3.1836 -4.3758,-20.163 -24.067,-1.0612 -31.725,-2.1224 -31.725,-2.1224 z"
         fill="#df0000"
         id="path42"
         style="fill:#ffffff;fill-opacity:0.552941;stroke:none"
         sodipodi:nodetypes="ccccccccccc" />
    </g>
    <g
       stroke="#000000"
       id="g66"
       transform="matrix(0.03007954,0,0,0.03007954,2.7506245,279.18178)"
       style="fill:#ffffff;fill-opacity:0.552941;stroke:none">
      <path
         d="m 207.44281,331.90865 c 0,0 35.44519,-91.53865 53.51119,-92.67865 18.066,-1.1365 130.71,11.366 130.71,11.366 0,0 -0.5856,10.624 -3.1882,26.141 -5.3136,13.639 -13.39119,69.85465 -17.64119,69.85465 -4.2508,0 -163.4,-14.682 -163.4,-14.682 z"
         fill="#959595"
         stroke-width="1.02"
         id="path62"
         style="fill:#ffffff;fill-opacity:0.552941;stroke:none"
         sodipodi:nodetypes="ccccscc" />
    </g>
  </g>
</svg>
