<?xml version="1.0" encoding="UTF-8" standalone="no"?>
<svg
   xmlns:dc="http://purl.org/dc/elements/1.1/"
   xmlns:cc="http://creativecommons.org/ns#"
   xmlns:rdf="http://www.w3.org/1999/02/22-rdf-syntax-ns#"
   xmlns:svg="http://www.w3.org/2000/svg"
   xmlns="http://www.w3.org/2000/svg"
   xmlns:sodipodi="http://sodipodi.sourceforge.net/DTD/sodipodi-0.dtd"
   xmlns:inkscape="http://www.inkscape.org/namespaces/inkscape"
   width="20mm"
   height="20mm"
   viewBox="0 0 20 20"
   version="1.1"
   id="svg8"
   inkscape:version="1.0.2 (e86c870879, 2021-01-15)"
   sodipodi:docname="icon_option_osk.svg">
  <defs
     id="defs2">
    <clipPath
       id="clipPath40">
      <path
         id="path42"
         d="M 0,612 H 792 V 0 H 0 Z" />
    </clipPath>
  </defs>
  <sodipodi:namedview
     id="base"
     pagecolor="#51a1ff"
     bordercolor="#666666"
     borderopacity="1.0"
     inkscape:pageopacity="0"
     inkscape:pageshadow="2"
     inkscape:zoom="3.3022717"
     inkscape:cx="1.3070678"
     inkscape:cy="63.133434"
     inkscape:document-units="mm"
     inkscape:current-layer="g52"
     showgrid="false"
     inkscape:window-width="1280"
     inkscape:window-height="724"
     inkscape:window-x="0"
     inkscape:window-y="27"
     inkscape:window-maximized="1"
     inkscape:document-rotation="0"
     inkscape:snap-global="false"
     showguides="true"
     inkscape:guide-bbox="true">
    <sodipodi:guide
       position="8.8379111,18.474393"
       orientation="0,-1"
       id="guide3968" />
    <sodipodi:guide
       position="1.1370347,12.476547"
       orientation="1,0"
       id="guide4014" />
    <sodipodi:guide
       position="14.374048,12.49319"
       orientation="1,0"
       id="guide4016" />
  </sodipodi:namedview>
  <metadata
     id="metadata5">
    <rdf:RDF>
      <cc:Work
         rdf:about="">
        <dc:format>image/svg+xml</dc:format>
        <dc:type
           rdf:resource="http://purl.org/dc/dcmitype/StillImage" />
        <dc:title />
      </cc:Work>
    </rdf:RDF>
  </metadata>
  <g
     inkscape:label="Calque 1"
     inkscape:groupmode="layer"
     id="layer1"
     transform="translate(0,-277)">
    <g
       id="layer1-8"
       transform="matrix(0.1540582,0,0,0.1540582,-97.471399,207.76729)">
      <g
         id="g36"
         transform="matrix(1.25,0,0,-1.25,330.65,1049.6)">
        <g
           id="g38"
           clip-path="url(#clipPath40)">
          <rect
             style="fill:#ffffff;fill-opacity:1;stroke:none;stroke-width:2.29268;stroke-linecap:round;stroke-linejoin:round"
             id="rect3946"
             width="28.669909"
             height="20.204674"
             x="269.44281"
             y="-466.66098"
             transform="scale(1,-1)"
             ry="3.5149012" />
          <rect
             style="fill:#ffffff;fill-opacity:1;stroke:none;stroke-width:2.29268;stroke-linecap:round;stroke-linejoin:round"
             id="rect3946-7"
             width="28.669909"
             height="20.204674"
             x="309.51068"
             y="-466.74741"
             transform="scale(1,-1)"
             ry="3.5149012" />
          <rect
             style="fill:#ffffff;fill-opacity:1;stroke:none;stroke-width:2.29268;stroke-linecap:round;stroke-linejoin:round"
             id="rect3946-76"
             width="28.669909"
             height="20.204674"
             x="269.52118"
             y="-435.60153"
             transform="scale(1,-1)"
             ry="3.5149012" />
          <rect
             style="fill:#ffffff;fill-opacity:1;stroke:none;stroke-width:2.29268;stroke-linecap:round;stroke-linejoin:round"
             id="rect3946-7-4"
             width="28.669909"
             height="20.204674"
             x="309.58905"
             y="-435.68796"
             transform="scale(1,-1)"
             ry="3.5149012" />
          <rect
             style="fill:#ffffff;fill-opacity:1;stroke:none;stroke-width:3.55;stroke-linecap:round;stroke-linejoin:round"
             id="rect3946-76-3"
             width="68.737732"
             height="20.204674"
             x="269.52118"
             y="-405.25467"
             transform="scale(1,-1)"
             ry="3.5149012" />
          <g
             id="g3944"
             transform="matrix(0.54891181,-0.2699715,0.2699715,0.54891181,12.85975,277.12487)">
            <g
               id="g44"
               transform="translate(272,330.75)">
              <path
                 id="path46"
                 style="fill:#ffffff"
                 d="m 0,0 -18.75,37.25 -2.75,17.5 0.25,18.5 0.75,8.75 -0.5,8 2.75,1 6.25,-6 0.75,30.75 2.25,13.25 4,1.5 3,-1.5 1.5,-4.75 L 0.25,99 c 0,0 8,4 11.5,-6.5 0,0 8.25,3 11.5,-10 0,0 6.5,1 10.5,-8.75 L 37,63 34.75,32 l -3,-9 0.5,-8.25 L 31.5,9 C 31.5,9 15.25,-6.25 0,0" />
            </g>
            <g
               id="g52"
               transform="translate(306.67,376.31)">
              <path
                 id="path54"
                 style="fill:#70706f;fill-opacity:1;stroke-width:1.00170949;stroke-miterlimit:4;stroke-dasharray:none;stroke:#6f6f6e;stroke-opacity:1"
                 d="M 0,0 C -0.075,-0.942 -0.136,-1.7 -0.169,-2.209 -0.371,-5.336 -0.984,-14.851 -2.924,-19.336 -5.092,-24.351 -3.696,-30.74 -3.635,-31.01 l 0.05,-0.173 c 0.389,-1.098 0.252,-2.366 -0.399,-3.667 -1.011,-2.022 -4.207,-5.883 -14.26,-9.025 -12.061,-3.768 -15.611,-0.182 -15.853,0.083 -1.07,1.789 -21.037,35.412 -20.408,51.131 0.085,6.061 0.354,22.197 0.573,24.055 0.181,1.538 -0.068,3.638 -0.332,5.861 -0.252,2.124 -0.72,6.077 -0.165,6.716 0,0 0.101,0.017 0.345,-0.053 l 0.288,-0.052 c 0.157,-0.016 3.773,-0.474 5.518,-6.674 -0.049,-3.081 -0.095,-6.336 -0.138,-9.779 -0.036,-2.882 -0.062,-5.009 -0.088,-6.013 -0.154,-5.854 -2.135,-9.625 -2.155,-9.662 l 1.321,-0.711 1.318,-0.714 c 0.096,0.176 2.341,4.391 2.515,11.008 0.026,1.011 0.053,3.153 0.089,6.055 0.043,3.505 0.092,6.832 0.145,10.001 l 0.054,0.014 c -0.015,0.063 -0.035,0.117 -0.052,0.179 0.454,27.12 1.24,41.845 2.336,43.779 0.918,1.345 2.407,2.042 3.71,1.734 1.13,-0.269 1.863,-1.247 2.064,-2.754 0.206,-1.544 0.464,-6.904 0.763,-13.109 0.876,-18.208 1.718,-33.578 3.162,-37.243 l 2.791,1.1 c -0.912,2.317 -1.653,12.083 -2.221,21.978 1.554,0.315 2.914,0.104 4.141,-0.639 2.749,-1.665 4.453,-5.878 5.13,-9.266 0.688,-3.439 1.469,-12.615 1.476,-12.708 l 2.99,0.253 c -0.032,0.384 -0.803,9.438 -1.524,13.043 -0.088,0.44 -0.244,1.125 -0.477,1.94 5.81,0.123 7.262,-5.721 7.415,-6.428 0.64,-2.943 4.879,-14.461 5.058,-14.95 l 2.816,1.037 c -0.912,2.474 -2.361,6.496 -3.466,9.767 3.453,-0.5 5.308,-4.056 7.279,-8.567 0.546,-1.248 1.061,-2.426 1.615,-3.359 C 1.611,20.109 0.398,4.974 0,0 m 2.368,24.709 c -0.459,0.773 -0.938,1.869 -1.445,3.029 -1.863,4.266 -4.615,10.563 -11.028,10.436 -0.223,0.725 -0.391,1.32 -0.476,1.714 -0.794,3.653 -4.09,9.471 -11.385,8.716 -1.013,2.362 -2.592,4.918 -5.003,6.378 -1.762,1.068 -3.731,1.421 -5.863,1.08 -0.218,4.039 -0.408,7.975 -0.568,11.302 -0.314,6.532 -0.562,11.692 -0.785,13.361 -0.366,2.746 -1.991,4.718 -4.345,5.276 -2.5,0.595 -5.268,-0.597 -6.881,-2.962 -1.428,-2.094 -2.251,-13.479 -2.754,-39.42 -2.145,2.597 -4.529,3.122 -5.219,3.217 -1.443,0.373 -2.377,-0.084 -2.914,-0.541 -1.869,-1.592 -1.441,-5.207 -0.945,-9.393 0.232,-1.952 0.471,-3.971 0.331,-5.158 -0.281,-2.39 -0.581,-23.467 -0.592,-24.324 -0.677,-16.921 20.001,-51.377 20.881,-52.835 l 0.057,-0.087 c 0.299,-0.425 2.429,-3.099 8.694,-3.099 2.687,0 6.134,0.492 10.522,1.863 10.558,3.299 14.555,7.556 16.05,10.547 0.99,1.982 1.194,4.076 0.577,5.91 -0.138,0.68 -1.113,5.901 0.553,9.755 1.923,4.448 2.63,12.473 2.995,18.123 0.032,0.499 0.092,1.241 0.166,2.164 0.876,10.937 1.406,21.531 -0.623,24.948" />
            </g>
          </g>
        </g>
      </g>
    </g>
  </g>
</svg>
