<?xml version="1.0" encoding="UTF-8" standalone="no"?>
<svg
   xmlns:dc="http://purl.org/dc/elements/1.1/"
   xmlns:cc="http://creativecommons.org/ns#"
   xmlns:rdf="http://www.w3.org/1999/02/22-rdf-syntax-ns#"
   xmlns:svg="http://www.w3.org/2000/svg"
   xmlns="http://www.w3.org/2000/svg"
   xmlns:sodipodi="http://sodipodi.sourceforge.net/DTD/sodipodi-0.dtd"
   xmlns:inkscape="http://www.inkscape.org/namespaces/inkscape"
   width="20mm"
   height="20mm"
   viewBox="0 0 20 20"
   version="1.1"
   id="svg8"
   inkscape:version="1.0.2 (e86c870879, 2021-01-15)"
   sodipodi:docname="icon_helpinfo.svg">
  <defs
     id="defs2" />
  <sodipodi:namedview
     id="base"
     pagecolor="#ffffff"
     bordercolor="#666666"
     borderopacity="1.0"
     inkscape:pageopacity="0.0"
     inkscape:pageshadow="2"
     inkscape:zoom="3.4187266"
     inkscape:cx="54.468993"
     inkscape:cy="51.348133"
     inkscape:document-units="mm"
     inkscape:current-layer="layer1"
     showgrid="false"
     inkscape:window-width="1280"
     inkscape:window-height="1000"
     inkscape:window-x="1280"
     inkscape:window-y="0"
     inkscape:window-maximized="1"
     inkscape:document-rotation="0"
     showguides="true"
     inkscape:guide-bbox="true" />
  <metadata
     id="metadata5">
    <rdf:RDF>
      <cc:Work
         rdf:about="">
        <dc:format>image/svg+xml</dc:format>
        <dc:type
           rdf:resource="http://purl.org/dc/dcmitype/StillImage" />
        <dc:title />
      </cc:Work>
    </rdf:RDF>
  </metadata>
  <g
     inkscape:label="Calque 1"
     inkscape:groupmode="layer"
     id="layer1"
     transform="translate(0,-277)">
    <g
       aria-label="?"
       id="text837"
       style="font-style:normal;font-variant:normal;font-weight:normal;font-stretch:normal;font-size:22.574px;line-height:1.25;font-family:Yrsa;-inkscape-font-specification:'Yrsa, Normal';font-variant-ligatures:normal;font-variant-caps:normal;font-variant-numeric:normal;font-variant-east-asian:normal;fill:#ffffff;fill-opacity:1;stroke:#ffffff;stroke-width:0.213214;stroke-miterlimit:4;stroke-dasharray:none;stroke-opacity:1">
      <path
         d="M 9.956309,290.01923 H 8.985627 c -0.1053453,-0.28594 -0.203166,-0.61703 -0.293462,-0.99326 -0.090296,-0.37623 -0.135444,-0.70732 -0.135444,-0.99325 0,-0.46653 0.1279193,-0.84277 0.383758,-1.1287 0.2558387,-0.28594 0.6019733,-0.63208 1.038404,-1.03841 0.692269,-0.63207 1.196422,-1.17385 1.512458,-1.62533 0.316036,-0.45148 0.474054,-0.97821 0.474054,-1.58018 0,-0.61702 -0.165543,-1.1287 -0.496628,-1.53503 -0.331085,-0.40633 -0.812664,-0.6095 -1.444736,-0.6095 -0.3461347,0 -0.6696953,0.0602 -0.970682,0.1806 -0.2859373,0.12039 -0.5041527,0.25584 -0.654646,0.40633 -0.1203947,0.12039 -0.4854044,0.69019 -0.5305524,0.82564 -0.126326,0.67625 -0.8120928,1.14844 -1.4048215,0.86902 -0.742017,-0.34979 -0.6655975,-1.14611 -0.3575219,-1.4782 0.3762333,-0.31603 1.1491465,-1.23982 1.7511198,-1.48061 0.6019733,-0.24079 1.2566193,-0.36118 1.963938,-0.36118 0.617023,0 1.181373,0.0978 1.69305,0.29346 0.511677,0.19564 0.940583,0.46653 1.286718,0.81267 0.361184,0.33108 0.632072,0.71484 0.812664,1.15127 0.195641,0.43643 0.293462,0.88791 0.293462,1.35444 0,0.82771 -0.263363,1.52751 -0.79009,2.09938 -0.511677,0.57187 -1.106126,1.12117 -1.783346,1.6479 -0.466529,0.37623 -0.775041,0.66217 -0.925534,0.85782 -0.150493,0.19564 -0.248314,0.51167 -0.293462,0.9481 z m 0.744942,3.9478 c 0,0.31604 -0.105345,0.5794 -0.316036,0.79009 -0.210691,0.2107 -0.4891033,0.31604 -0.835238,0.31604 -0.3310853,0 -0.6019733,-0.10534 -0.812664,-0.31604 -0.1956413,-0.21069 -0.293462,-0.47405 -0.293462,-0.79009 0,-0.33108 0.097821,-0.59445 0.293462,-0.79009 0.2106907,-0.21069 0.4815787,-0.31604 0.812664,-0.31604 0.3461347,0 0.624547,0.10535 0.835238,0.31604 0.210691,0.19564 0.316036,0.45901 0.316036,0.79009 z"
         style="font-style:normal;font-variant:normal;font-weight:normal;font-stretch:normal;font-size:22.574px;font-family:Yrsa;-inkscape-font-specification:'Yrsa, Normal';font-variant-ligatures:normal;font-variant-caps:normal;font-variant-numeric:normal;font-variant-east-asian:normal;fill:#ffffff;stroke:#ffffff;stroke-width:0.713;stroke-miterlimit:4;stroke-dasharray:none;stroke-opacity:1"
         id="path841"
         sodipodi:nodetypes="ccssccsssscscsccssccscccccssscssscs" />
    </g>
  </g>
</svg>
