<?xml version="1.0" encoding="UTF-8" standalone="no"?>
<!--part of the matt icon theme by sixsixfive released under CC0 (https://creativecommons.org/publicdomain/zero/1.0/) on openclipart-->

<svg
   xmlns:dc="http://purl.org/dc/elements/1.1/"
   xmlns:cc="http://creativecommons.org/ns#"
   xmlns:rdf="http://www.w3.org/1999/02/22-rdf-syntax-ns#"
   xmlns:svg="http://www.w3.org/2000/svg"
   xmlns="http://www.w3.org/2000/svg"
   xmlns:xlink="http://www.w3.org/1999/xlink"
   xmlns:sodipodi="http://sodipodi.sourceforge.net/DTD/sodipodi-0.dtd"
   xmlns:inkscape="http://www.inkscape.org/namespaces/inkscape"
   viewBox="0 0 108.59895 108.62252"
   version="1.1"
   id="svg853"
   sodipodi:docname="earth2.svg"
   inkscape:version="0.92.3 (2405546, 2018-03-11)"
   width="108.59895"
   height="108.62252">
  <metadata
     id="metadata857">
    <rdf:RDF>
      <cc:Work
         rdf:about="">
        <dc:format>image/svg+xml</dc:format>
        <dc:type
           rdf:resource="http://purl.org/dc/dcmitype/StillImage" />
        <dc:title></dc:title>
      </cc:Work>
    </rdf:RDF>
  </metadata>
  <sodipodi:namedview
     pagecolor="#ffffff"
     bordercolor="#666666"
     borderopacity="1"
     objecttolerance="10"
     gridtolerance="10"
     guidetolerance="10"
     inkscape:pageopacity="0"
     inkscape:pageshadow="2"
     inkscape:window-width="1366"
     inkscape:window-height="719"
     id="namedview855"
     showgrid="false"
     inkscape:zoom="0.92187502"
     inkscape:cx="-81.239485"
     inkscape:cy="72.767165"
     inkscape:window-x="0"
     inkscape:window-y="25"
     inkscape:window-maximized="1"
     inkscape:current-layer="svg853"
     fit-margin-top="0"
     fit-margin-left="0"
     fit-margin-right="0"
     fit-margin-bottom="0" />
  <defs
     id="0">
    <linearGradient
       id="8">
      <stop
         id="L"
         stop-color="#bff500" />
      <stop
         id="M"
         offset="1"
         stop-color="#8bb300" />
    </linearGradient>
    <linearGradient
       id="9">
      <stop
         id="N"
         stop-color="#eee" />
      <stop
         id="O"
         offset="1"
         stop-color="#eee"
         stop-opacity="0" />
    </linearGradient>
    <linearGradient
       id="A">
      <stop
         id="P"
         stop-color="#2c72c7" />
      <stop
         id="Q"
         offset="1"
         stop-color="#00438a" />
    </linearGradient>
    <linearGradient
       id="B">
      <stop
         id="R" />
      <stop
         id="S"
         offset="1"
         stop-opacity="0" />
    </linearGradient>
    <linearGradient
       id="C">
      <stop
         id="T"
         stop-color="#eee"
         stop-opacity="0.872" />
      <stop
         id="U"
         offset="1"
         stop-color="#eee"
         stop-opacity="0" />
    </linearGradient>
    <filter
       x="-0.048"
       y="-0.57599998"
       width="1.095"
       height="2.152"
       id="D"
       style="color-interpolation-filters:sRGB">
      <feGaussianBlur
         id="V"
         stdDeviation="1.99915" />
    </filter>
    <radialGradient
       cx="61.029999"
       cy="118.2"
       r="50.25"
       id="E"
       xlink:href="#B"
       gradientUnits="userSpaceOnUse"
       gradientTransform="matrix(1,0,0,0.08292683,2.9705887,107.23974)" />
    <radialGradient
       cx="109.07"
       cy="60.369999"
       r="51.09"
       id="F"
       xlink:href="#C"
       gradientUnits="userSpaceOnUse"
       gradientTransform="matrix(-6.0081971e-8,-0.47891081,0.83485679,0,15.317558,64.588036)" />
    <radialGradient
       cx="63.310001"
       cy="-19.691999"
       r="54.679001"
       id="G"
       xlink:href="#9"
       gradientUnits="userSpaceOnUse"
       gradientTransform="matrix(1.8601236,0,0,1.0001537,-54.456554,-0.00931043)" />
    <linearGradient
       id="H">
      <stop
         id="W"
         stop-color="#fff" />
      <stop
         id="X"
         offset="1"
         stop-opacity="0.551" />
    </linearGradient>
    <radialGradient
       cx="87.489998"
       cy="-9.8280001"
       r="47.23"
       id="I"
       xlink:href="#H"
       gradientUnits="userSpaceOnUse"
       gradientTransform="matrix(-0.68013578,0.81949237,-0.88457457,-0.73415046,308.94863,-32.12383)" />
    <linearGradient
       y1="6.2810001"
       x2="0"
       y2="114.9"
       id="J"
       xlink:href="#A"
       gradientUnits="userSpaceOnUse" />
    <linearGradient
       y1="12.354"
       x2="0"
       y2="101.12"
       id="K"
       xlink:href="#8"
       gradientUnits="userSpaceOnUse" />
  </defs>
  <path
     d="M 106.77301,40.364991 A 54.295211,54.295208 0 1 1 1.8259489,68.257531 54.295211,54.295208 0 1 1 106.77301,40.364991 Z"
     id="3"
     style="fill:#ffffff;fill-opacity:0.29803922"
     inkscape:connector-curvature="0" />
  <path
     d="m 16.630597,15.234322 c -2.907632,2.808636 -5.517311,5.910599 -7.7199991,9.265839 0.44838,-0.192402 1.011464,-0.464998 1.7096301,-0.773586 1.105556,-0.488653 1.19042,-0.06858 1.600178,-0.584894 0.410004,-0.516364 0.541973,-0.647174 0.521609,-1.160089 -0.02066,-0.513106 -0.479732,-0.669371 -0.272782,-1.746971 0.206898,-1.077843 0.643428,-0.225891 2.093455,-1.130961 1.449978,-0.905314 0.09702,-1.222412 0.703173,-2.038279 0.6064,-0.815916 0.444806,-0.67839 1.416043,-1.397809 0.819481,-0.607008 0.273481,-0.190768 -0.0513,-0.43325 z M 68.497021,7.2908606 c -0.136736,0.04864 -0.294506,0.17978 -0.449497,0.470593 -0.413504,0.775794 -1.101112,1.319633 -2.191222,1.603833 -1.090309,0.284468 -1.170543,0.124313 -2.136838,0.7275254 -0.966784,0.603315 -1.742193,0.254237 -1.338287,1.089859 0.403415,0.835724 0.747539,1.095296 0.781908,1.260531 0.03444,0.165216 -0.246936,1.372942 -0.990319,0.837774 -0.744119,-0.535014 -2.369956,-2.887434 -1.507263,-1.227352 0.8624,1.65989 2.103924,2.019685 1.114718,2.512741 -0.989452,0.493107 -0.986256,0.100891 -1.174453,0.02486 -0.187902,-0.07584 -0.172059,-0.890348 -0.318848,-1.31976 -0.146972,-0.429118 -0.307467,-0.662597 -0.573604,-0.837085 -0.265943,-0.174784 -0.28519,-0.516669 -0.748727,-0.535177 -0.463784,-0.01846 -0.132115,-0.338468 -0.848376,-0.189488 -0.716263,0.148978 -1.399602,-0.141648 -1.028058,0.815883 0.371251,0.957336 0.391038,0.254845 1.026467,1.099771 0.635429,0.844926 1.318196,0.0084 0.849858,0.795584 -0.468581,0.787252 -2.113051,0.906427 -2.556122,0.711284 -0.443123,-0.195393 -0.253016,0.153224 -1.072924,-0.193649 -0.819418,-0.346971 -0.656591,-0.791351 -1.402765,-0.233666 -0.746176,0.557682 -0.874766,1.340488 -1.262811,1.133638 -0.388045,-0.206849 -1.027147,0.637396 -1.371467,0.364506 -0.344423,-0.273383 -1.452661,-0.04596 -1.603941,0.330528 -0.151823,0.376344 -0.81533,0.443981 -1.660205,1.079655 -0.844927,0.635429 -0.65667,0.17846 -1.618703,1.355911 -0.962574,1.177302 -1.463225,2.104142 -1.974595,1.578179 -0.511809,-0.525618 -2.811997,-1.136768 -2.019753,-1.474189 0.792295,-0.337177 1.11081,-0.759487 1.631874,-0.465637 0.521061,0.293849 1.185907,0.03319 1.238242,-0.265259 0.05282,-0.298547 0.500332,-0.671715 -0.229794,-0.864621 -0.729973,-0.193191 -0.72306,0.05302 -1.849984,-0.114807 -1.127219,-0.168026 -0.07323,-0.27149 -1.551838,-0.194046 -1.478348,0.07764 -2.097443,0.08949 -2.505903,0.05952 -0.408214,-0.03002 -0.938293,0.17972 -1.50053,0.239205 -0.562729,0.05958 -0.964089,0.03525 -1.448826,0.193541 -0.484248,0.158185 -0.777735,0.104606 -1.336008,0.738128 -0.558274,0.633523 -1.017872,0.942503 -1.378305,1.419699 -0.360435,0.477195 -1.375532,1.498324 -1.648916,1.842748 -0.273433,0.344179 -1.225999,1.483475 -1.267369,1.837102 -0.04137,0.353626 0.2433,0.558252 -0.151749,0.870265 -0.395047,0.312012 -0.847668,0.409722 -1.166927,0.533587 -0.159627,0.06194 -0.183527,-0.07555 -0.196616,-0.139268 -0.01274,0.01118 -0.05588,0.06255 -0.123419,0.256247 -0.215859,0.619763 0.31661,2.584852 0.534691,2.251931 0.218061,-0.332916 -0.135707,-1.161702 1.248446,-0.587173 1.384051,0.574039 2.125622,0.284142 2.230735,1.066988 0.105353,0.782798 0.965688,0.551887 1.110265,0.694455 0.144473,0.142077 0.638189,-0.361141 0.638189,-0.361141 0,0 1.047137,-1.020584 0.966944,-1.40613 -0.08025,-0.385791 0.517846,-1.414453 0.517846,-1.414453 0,0 -0.622033,-0.178885 -0.736643,-0.729912 -0.11456,-0.550783 0.0078,-0.735671 0.0031,-1.309559 -0.0044,-0.573694 -0.593618,0.113991 0.841645,-1.277068 1.434876,-1.390462 1.695663,-0.706032 1.695663,-0.706032 0,0 0.267767,0.202498 0.06112,0.590247 -0.206604,0.387994 -0.533961,1.372954 -0.621257,1.505778 -0.08743,0.133364 0.709818,0.880747 0.984965,0.823516 0.275627,-0.05738 0.788901,-0.414585 1.13107,-0.428295 0.342221,-0.01347 0.833461,-0.315425 1.02161,-0.239628 0.188393,0.07574 0.646998,0.319189 0.428693,0.652156 -0.218111,0.332671 -0.767474,0.792298 -1.230716,0.773984 -0.463976,-0.01817 -1.283019,-0.652748 -0.668004,0.369063 0.615015,1.021811 0.235691,1.387174 -0.106484,1.400883 -0.341679,0.01361 -1.166678,-0.408789 -0.884631,0.394718 0.282241,0.803211 -0.439927,1.530988 -0.605408,1.565407 -0.165481,0.03441 -0.49288,0.06715 -0.49288,0.06715 0,0 -0.50191,0.02162 -0.777058,0.07885 -0.275626,0.05738 -0.775475,0.461709 -0.894833,0.716634 -0.119656,0.254733 -0.372603,0.146871 -0.647996,0.204145 -0.275382,0.05732 -0.08949,-0.338858 -0.663445,-0.334399 -0.573694,0.0044 -0.923781,-0.03172 -1.208429,0.257328 -0.284888,0.2891 -0.76481,0.486143 -1.019735,0.366783 -0.254683,-0.11941 0.0099,-0.561273 -0.385309,-0.248719 -0.394802,0.311962 -0.586387,0.968869 -0.740117,1.058561 -0.01923,0.01111 -0.02367,0.03409 -0.0219,0.03774 -0.02418,0.0081 0.04111,0.01548 -0.141148,0.06943 -0.649679,0.192844 -0.880965,0.392627 -1.188818,0.571326 -0.307752,0.179189 0.247375,0.758239 -0.312907,1.10462 -0.560281,0.34638 -0.224387,-0.236911 -0.727633,0.384911 -0.5029,0.622262 -0.499808,1.076967 -0.70842,1.177819 -0.209049,0.101199 -0.153696,0.202905 -0.638189,0.361139 -0.484493,0.158232 -0.411503,0.22679 -0.675928,0.339249 -0.263937,0.112353 0.0924,0.126962 -0.53666,0.142634 -0.629264,0.01596 -1.000992,0.346386 -0.845011,0.54379 0.155982,0.1974 2.296822,0.366752 0.742687,0.632544 -1.554137,0.265793 -0.98883,0.426189 -0.612536,0.577765 0.376537,0.151526 0.59175,0.349354 0.768736,0.370258 0.176935,0.02066 0.58569,0.642349 0.58569,0.642349 0,0 0.431385,-0.154734 0.236236,0.28834 -0.195148,0.443073 0.217348,0.456253 0.04487,1.009532 -0.172236,0.553229 -0.246054,0.217243 -0.443455,0.373225 -0.197452,0.155735 -0.455931,0.632889 -1.131069,0.428295 -0.674893,-0.204648 -1.145843,-0.298447 -1.873755,-0.204251 -0.727768,0.09366 -0.252441,-0.119343 -0.668004,0.369064 -0.415656,0.489194 -0.443799,0.96423 -0.285372,1.448428 0.158185,0.484248 0.365713,1.127473 0.269017,1.492607 -0.0965,0.364837 -0.03121,0.69156 0.181856,1.164647 0.213512,0.472739 0.585689,0.642351 0.585689,0.642351 0,0 0.802976,-0.0579 0.979717,-0.03694 0.176691,0.02071 0.452049,-0.212518 0.949904,-0.02902 0.498201,0.183937 0.958042,0.20614 1.164647,-0.181855 0.206655,-0.38775 1.251188,-0.99246 1.513411,-1.391766 0.261682,-0.399452 0.453325,-0.559955 0.219302,-0.8563 -0.234021,-0.296347 0.07417,-1.233838 0.315187,-1.456352 0.241023,-0.222515 0.823119,-0.50605 0.823119,-0.50605 l 0.461979,-1.144241 c 0,0 0.421124,-0.696948 0.708023,-0.698905 0.286847,-0.0022 1.950395,0.211922 1.691503,-0.481481 -0.259181,-0.693596 -0.09077,-0.946367 0.131741,-0.705344 0.222514,0.241022 0.643834,0.02041 0.643834,0.02041 0,0 0.211755,-0.144444 0.41136,-0.01357 0.199551,0.130623 0.546338,0.810715 0.911368,0.906919 0.365134,0.0967 0.688358,0.199046 0.931777,0.263084 0.243275,0.06457 0.424622,-0.09859 0.945743,0.19553 0.520868,0.294144 1.019231,0.413687 1.108383,0.567271 0.08993,0.153677 0.538145,0.463464 0.538145,0.463464 0,0 0.427699,0.04299 0.363418,0.286457 -0.06433,0.243225 -0.48546,1.018499 -0.738234,1.185742 -0.252724,0.167486 -1.020967,0.08653 -0.699701,0.249803 0.32097,0.163084 0.777188,0.373488 0.908004,0.17364 0.131112,-0.199653 0.935249,-1.525389 0.935249,-1.525389 -0.0087,-0.02629 -0.03466,-0.105164 -0.0415,-0.276254 -0.01337,-0.341729 -0.154492,-0.723805 0.155512,-0.615901 0.309809,0.108199 0.519873,0.27948 0.584205,0.03626 0.06428,-0.243469 0.208876,-0.152505 -0.101131,-0.260406 -0.310055,-0.10815 -1.167369,-0.889329 -1.509541,-0.87562 -0.34222,0.01347 -1.277464,-0.36273 -1.277464,-0.36273 0,0 -0.225625,-0.123089 -0.703066,-0.483473 -0.477491,-0.360626 -0.543872,-0.239952 -0.734761,-0.60273 -0.190104,-0.362688 -0.618662,-0.784868 0.0106,-0.80083 0.629263,-0.01596 1.078818,0.290054 1.698632,0.506158 0.619814,0.216101 0.543891,0.339661 1.108383,0.567271 0.564492,0.227609 0.694917,0.553418 1.068765,0.418197 0.374091,-0.135268 0.870121,0.04339 0.973277,0.539339 0.103156,0.495949 0.317061,1.005844 0.450185,1.093331 0.133365,0.08743 0.509102,0.264232 0.665327,0.461583 0.155981,0.1974 0.497896,0.679021 0.70871,0.865018 0.211304,0.185894 0.406904,0.325605 0.62947,0.566874 0.222515,0.241022 0.193348,-0.08168 0.381547,-0.0056 0.188391,0.07574 0.393792,-0.03178 0.347968,-0.252084 -0.04583,-0.220311 -0.06903,-0.620063 -0.06903,-0.620063 0,0 0.730511,-0.384124 0.487234,-0.448702 -0.243469,-0.06428 -1.024278,-0.583773 -1.014779,-0.815592 0.0093,-0.231767 -0.146935,-0.673379 0.139665,-0.67553 0.287042,-0.0025 0.666088,0.444712 1.180496,-0.122226 0.514405,-0.566937 1.172204,-0.932697 1.089169,-0.225639 -0.08255,0.706957 0.235188,0.748694 0.328644,1.476759 0.0942,0.727911 0.308345,0.446254 0.774382,0.751803 0.465791,0.305601 0.754662,0.305938 1.052915,0.35857 0.298599,0.05307 0.727923,-0.08555 1.180495,-0.122226 0.452325,-0.03662 0.694392,-0.32331 1.103137,-0.293189 0.408215,0.03001 1.252455,-0.299356 1.440902,-0.223357 0.188391,0.07574 0.785063,-0.395237 0.920088,-0.0211 0.135327,0.374336 0.255462,-0.126725 0.273578,0.789145 0.01812,0.915863 -0.08876,1.587693 -0.08876,1.587693 -0.365426,1.2832 -0.526157,1.59791 -0.790338,1.710319 -0.263688,0.112313 -0.385393,0.316878 -0.892553,0.364903 -0.507454,0.04784 -1.109557,0.223362 -1.860186,0.20711 -0.750682,-0.0165 -1.993904,0.591549 -2.613473,0.375397 -0.619764,-0.215859 -1.341465,0.207946 -1.752616,-0.108764 -0.410713,-0.317057 -0.935605,-0.144512 -1.201987,-0.31895 -0.266138,-0.174488 -0.503384,-0.764517 -0.320037,0.116975 0.183395,0.881743 -0.310696,1.060122 -0.329153,1.523905 -0.01876,0.463588 0.20204,0.16713 -0.415522,0.238118 -0.617612,0.07074 -0.709874,0.458271 -1.728843,-0.01932 -1.019265,-0.477786 -1.448995,-0.415776 -1.946953,-0.599763 -0.498447,-0.183887 -0.776961,0.683119 -1.400884,-0.106484 -0.624269,-0.790043 -1.085094,0.0579 -1.289153,-0.64691 -0.204102,-0.705051 -0.129386,-0.652691 -0.166012,-1.105017 -0.03613,-0.452427 0.473595,-0.957046 0.163836,-1.065 -0.310004,-0.107904 -0.145519,-0.432879 -0.496643,-0.187209 -0.351425,0.245478 -0.885724,0.405716 -1.292227,0.662651 -0.406451,0.257177 0.975372,-0.213942 -1.138994,0.398479 -2.114419,0.612169 -2.649728,0.959602 -2.649728,0.959602 0,0 -0.193632,-0.06934 -0.423445,0.208304 -0.229568,0.277594 -0.536429,0.690343 -0.956343,0.6053 -0.419968,-0.08528 -0.636984,0.0024 -0.955947,0.126387 -0.319259,0.123863 -0.603661,-0.139805 -0.932169,0.215843 -0.328564,0.355391 -0.769783,0.554101 -0.958226,0.478118 -0.189018,-0.07721 -0.538144,-0.463463 -0.538144,-0.463463 l -0.617095,1.281229 -0.431767,0.657403 -0.960505,0.829849 -0.08192,0.5325 c 0,0 -0.347805,0.532541 -0.235152,0.796671 0.112653,0.264129 0.235843,0.767252 0.235843,0.767252 0,0 -0.618264,0.876634 -0.903155,1.165734 -0.28489,0.289099 -0.630664,0.869867 -0.630664,0.869867 0,0 -0.223773,0.399663 -0.366096,0.544187 -0.142374,0.14428 -0.343785,0.521211 -0.495556,0.8978 -0.151771,0.37659 -0.308434,0.648144 -0.384223,0.836291 -0.07579,0.188147 -0.323563,0.636992 -0.36273,1.277464 -0.03912,0.640719 -0.345002,1.464277 -0.345002,1.464277 l -0.05586,0.270212 c 0.250215,0.925303 0.290647,1.099562 0.469795,1.407324 0.178894,0.307557 0.266649,0.168932 0.305277,0.908402 0.03877,0.738929 0.09188,1.037451 0.05051,1.391078 -0.04147,0.353137 -0.234725,1.022505 -0.287254,1.321246 -0.05312,0.298354 0.384911,0.727633 0.384911,0.727633 0,0 0.305853,0.676416 0.229794,0.864621 -0.07574,0.188392 0.156595,0.46911 0.156595,0.46911 0,0 0.742701,0.259364 1.009133,0.434046 0.266138,0.17449 0.704945,0.433104 0.794391,0.586882 0.08973,0.153974 0.71059,0.81465 0.800035,0.968428 0.08945,0.153779 0.645654,0.668864 0.79023,0.811432 0.144576,0.142567 0.810238,0.646511 0.810238,0.646511 0,0 0.8374,0.396981 1.048755,0.58312 0.211058,0.185944 0.748267,0.191795 0.947625,0.322712 0.199848,0.130816 0.569818,-0.01985 0.824602,0.100044 0.254926,0.119362 0.636945,-0.234701 0.880468,-0.170166 0.243225,0.06433 0.801937,-0.266037 0.94426,-0.410564 0.142322,-0.144525 0.445612,-0.627677 0.755565,-0.520018 0.309709,0.107709 0.447679,-0.09409 0.67969,-0.08489 0.231525,0.0093 0.477507,-0.331164 0.697819,-0.376989 0.220555,-0.04589 0.749209,-0.368272 0.914445,-0.40264 0.165481,-0.0344 0.624451,-0.497916 0.845008,-0.54379 0.220069,-0.04578 0.461078,-0.318288 0.759328,-0.265656 0.298254,0.05263 0.125653,-0.236164 0.65592,-0.174331 0.530265,0.06184 0.660906,-0.135875 0.860459,-0.0052 0.199898,0.131061 0.389,-0.09004 0.600053,0.09588 0.211008,0.1857 0.512668,0.298142 0.613622,0.507244 0.100706,0.209154 0.476635,0.35213 0.476635,0.35213 l 0.343807,-0.02753 c 0,0 0.365027,-0.399959 0.520814,-0.20226 0.15598,0.197398 0.643833,0.0204 0.643833,0.0204 l 0.627589,0.439691 0.212465,0.198896 c 0,0 0.520172,0.824951 0.533586,1.166927 0.01365,0.341928 0.141758,1.042402 0.01089,1.242006 -0.130816,0.199847 -0.09817,0.951784 -0.09817,0.951784 0,0 -0.174803,0.254811 0.412845,0.592527 0.5877,0.337961 1.00643,0.671793 1.217438,0.857493 0.211354,0.186139 0.786395,0.68972 0.921175,1.063914 0.13552,0.374039 0.297435,0.565898 0.621148,1.015972 0.323468,0.450125 0.608404,0.466351 0.778146,1.006167 0.169888,0.539274 0.280207,0.511643 0.305275,0.908401 0.02516,0.397248 -0.129706,0.468482 0.09281,0.709506 0.222565,0.241267 0.542119,0.706159 0.521898,0.882747 -0.02071,0.176692 0.0211,0.920089 0.0211,0.920089 l -0.04002,0.329841 -0.320831,1.074807 -0.209099,0.534381 c -0.02996,0.40846 -0.178808,0.867355 -0.0091,1.406927 0.169444,0.539621 -0.150664,0.582491 0.404523,1.041625 0.555533,0.459574 0.907683,1.038937 1.286475,1.477554 0.37874,0.438374 0.642489,0.881839 0.766059,1.200903 0.124115,0.319206 0.363876,0.389558 0.565681,0.807271 0.201605,0.418011 0.277756,0.624842 0.335088,0.900477 0.05732,0.275383 0.164016,1.020546 0.309032,1.162767 0.144281,0.142374 0.30778,0.60822 0.408683,0.817076 0.100948,0.209103 -0.117369,0.307218 0.293587,0.624223 0.410908,0.316763 0.683549,0.504259 0.961193,0.734076 0.277644,0.229807 0.202979,0.135857 0.448702,0.487236 0.245426,0.351178 0.509224,0.502518 0.633231,0.821228 0.123815,0.31901 0.345217,1.15143 0.590938,1.502824 0.245475,0.35141 0.563799,0.68008 0.563799,0.68008 0,0 0.669333,0.28248 0.878188,0.18157 0.208602,-0.10089 0.561498,-0.69358 0.926529,-0.59738 0.365084,0.0964 0.597147,-0.14273 0.872513,-0.20011 0.275476,-0.057 0.487854,-0.432884 0.763489,-0.490214 0.275476,-0.057 0.57143,-0.60034 0.815195,-0.53586 0.243172,0.0641 0.469658,-0.20127 0.688013,-0.53399 0.218406,-0.33248 0.320264,-0.57421 0.724269,-1.118184 0.40425,-0.544028 0.357473,-0.525745 0.630663,-0.869868 0.273383,-0.344423 0.494857,-1.02709 0.857491,-1.217439 0.362637,-0.190344 0.37518,-0.613218 0.428004,-0.911766 0.05307,-0.2986 0.07177,-0.466217 0.191371,-0.721194 0.119704,-0.254485 0.06482,0.0529 0.191369,-0.721193 0.126606,-0.773837 0.419904,-1.133945 0.660876,-1.356704 0.241022,-0.222516 0.337668,-0.58356 0.491396,-0.673251 0.153726,-0.0897 0.46203,0.08772 0.248719,-0.38531 -0.213019,-0.472841 -0.250038,-1.22117 -0.394319,-1.363542 -0.144872,-0.142762 -0.181128,0.438496 -0.297747,-0.399674 -0.116275,-0.837731 0.287651,-1.800161 0.287651,-1.800161 0,0 0.620385,-1.219421 0.861653,-1.441987 0.241267,-0.222566 0.270492,-0.404095 0.610654,-0.704947 0.33953,-0.300208 1.055972,-1.011236 0.998641,-1.286874 -0.05737,-0.275625 0.120895,-1.070483 0.08648,-1.235962 -0.03444,-0.165214 -0.08767,-0.322402 -0.392437,-1.236362 -0.305156,-0.913366 -0.02541,-0.735712 -0.53923,-1.548473 -0.513817,-0.812759 -0.801909,-1.9095 -1.079258,-2.139118 -0.277889,-0.22976 -0.301005,-0.964587 -0.346779,-1.184656 -0.04583,-0.22031 0.223312,-0.857863 0.342722,-1.112543 0.119359,-0.254927 0.646909,-1.289152 0.646909,-1.289152 0,0 0.82306,-1.485002 1.082837,-2.171105 0.259674,-0.686594 0.532838,-1.297621 0.762405,-1.575213 0.229811,-0.277643 0.783518,-0.926111 1.054505,-1.557085 0.271233,-0.631026 0.847242,-1.841039 0.868094,-2.018269 0.02051,-0.176396 0.324593,-0.820442 0.324593,-0.820442 0,0 0.467628,-0.841021 0.497838,-1.249532 0.02967,-0.408652 0.14698,-2.670668 0.05974,-2.537598 -0.0867,0.133212 -0.749123,0.377164 -0.958226,0.478119 -0.208559,0.101101 0.392673,0.199735 -1.228437,0.422252 -1.620475,0.221875 -2.377236,0.663733 -2.377236,0.663733 -0.519156,-0.0072 -0.782866,0.648563 -1.108782,-0.08835 -0.325576,-0.736553 -0.537408,-1.171645 -0.982244,-1.653988 -0.445326,-0.482239 -0.7137,-0.653518 -1.35819,-1.266971 -0.644632,-0.612914 -0.532995,-0.273353 -1.088374,-0.732193 -0.555238,-0.459377 -0.622155,-0.276113 -1.046475,-0.93485 -0.424372,-0.658981 -0.596616,-0.339699 -1.13364,-1.26281 -0.537076,-0.923355 -0.76024,-0.994717 -1.040034,-1.511132 -0.280041,-0.516362 -0.558597,-0.630794 -0.772103,-1.103534 -0.21331,-0.473038 -2.005472,-2.76214 -2.205372,-2.8932 -0.199796,-0.130571 -0.647252,-0.931481 -0.557756,-0.777457 0.0897,0.153727 0.973279,0.539339 0.973279,0.539339 0,0 0.391189,-0.273134 0.556669,-0.307553 0.165216,-0.03444 0.9592,0.438527 1.004974,0.658596 0.04588,0.220554 1.430938,1.024247 1.86652,1.738359 0.435826,0.71406 0.878111,1.190839 0.978524,1.399797 0.100406,0.208961 0.844293,0.977972 1.133639,1.262811 0.288856,0.28494 1.139625,0.810096 1.31857,1.117898 0.178947,0.307802 1.443168,1.190781 1.592146,1.907042 0.148977,0.716264 0.845285,1.550649 0.946431,1.759454 0.101141,0.208809 1.156326,0.267244 1.156326,0.267244 l 1.248446,-0.587172 c 0,0 1.714417,-1.681377 1.934975,-1.727253 0.220069,-0.04578 1.807395,-1.246457 1.807395,-1.246457 0,0 0.583129,-0.798222 0.99864,-1.286873 0.415706,-0.488949 0.816328,-1.342431 0.857891,-1.696353 0.04113,-0.353575 0.253623,-0.431098 0.591043,-1.018939 0.337715,-0.58765 0.858964,-1.229602 0.40463,-1.480124 -0.454529,-0.250227 -0.651692,-0.07534 -1.317086,-0.511803 -0.665588,-0.436172 -0.587129,-0.342369 -1.121952,-0.978632 -0.534722,-0.635774 -0.288744,-1.545869 -0.943463,-0.547262 -0.654283,0.998259 -0.256272,1.122051 -1.048464,1.459718 -0.791857,0.33683 -1.026424,0.972324 -1.526582,0.501492 -0.500159,-0.470835 -0.81677,-0.04694 -1.209515,-0.827678 -0.392205,-0.780595 -0.55914,-0.808487 -0.682659,-1.127306 -0.123622,-0.319309 -0.054,-0.332713 -0.666811,-1.067678 -0.612516,-0.734771 -0.580201,-2.085909 -0.155803,-1.426935 0.424616,0.658931 0.89442,0.697783 1.714082,1.044701 0.819122,0.346776 1.236819,0.660266 1.909215,0.577872 0.672588,-0.08269 1.226363,-0.256776 1.359382,-0.16977 0.133119,0.08749 0.194381,-0.11974 0.49288,-0.06715 0.298599,0.05307 0.354274,-0.246057 0.556272,0.17136 0.201852,0.41796 0.813451,0.371051 1.146123,0.589162 0.332916,0.218059 0.331674,0.105586 1.071043,0.06647 0.739469,-0.03863 1.717156,-0.264858 1.717156,-0.264858 l 1.051439,-0.247492 1.202387,-0.159965 c 0,0 1.003808,0.326984 1.223878,0.281211 0.220311,-0.04583 0.408981,0.532182 1.028745,0.748041 0.619814,0.216102 0.727487,0.242291 1.138198,0.559346 0.411447,0.316904 0.396594,0.515652 0.917413,0.809551 0.521409,0.294287 1.136741,-0.294011 1.212589,-0.481882 0.07524,-0.188289 0.592368,-0.584423 0.574399,-0.120742 -0.01876,0.463589 0.594221,0.15101 0.646802,1.232598 0.05243,1.080855 -0.125832,0.825507 0.298831,1.484684 0.42437,0.658982 2.115536,2.631112 2.308382,3.280789 0.192843,0.649677 0.453918,0.353525 0.635115,0.948419 0.181341,0.594354 0.576993,0.753988 0.668692,1.19486 0.0917,0.440869 0.501638,0.471869 0.62531,0.791422 0.124357,0.319157 0.659088,-0.09493 0.812915,-0.184137 0.153972,-0.08973 0.763887,-0.969117 0.763887,-0.969117 0,0 0.331785,-0.173555 0.161555,-0.713267 -0.16983,-0.539032 -0.10125,-0.44165 -0.273181,-1.268058 -0.171893,-0.826417 -0.488848,-0.763407 -0.49545,-1.62395 -0.0066,-0.860785 0.309148,-1.43731 0.339356,-1.845821 0.02996,-0.40846 0.348904,-1.164284 0.557465,-1.265381 0.208859,-0.100899 1.280332,-0.970289 1.475673,-1.413657 0.1952,-0.442827 0.556212,-0.98514 0.905437,-1.517465 0.348973,-0.532275 1.011252,-1.218792 1.211104,-1.087977 0.199605,0.130867 0.113858,0.08149 0.38947,0.02417 0.275382,-0.05732 0.823102,0.05197 1.220122,0.02684 0.39724,-0.02516 1.36604,0.763888 1.63444,1.22547 0.2684,0.461579 0.13439,0.354206 0.88947,0.944657 0.75503,0.589951 1.21481,0.05539 1.39821,0.93713 0.18335,0.881755 0.16533,0.804115 0.50981,1.077483 0.34418,0.273433 0.48969,-0.712636 0.84312,-0.670971 0.35344,0.04167 0.38132,-0.185639 0.84007,0.638585 0.45878,0.824463 0.61619,0.786105 0.8551,1.656046 0.2384,0.870034 -0.0404,0.05314 0.10863,0.769142 0.14908,0.71649 0.10248,0.801081 0.3502,1.439098 0.24752,0.638819 0.680774,0.759356 0.649094,0.880867 0,0 0.13407,-0.99113 -0.11391,-1.629594 -0.247154,-0.638128 -0.351824,-1.610879 -0.133514,-1.943588 0.218014,-0.333163 0.431774,-0.659885 0.800824,0.0106 0.36949,0.670144 0.377,0.08436 1.04459,0.807668 0.66814,0.723459 1.08213,0.483156 1.21744,0.857494 0.13536,0.374327 0.41614,0.380525 0.86987,0.630664 0.45459,0.250469 0.70352,-0.214578 1.07561,-0.636998 0.37232,-0.422463 1.32932,-1.876064 1.28172,-2.383569 -0.0483,-0.507121 0.46298,-0.522819 -0.68225,-1.606221 -1.14534,-1.083891 -1.21633,-1.521877 -2.31334,-2.098413 -1.09653,-0.576636 -1.6793,-0.495503 -1.1691,-1.636432 0.50995,-1.140876 0.71165,-1.878056 1.20962,-1.694072 0.49815,0.183693 1.26819,-0.03195 1.49746,1.070354 0.22921,1.101799 0.25015,2.369713 0.74644,0.886911 0.43425,-1.297452 0.64922,-2.129171 0.58205,-2.133766 -0.076,0.12447 0.38193,-0.484558 0.38193,-0.484558 C 102.4436,25.3268 93.286536,14.180363 81.60812,7.3813926 c -0.03581,0.01489 -0.07876,0.05087 -0.111333,0.06151 -0.484001,0.158125 -1.604946,0.272094 -2.025107,0.187102 -0.420408,-0.08494 -0.606647,-0.44082 -2.005099,0.02218 -1.398105,0.463434 -2.224645,0.625626 -2.040955,0.127472 0.183988,-0.497958 0.413493,-1.018937 0.567272,-1.108383 0.154024,-0.0895 0.485755,-0.443819 0.187209,-0.496643 -0.298112,-0.05317 -0.623146,-0.152778 -1.295593,-0.07063 -0.672885,0.0825 -0.557925,0.353735 -1.572244,0.449792 -1.014565,0.0961 0.484897,-0.516104 -1.542032,-0.03705 -2.027121,0.479356 -2.49885,0.772627 -2.719163,0.818454 -0.137843,0.0287 -0.326497,-0.125249 -0.55439,-0.04418 z m 30.323555,46.7163184 -0.13323,0.09925 c 0,0 0.45615,0.402822 0.66721,0.588766 0.21106,0.185943 0.23524,0.52955 0.700784,0.835203 0.46604,0.305547 0.58281,0.641563 0.8261,0.706139 0.24327,0.06458 0.89956,0.966219 1.13363,1.262811 0.23393,0.295854 0.63618,0.554231 0.92534,0.839364 0.28905,0.284643 0.89053,0.894437 1.41366,1.475672 0.5235,0.580646 0.83453,0.821222 1.12383,1.105815 0.28905,0.284644 1.01706,0.463861 1.01706,0.463861 0,0 0.27262,-0.09941 0.52309,-0.553994 0.2503,-0.45429 0.0416,-0.890048 0.007,-1.055193 -0.0346,-0.165437 -0.52026,-0.577966 -0.60946,-0.731794 -0.0897,-0.153979 -0.33918,-0.552702 -0.5936,-0.672167 -0.2548,-0.119896 -0.55934,-0.476934 -1.09402,-1.113738 -0.53472,-0.635774 0.0129,0.02026 -1.05442,-0.964662 -1.06733,-0.985191 -0.8635,-0.286248 -1.54954,-0.54578 -0.68611,-0.259775 -0.8856,-0.389272 -1.22953,-0.662757 -0.34486,-0.273037 -0.88757,-1.137689 -1.316684,-0.990718 -0.42937,0.147023 -0.75705,-0.08607 -0.75705,-0.08607 z M 6.2774349,79.688339 c 0.942874,1.788699 2.000323,3.489571 3.12159,5.139491 0.08713,-0.360484 0.158606,-0.06552 0.29438,-0.333604 0.163278,-0.321267 0.09146,-0.576759 0.3763001,-0.866105 0.284453,-0.288753 0.509078,-1.251435 0.504277,-1.825812 -0.0044,-0.573695 -0.250098,-0.298626 -0.219989,-0.707626 0.03021,-0.408511 -0.5973471,-0.156078 -0.8978011,-0.495557 -0.300851,-0.340159 -0.338495,0.07437 -0.615902,-0.155512 -0.2774,-0.229863 -0.676775,0.01599 -0.933658,-0.390265 -0.231786,-0.366716 -0.867521,-0.165183 -1.629197,-0.36501 z M 69.216512,74.132748 c -0.03911,0.640717 -0.454453,1.652969 -0.454453,1.652969 l -1.006167,0.778144 c 0,0 -0.321669,0.423174 -0.531017,0.524178 -0.208907,0.100658 -0.70386,0.474355 -0.70386,0.474355 0,0 -0.500966,-0.01645 -0.232872,0.444938 0.26839,0.461582 0.45118,1.081755 0.430177,1.258252 -0.02041,0.176885 0.03468,0.515077 0.126386,0.955946 0.09164,0.440627 0.05303,1.002804 -0.199692,1.170292 -0.252426,0.167682 -0.521425,0.334773 -0.386104,0.709108 0.135567,0.374285 0.374283,1.528471 0.374283,1.528471 l 0.957031,0.958622 c 0,0 0.183354,-0.201887 0.624223,-0.293587 0.440382,-0.09159 0.807272,-0.56568 0.807272,-0.56568 0,0 0.501965,-0.0019 0.320432,-0.595892 -0.181197,-0.594894 -0.02996,-1.378304 -0.119946,-1.532226 -0.0892,-0.15383 0.309485,-0.961521 0.275168,-1.126511 -0.03441,-0.165484 0.336712,-1.075181 0.27933,-1.351061 -0.05732,-0.275383 0.258961,-0.776907 0.245354,-1.118587 -0.01377,-0.342414 -0.144658,-1.13993 -0.08033,-1.383154 0.06458,-0.243276 0.08813,-0.46126 0.0423,-0.681573 L 69.83951,75.275909 69.216481,74.132755 Z"
     id="6"
     style="fill:#ffffff;fill-opacity:1;stroke:none;stroke-opacity:1"
     inkscape:connector-curvature="0" />
</svg>
