<?xml version="1.0" encoding="UTF-8" standalone="no"?>
<!-- Created with Inkscape (http://www.inkscape.org/) -->

<svg
   xmlns:dc="http://purl.org/dc/elements/1.1/"
   xmlns:cc="http://creativecommons.org/ns#"
   xmlns:rdf="http://www.w3.org/1999/02/22-rdf-syntax-ns#"
   xmlns:svg="http://www.w3.org/2000/svg"
   xmlns="http://www.w3.org/2000/svg"
   xmlns:sodipodi="http://sodipodi.sourceforge.net/DTD/sodipodi-0.dtd"
   xmlns:inkscape="http://www.inkscape.org/namespaces/inkscape"
   width="37.536438mm"
   height="37.531643mm"
   viewBox="0 0 37.536438 37.531643"
   version="1.1"
   id="svg6800"
   inkscape:version="0.92.3 (2405546, 2018-03-11)"
   sodipodi:docname="earth.svg">
  <defs
     id="defs6794" />
  <sodipodi:namedview
     id="base"
     pagecolor="#ffffff"
     bordercolor="#666666"
     borderopacity="1.0"
     inkscape:pageopacity="0.0"
     inkscape:pageshadow="2"
     inkscape:zoom="1.979899"
     inkscape:cx="-2.3708619"
     inkscape:cy="38.608869"
     inkscape:document-units="mm"
     inkscape:current-layer="g8923"
     showgrid="false"
     fit-margin-top="0"
     fit-margin-left="0"
     fit-margin-right="0"
     fit-margin-bottom="0"
     inkscape:window-width="1366"
     inkscape:window-height="719"
     inkscape:window-x="0"
     inkscape:window-y="25"
     inkscape:window-maximized="1" />
  <metadata
     id="metadata6797">
    <rdf:RDF>
      <cc:Work
         rdf:about="">
        <dc:format>image/svg+xml</dc:format>
        <dc:type
           rdf:resource="http://purl.org/dc/dcmitype/StillImage" />
        <dc:title />
      </cc:Work>
    </rdf:RDF>
  </metadata>
  <g
     inkscape:label="Calque 1"
     inkscape:groupmode="layer"
     id="layer1"
     transform="translate(-123.72883,-147.83307)">
    <g
       id="g8923"
       transform="matrix(0.10030532,0,0,0.10030532,-318.53809,-118.58639)">
      <path
         style="fill:#ffffff;fill-opacity:0.29651162"
         inkscape:connector-curvature="0"
         id="path8915"
         d="m 4783.393,2843.172 c 0,103.325 -83.762,187.087 -187.087,187.087 -103.325,0 -187.087,-83.762 -187.087,-187.087 0,-103.325 83.762,-187.087 187.087,-187.087 103.325,0 187.087,83.762 187.087,187.087 z" />
      <path
         style="fill:#ffffff"
         inkscape:connector-curvature="0"
         id="path8919"
         d="m 4596.306,2656.086 v 3.401 l 6.905,-1.7 c 1.718,-1.7 2.075,-1.7 3.725,-1.7 h -6.378 -4.252 z m 41.993,5.103 c -0.425,0 2.5,5.103 6.378,10.204 4.83,8.504 6.565,11.905 7.432,11.905 1.786,-1.7 11.072,-6.804 17.535,-11.905 -9.796,-5.103 -20.222,-8.504 -30.818,-10.204 z m 59.527,35.716 c -0.646,0 -2.211,0 -5.323,3.401 l -4.779,5.103 3.18,3.401 c 1.82,3.401 4.473,5.103 5.851,6.804 3.044,3.401 3.351,3.401 0.544,8.504 -1.225,3.401 -1.837,5.103 -1.599,5.103 0.323,1.7 1.786,1.7 7.96,1.7 h 9.048 c 0.527,0 1.735,-3.401 2.126,-6.803 l 0.527,-5.103 -6.378,-5.103 c -5.494,-5.103 -6.021,-5.103 -7.977,-10.204 -1.19,-3.401 -2.67,-6.804 -3.181,-6.804 v 0 z m -17.535,13.607 c -1.105,0 -7.416,11.905 -7.449,13.607 -0.017,0 1.956,3.401 4.252,5.103 2.296,1.7 3.895,3.401 4.252,3.401 0.714,0 6.803,-6.804 7.977,-8.504 0.527,-1.7 -0.697,-3.401 -3.725,-6.804 -2.297,-3.4 -4.763,-6.803 -5.307,-6.803 z m 54.731,6.804 c 0.204,0 1.071,1.7 1.071,1.7 -0.017,1.7 -3.775,5.103 -7.977,8.504 -6.786,5.103 -7.994,6.803 -11.701,6.803 -3.402,0 -5.307,1.7 -10.613,5.103 -3.555,3.401 -6.735,5.103 -6.922,6.804 -0.187,0 1.377,1.7 3.197,5.103 3.776,3.401 3.759,5.103 1.055,10.204 l -2.126,1.7 h -6.378 c -3.623,0 -8.47,0 -10.63,-1.7 -4.933,0 -4.558,0 -0.527,11.905 5.97,17.008 6.361,18.708 7.432,18.708 0.612,0 7.722,-6.804 15.954,-13.607 8.232,-6.803 15.46,-13.607 15.954,-13.607 0.476,0 1.718,1.7 3.18,1.7 2.534,1.7 2.908,0 7.433,-3.401 l 4.796,-3.401 4.779,3.401 c 10.766,6.804 12.382,8.504 13.283,13.607 1.412,8.504 1.99,10.204 2.653,10.204 0.664,0 7.279,-8.504 9.048,-10.204 0.85,-1.7 -0.374,-3.401 -6.378,-11.905 -3.759,-5.103 -6.395,-10.204 -6.378,-11.905 0,0 0.833,0 1.599,-1.7 0.986,0 2.279,1.7 5.833,5.103 -7.432,-13.607 -16.854,-27.212 -27.638,-39.119 v 0 z m 15.954,61.228 c -1.105,0 -5.324,5.103 -4.796,6.803 0.289,0 1.701,1.7 2.67,1.7 h 3.18 c 1.293,0 1.514,0 1.072,-1.7 -0.766,-3.4 -1.395,-6.803 -2.126,-6.803 z m -14.882,6.803 h -13.827 l -13.811,1.7 -25.512,20.409 -25.512,22.111 v 20.409 c 0.085,11.905 0.238,22.111 0.527,22.111 0.289,0 4.031,5.103 8.504,8.504 4.473,5.103 8.844,8.504 10.103,10.204 2.262,1.7 2.993,1.7 22.842,3.401 l 19.678,1.7 9.031,5.103 c 4.729,3.401 8.81,6.803 9.031,6.803 0.221,0 -1.65,1.7 -3.725,3.401 l -3.708,3.401 5.851,6.804 c 3.129,3.401 7.483,8.504 9.558,10.204 l 3.198,5.103 v 10.204 5.103 c 21.43,-28.913 34.254,-66.331 35.07,-105.448 0.323,-15.307 -1.497,-30.615 -4.779,-45.92 -1.174,0 -2.823,-1.7 -3.198,-1.7 -0.595,0 -3.129,1.7 -5.833,3.401 -2.721,1.7 -5.851,5.103 -6.395,5.103 -0.527,0 -4.66,-1.7 -10.085,-3.401 l -10.103,-3.401 v -5.103 c 0.085,-3.401 -0.153,-5.103 -3.18,-8.504 z m -139.788,147.966 v 1.7 h 1.055 c 0.016,0 -1.004,-1.7 -1.055,-1.7 z" />
      <path
         style="fill:#ffffff"
         inkscape:connector-curvature="0"
         id="path8921"
         d="m 4596.306,2656.086 c -18.045,0 -35.56,2.667 -52.087,7.441 1.453,2.393 1.981,2.461 3.72,5.315 8.776,14.401 9.807,16.124 12.226,16.477 1.449,0.211 5.34,0.384 9.031,0.531 h 6.905 l 5.324,-11.693 4.779,-11.162 10.103,-3.187 v -3.722 z m -97.264,27.107 c -16.273,9.916 -31.058,22.405 -43.581,36.672 -21.629,24.639 -36.224,55.119 -42.52,88.761 2.638,-0.153 5.005,-0.643 10.63,-0.532 16.066,0.311 14.198,-0.284 19.665,7.968 3.051,4.609 3.255,4.439 7.974,4.796 5.619,0.408 5.381,0.136 2.656,-9.048 -1.061,-3.568 -1.607,-7.055 -1.595,-7.968 0.017,-1.097 3.079,-3.75 9.569,-9.036 10.831,-8.82 10.091,-7.48 8.504,-16.476 -0.33,-1.854 0.391,-3.495 3.72,-6.91 3.956,-4.058 3.895,-3.538 7.972,-3.187 h 4.252 l 0.532,-6.91 c 0.31,-3.948 0.82,-7.21 1.063,-7.441 0.243,-0.231 10.713,-6.426 23.386,-13.287 12.673,-6.865 23.799,-12.671 24.449,-13.288 1.01,-0.964 -1.745,-4.631 -15.414,-21.792 -8.796,-11.042 -15.98,-20.695 -16.476,-21.26 -0.096,-0.106 -3.758,-0.79 -4.786,-1.062 z m -33.484,132.342 c -0.401,0.238 -0.49,1.701 -0.533,3.725 -0.071,3.521 -0.032,3.793 3.722,5.851 4.621,2.517 5.427,2.84 4.782,1.054 -0.986,-2.739 -7.267,-11.039 -7.971,-10.63 z m -19.666,12.228 c -1.053,0.612 -3.414,9.303 -2.657,10.103 0.369,0.374 5.433,1.48 10.63,2.653 5.967,1.344 9.462,2.058 10.1,1.599 1.446,-1.072 3.485,-6.616 2.657,-7.449 -1.045,-1.055 -19.939,-7.382 -20.73,-6.906 z m -21.791,5.851 -6.378,3.18 c -3.396,1.786 -6.97,3.742 -7.973,3.725 -0.07,0 -0.44,0.017 -0.531,0 -0.122,8.113 0.706,16.038 1.595,23.913 l 3.72,2.126 5.846,-0.527 h 5.847 l 3.721,7.96 c 1.965,4.252 4.024,8.079 4.783,8.504 0.759,0.442 5.813,0.442 10.63,0.544 h 8.504 l -0.53,6.905 c -0.145,7.007 0.086,7.313 -3.722,12.756 -2.184,3.112 -3.736,6.786 -3.721,7.977 0.017,1.14 4.205,12.331 9.036,24.985 l 8.504,22.842 9.036,4.779 c 6.628,3.385 8.528,4.677 8.504,5.851 -0.01,0.391 -2.053,11.957 -3.191,18.08 17.357,14.321 36.637,26.124 58.467,33.489 19.943,-20.511 39.138,-40.751 41.996,-43.591 l 4.252,-4.252 1.055,-11.157 c 0.936,-6.276 2.092,-12.075 2.126,-12.756 0.034,-0.68 2.823,-3.555 5.851,-6.922 2.772,-3.062 4.405,-5.681 4.779,-6.361 v -1.072 c -0.527,-0.646 -7.875,-6.123 -17.535,-12.756 l -18.076,-12.229 -6.378,-0.527 c -4.369,-0.085 -6.664,-0.255 -7.439,-1.072 -0.645,-0.663 -1.658,-4.439 -2.126,-9.031 -0.454,-4.439 -1.359,-8.623 -1.596,-9.031 -0.236,-0.408 -4.464,-0.425 -9.567,-0.527 -5.102,-0.119 -10.021,-0.663 -10.63,-1.072 -0.68,-0.442 -0.663,-3.963 -1.063,-8.504 -0.357,-4.048 -1.156,-7.5 -1.595,-7.96 -0.437,-0.476 -6.361,-1.208 -13.287,-1.599 -11.484,-0.663 -13.572,-0.714 -19.665,-3.198 l -6.91,-3.18 -9.037,4.252 -9.565,3.725 -10.1,-0.544 c -11.531,-0.221 -10.841,1.292 -12.225,-9.031 -0.476,-3.555 -0.631,-6.633 -1.061,-6.905 -0.432,-0.289 -2.975,-0.731 -5.317,-1.072 l -4.252,-1.054 0.532,-2.653 c 0.062,-1.837 0.123,-5.477 0.532,-7.977 l 0.531,-4.779 -2.657,-2.67 z m 52.619,5.834 c -0.429,0.408 -0.774,2.143 -1.065,3.725 l -0.53,2.653 16.477,6.905 c 16.625,6.378 19.643,6.837 22.321,4.252 1.022,-0.969 0.799,-1.038 -1.594,-2.109 -1.532,-0.697 -9.849,-5.119 -18.602,-9.048 -9.658,-4.32 -16.536,-6.82 -17.007,-6.378 z" />
    </g>
  </g>
</svg>
