<?xml version="1.0" encoding="UTF-8" standalone="no"?>
<!-- Created with Inkscape (http://www.inkscape.org/) -->

<svg
   xmlns:dc="http://purl.org/dc/elements/1.1/"
   xmlns:cc="http://creativecommons.org/ns#"
   xmlns:rdf="http://www.w3.org/1999/02/22-rdf-syntax-ns#"
   xmlns:svg="http://www.w3.org/2000/svg"
   xmlns="http://www.w3.org/2000/svg"
   xmlns:sodipodi="http://sodipodi.sourceforge.net/DTD/sodipodi-0.dtd"
   xmlns:inkscape="http://www.inkscape.org/namespaces/inkscape"
   width="85.679512mm"
   height="24.766266mm"
   viewBox="0 0 85.679512 24.766266"
   version="1.1"
   id="svg7975"
   inkscape:version="0.92.1 r15371"
   sodipodi:docname="slogan.svg">
  <defs
     id="defs7969" />
  <sodipodi:namedview
     id="base"
     pagecolor="#ffffff"
     bordercolor="#666666"
     borderopacity="1.0"
     inkscape:pageopacity="0.0"
     inkscape:pageshadow="2"
     inkscape:zoom="0.7"
     inkscape:cx="60.305964"
     inkscape:cy="-91.048475"
     inkscape:document-units="mm"
     inkscape:current-layer="layer1"
     showgrid="false"
     fit-margin-top="0"
     fit-margin-left="0"
     fit-margin-right="0"
     fit-margin-bottom="0"
     inkscape:window-width="1022"
     inkscape:window-height="740"
     inkscape:window-x="1280"
     inkscape:window-y="32"
     inkscape:window-maximized="1" />
  <metadata
     id="metadata7972">
    <rdf:RDF>
      <cc:Work
         rdf:about="">
        <dc:format>image/svg+xml</dc:format>
        <dc:type
           rdf:resource="http://purl.org/dc/dcmitype/StillImage" />
        <dc:title></dc:title>
      </cc:Work>
    </rdf:RDF>
  </metadata>
  <g
     inkscape:label="Calque 1"
     inkscape:groupmode="layer"
     id="layer1"
     transform="translate(-5.3985622,-37.987402)">
    <g
       aria-label="logiciels libres éducatifs. 



"
       style="font-style:normal;font-variant:normal;font-weight:normal;font-stretch:normal;font-size:3.07333589px;line-height:0%;font-family:Alamain;-inkscape-font-specification:'Alamain, Normal';font-variant-ligatures:normal;font-variant-caps:normal;font-variant-numeric:normal;font-feature-settings:normal;text-align:end;letter-spacing:0px;word-spacing:0px;writing-mode:lr-tb;text-anchor:end;opacity:0.9;fill:#917b51;fill-opacity:1;stroke:none;stroke-width:0.25611347"
       id="text3497"
       transform="matrix(1.8979429,0,0,1.8979429,-4.847601,-34.11052)">
      <path
         d="M 6.7431479,44.424535 Q 7.2983892,44.445545 7.355414,45.192869 7.3224,45.958201 6.6230957,47.002655 L 5.926793,47.942064 5.85176,48.218184 q -0.04502,0.210091 -0.036016,0.336146 0.012005,0.123053 0.1560678,0.13806 0.1200522,0.012 0.3661592,-0.186081 0.2461069,-0.198086 0.6032622,-0.549239 0.2190952,-0.07203 0.168073,0.201087 -0.4051761,0.39017 -0.6122661,0.546238 -0.2040887,0.156068 -0.3181383,0.219095 -0.1110483,0.06303 -0.315137,0.06903 -0.1890822,-0.009 -0.2821226,-0.225098 -0.072031,-0.219095 -0.057025,-0.423184 -0.1260548,-0.08404 -0.1260548,-0.153066 0.006,-0.06303 0.057025,-0.132058 L 5.611656,47.861028 6.1368843,45.453982 q 0.1890822,-0.816355 0.3091344,-0.918399 0.1230535,-0.105046 0.2971292,-0.111048 z m 0.048021,0.30013 Q 6.6411035,44.697653 6.5600683,44.994782 L 5.9898204,47.374817 Q 6.1879065,47.113703 6.4580239,46.717531 6.7281414,46.318358 6.8752053,45.985213 7.0252705,45.649067 7.0612862,45.40296 7.1003031,45.153852 7.040277,44.961768 6.9832522,44.766683 6.7911689,44.724665 Z"
         style="fill:#917b51;fill-opacity:1;stroke-width:0.25611347"
         id="path8548"
         inkscape:connector-curvature="0" />
      <path
         d="m 7.4874714,47.437844 q 0.1590691,-0.06003 0.3271422,-0.06603 0.1710744,0 0.2971291,0.09604 0.1020444,0.09304 0.1290561,0.18308 0.027012,0.09004 0.030013,0.216094 0.075033,0.153066 0.1590691,0.198086 0.084037,0.04502 0.2190953,-0.03301 0.1650717,-0.03001 0.1650717,0.08704 0,0.04802 -0.030013,0.123054 -0.2311005,0.195085 -0.423184,0.150065 -0.1290561,-0.04202 -0.2040887,-0.117051 -0.066029,0.171075 -0.1650717,0.309135 -0.099043,0.13806 -0.2671161,0.261113 -0.1650718,0.120052 -0.3481514,0.126055 -0.2160939,-0.009 -0.3361461,-0.09304 -0.1350587,-0.09004 -0.2040887,-0.309135 -0.021009,-0.07803 -0.021009,-0.16207 0,-0.153067 0.06903,-0.327142 0.066029,-0.168074 0.1440626,-0.282123 0.081035,-0.117051 0.1920835,-0.210091 0.1110483,-0.09304 0.2671161,-0.150066 z m 0.3391474,0.186081 q -0.246107,-0.003 -0.4381905,0.150065 -0.1560678,0.117051 -0.2551108,0.402175 -0.1050457,0.372162 0.1050456,0.492214 0.177077,0.09604 0.423184,-0.144062 0.20709,-0.216094 0.3241409,-0.516225 -0.066029,-0.111048 -0.099043,-0.195085 -0.033014,-0.08704 -0.060026,-0.189082 z"
         style="fill:#917b51;fill-opacity:1;stroke-width:0.25611347"
         id="path8550"
         inkscape:connector-curvature="0" />
      <path
         d="m 9.4203116,47.401829 q 0.2521095,0 0.4862113,0.102044 0.02401,-0.08704 0.1170511,-0.08404 0.147064,0.01201 0.126055,0.09604 l -0.2821231,1.086473 q 0.3001301,-0.279122 0.6512831,-0.651284 0.195085,-0.05102 0.195085,0.13806 -0.423184,0.4592 -0.9424098,0.921401 l -0.3241409,1.31157 q -0.078034,0.312136 -0.2371031,0.501218 -0.1590691,0.192083 -0.3361461,0.198086 -0.2851239,0 -0.34515,-0.516224 -0.009,-0.08704 -0.009,-0.165072 0,-0.375163 0.2100913,-0.627273 l 0.8613744,-0.906394 0.021009,-0.123053 q -0.354154,0.273118 -0.6032623,0.27612 -0.237103,-0.006 -0.3661591,-0.285124 -0.108047,-0.282123 -0.003,-0.600261 0.168073,-0.396172 0.4622009,-0.567247 0.168073,-0.09304 0.3181383,-0.105045 z m 0.3961722,0.387168 q -0.2881253,-0.219095 -0.5882557,-0.06303 -0.2220966,0.11705 -0.3481514,0.471204 -0.1140495,0.351153 0.096042,0.471205 0.1290561,0.06903 0.3241409,-0.04802 0.3601565,-0.216094 0.4381904,-0.510221 z m -0.7233144,1.842801 q -0.3991735,0.41418 -0.3601566,0.837364 0.04502,0.405176 0.2581122,0.234102 0.1200522,-0.09304 0.2130926,-0.41418 l 0.3121357,-1.12549 z"
         style="fill:#917b51;fill-opacity:1;stroke-width:0.25611347"
         id="path8552"
         inkscape:connector-curvature="0" />
      <path
         d="m 11.299128,47.01466 q 0.144063,-0.006 0.156068,-0.159069 -0.003,-0.141061 -0.168073,-0.150065 -0.144062,0.009 -0.150065,0.144063 -0.003,0.168073 0.16207,0.165071 z m -0.312135,0.444193 q 0.174075,-0.09304 0.213092,0.08104 -0.219095,0.963418 -0.2311,1.044454 -0.009,0.08103 0.02701,0.09304 0.05102,0.02701 0.285124,-0.165072 0.237103,-0.195084 0.588255,-0.55224 0.18308,-0.06003 0.18308,0.105046 0,0.03902 -0.006,0.07503 -0.411178,0.408177 -0.822357,0.726315 -0.159069,0.117051 -0.360157,0.117051 -0.147064,-0.01801 -0.165072,-0.159069 -0.01801,-0.141061 0.01501,-0.315137 0.03301,-0.174076 0.132057,-0.513223 l -0.252109,0.237103 q -0.174076,0.03001 -0.174076,-0.117051 0,-0.03001 0.006,-0.07203 0.303132,-0.297129 0.561244,-0.585255 z"
         style="fill:#917b51;fill-opacity:1;stroke-width:0.25611347"
         id="path8554"
         inkscape:connector-curvature="0" />
      <path
         d="m 12.562677,47.31179 q 0.09304,-0.03001 0.204089,-0.03001 0.09004,0 0.195085,0.02101 0.177077,0.07203 0.246107,0.192083 0.07203,0.120052 0.07203,0.249108 0.003,0.129057 -0.05402,0.195085 -0.05402,0.06603 -0.177077,0.07803 -0.120052,0.009 -0.141062,-0.07803 -0.02101,-0.08704 0.01801,-0.144062 0.111049,-0.09304 0.05402,-0.165072 -0.05402,-0.07503 -0.18308,-0.07503 -0.126055,-0.003 -0.27612,0.07503 -0.147064,0.07503 -0.228099,0.177077 -0.07803,0.102044 -0.13806,0.219095 -0.05703,0.117051 -0.08103,0.228099 -0.02401,0.111048 0.006,0.222097 0.03001,0.111048 0.168073,0.201087 0.198087,0.06303 0.357156,0.03902 0.16207,-0.02401 0.309134,-0.120052 0.363158,-0.261114 0.696303,-0.600261 0.183079,-0.05102 0.183079,0.11405 0,0.03601 -0.009,0.07803 -0.354154,0.348152 -0.732318,0.621271 -0.20709,0.120052 -0.309134,0.141061 -0.102045,0.01801 -0.300131,0.03602 -0.273119,-0.003 -0.420182,-0.09604 -0.147064,-0.09604 -0.216094,-0.267116 -0.05102,-0.123054 -0.05102,-0.249109 0,-0.06903 0.01501,-0.13806 0.06303,-0.261113 0.13806,-0.375163 0.07803,-0.117051 0.16207,-0.219095 0.08704,-0.102044 0.204089,-0.186081 0.120052,-0.08404 0.288125,-0.144062 z"
         style="fill:#917b51;fill-opacity:1;stroke-width:0.25611347"
         id="path8556"
         inkscape:connector-curvature="0" />
      <path
         d="m 14.462504,47.01466 q 0.144062,-0.006 0.156068,-0.159069 -0.003,-0.141061 -0.168073,-0.150065 -0.144063,0.009 -0.150066,0.144063 -0.003,0.168073 0.162071,0.165071 z m -0.312136,0.444193 q 0.174076,-0.09304 0.213093,0.08104 -0.219096,0.963418 -0.231101,1.044454 -0.009,0.08103 0.02701,0.09304 0.05102,0.02701 0.285124,-0.165072 0.237103,-0.195084 0.588256,-0.55224 0.183079,-0.06003 0.183079,0.105046 0,0.03902 -0.006,0.07503 -0.411179,0.408177 -0.822358,0.726315 -0.159069,0.117051 -0.360156,0.117051 -0.147064,-0.01801 -0.165072,-0.159069 -0.01801,-0.141061 0.01501,-0.315137 0.03301,-0.174076 0.132058,-0.513223 l -0.25211,0.237103 q -0.174075,0.03001 -0.174075,-0.117051 0,-0.03001 0.006,-0.07203 0.303132,-0.297129 0.561244,-0.585255 z"
         style="fill:#917b51;fill-opacity:1;stroke-width:0.25611347"
         id="path8558"
         inkscape:connector-curvature="0" />
      <path
         d="m 15.569984,47.431842 q 0.156068,-0.06003 0.333145,-0.06303 0.168073,0 0.300131,0.09304 0.09304,0.07203 0.09004,0.180078 -0.003,0.108047 -0.06903,0.213093 -0.171075,0.225098 -0.381166,0.306133 -0.20709,0.08103 -0.363158,0.09304 -0.156068,0.01201 -0.297129,-0.03001 -0.02701,0.141061 0.003,0.261114 0.03302,0.120052 0.165072,0.177077 0.165072,0.06003 0.330144,0.04802 0.165071,-0.01501 0.399173,-0.129056 0.387169,-0.264114 0.720313,-0.627272 0.168073,-0.04502 0.168073,0.108047 0,0.03601 -0.009,0.08404 -0.357155,0.366159 -0.735319,0.651283 -0.255111,0.174076 -0.642279,0.186081 -0.306133,-0.003 -0.438191,-0.09604 -0.129056,-0.09304 -0.177077,-0.18608 -0.05102,-0.09604 -0.06303,-0.29713 0,-0.270117 0.117051,-0.498216 0.105045,-0.186081 0.249108,-0.300131 0.144063,-0.11705 0.30013,-0.174075 z m 0.438191,0.222096 q -0.08704,-0.114049 -0.408178,0.02401 -0.216093,0.08704 -0.348151,0.333145 0.387168,0.05402 0.59726,-0.105046 0.213092,-0.159069 0.159069,-0.25211 z"
         style="fill:#917b51;fill-opacity:1;stroke-width:0.25611347"
         id="path8560"
         inkscape:connector-curvature="0" />
      <path
         d="m 17.968027,44.424535 q 0.555241,0.02101 0.612266,0.768334 -0.03301,0.765332 -0.732318,1.809786 l -0.696303,0.939409 -0.07503,0.27612 q -0.04502,0.210091 -0.03602,0.336146 0.012,0.123053 0.156068,0.13806 0.120052,0.012 0.366159,-0.186081 0.246107,-0.198086 0.603262,-0.549239 0.219095,-0.07203 0.168073,0.201087 -0.405176,0.39017 -0.612266,0.546238 -0.204089,0.156068 -0.318138,0.219095 -0.111048,0.06303 -0.315137,0.06903 -0.189082,-0.009 -0.282123,-0.225098 -0.07203,-0.219095 -0.05702,-0.423184 -0.126054,-0.08404 -0.126054,-0.153066 0.006,-0.06303 0.05702,-0.132058 l 0.156068,-0.198086 0.525229,-2.407046 q 0.189082,-0.816355 0.309134,-0.918399 0.123053,-0.105046 0.297129,-0.111048 z m 0.04802,0.30013 q -0.150065,-0.02701 -0.2311,0.270117 L 17.2147,47.374817 q 0.198086,-0.261114 0.468203,-0.657286 0.270118,-0.399173 0.417182,-0.732318 0.150065,-0.336146 0.18608,-0.582253 0.03902,-0.249108 -0.02101,-0.441192 -0.05702,-0.195085 -0.249108,-0.237103 z"
         style="fill:#917b51;fill-opacity:1;stroke-width:0.25611347"
         id="path8562"
         inkscape:connector-curvature="0" />
      <path
         d="m 18.850411,47.284778 q 0.234101,0.01801 0.201087,0.09004 -0.03001,0.07203 0.04502,0.174076 0.141061,0.159069 0.252109,0.504219 0.05702,0.2311 0.03902,0.387168 l 0.468204,-0.447194 q 0.180078,-0.05402 0.180078,0.120052 0,0.03001 -0.006,0.06903 -0.354154,0.348151 -0.471205,0.444193 -0.114049,0.09304 -0.228099,0.177077 -0.114049,0.08404 -0.2311,0.126055 -0.102045,0.03902 -0.201088,0.03902 -0.384167,-0.009 -0.651283,-0.327143 -0.123053,-0.180078 -0.08704,-0.249108 0.03902,-0.07203 0.108046,-0.08103 0.06903,-0.009 0.09304,0.05102 0.09304,0.192084 0.318138,0.318138 0.249108,0.105046 0.372162,-0.01801 0.156068,-0.189083 0.07503,-0.489213 -0.08404,-0.306133 -0.264115,-0.52823 l -0.711309,0.675294 q -0.192084,-0.003 -0.15907,-0.189082 z"
         style="fill:#917b51;fill-opacity:1;stroke-width:0.25611347"
         id="path8564"
         inkscape:connector-curvature="0" />
      <path
         d="m 22.542015,44.424535 q 0.555241,0.02101 0.612266,0.768334 -0.03301,0.765332 -0.732318,1.809786 l -0.696303,0.939409 -0.07503,0.27612 q -0.04502,0.210091 -0.03602,0.336146 0.012,0.123053 0.156068,0.13806 0.120052,0.012 0.366159,-0.186081 0.246107,-0.198086 0.603262,-0.549239 0.219095,-0.07203 0.168073,0.201087 -0.405176,0.39017 -0.612266,0.546238 -0.204089,0.156068 -0.318138,0.219095 -0.111048,0.06303 -0.315137,0.06903 -0.189082,-0.009 -0.282123,-0.225098 -0.07203,-0.219095 -0.05702,-0.423184 -0.126054,-0.08404 -0.126054,-0.153066 0.006,-0.06303 0.05702,-0.132058 l 0.156068,-0.198086 0.525229,-2.407046 q 0.189082,-0.816355 0.309134,-0.918399 0.123053,-0.105046 0.297129,-0.111048 z m 0.04802,0.30013 q -0.150065,-0.02701 -0.2311,0.270117 l -0.570248,2.380035 q 0.198086,-0.261114 0.468203,-0.657286 0.270118,-0.399173 0.417182,-0.732318 0.150065,-0.336146 0.18608,-0.582253 0.03902,-0.249108 -0.02101,-0.441192 -0.05702,-0.195085 -0.249108,-0.237103 z"
         style="fill:#917b51;fill-opacity:1;stroke-width:0.25611347"
         id="path8566"
         inkscape:connector-curvature="0" />
      <path
         d="m 23.526444,47.01466 q 0.144062,-0.006 0.156068,-0.159069 -0.003,-0.141061 -0.168073,-0.150065 -0.144063,0.009 -0.150066,0.144063 -0.003,0.168073 0.162071,0.165071 z m -0.312136,0.444193 q 0.174076,-0.09304 0.213093,0.08104 -0.219095,0.963418 -0.231101,1.044454 -0.009,0.08103 0.02701,0.09304 0.05102,0.02701 0.285124,-0.165072 0.237103,-0.195084 0.588256,-0.55224 0.183079,-0.06003 0.183079,0.105046 0,0.03902 -0.006,0.07503 -0.411179,0.408177 -0.822358,0.726315 -0.159069,0.117051 -0.360156,0.117051 -0.147064,-0.01801 -0.165072,-0.159069 -0.01801,-0.141061 0.01501,-0.315137 0.03301,-0.174076 0.132058,-0.513223 l -0.25211,0.237103 q -0.174075,0.03001 -0.174075,-0.117051 0,-0.03001 0.006,-0.07203 0.303132,-0.297129 0.561244,-0.585255 z"
         style="fill:#917b51;fill-opacity:1;stroke-width:0.25611347"
         id="path8568"
         inkscape:connector-curvature="0" />
      <path
         d="m 25.303214,44.424535 q 0.549239,0.02101 0.618269,0.762331 0.01201,0.807351 -0.735319,1.809787 l -0.732319,1.017442 -0.04202,0.34515 q -0.03001,0.294128 0.171074,0.303132 0.156068,-0.01201 0.267116,-0.141062 0.11405,-0.132057 0.186081,-0.261113 0.07503,-0.129056 0.147064,-0.318138 0.07803,-0.276121 0.05102,-0.510222 -0.01501,-0.135059 0.11405,-0.168073 0.159069,-0.02401 0.192084,0.177077 0.04202,0.210091 0.108046,0.321139 0.06603,0.108047 0.153067,0.198086 0.08704,0.08704 0.18308,0.03001 0.111048,-0.08404 0.141061,0.04802 0.003,0.01801 0.003,0.03902 0,0.06603 -0.02701,0.132058 -0.168073,0.159069 -0.318138,0.08704 -0.198086,-0.09904 -0.318138,-0.312135 -0.09304,0.321139 -0.216094,0.519225 -0.123054,0.198087 -0.336146,0.36616 -0.201088,0.120052 -0.357155,0.120052 -0.15907,0 -0.294128,-0.108047 -0.192084,-0.144063 -0.177077,-0.537234 -0.126055,-0.08404 -0.126055,-0.180078 0,-0.06003 0.04802,-0.123053 l 0.159069,-0.171075 0.537234,-2.410047 q 0.183079,-0.822358 0.303131,-0.927403 0.120052,-0.105046 0.297129,-0.108047 z m 0.04802,0.30013 q -0.150065,-0.02701 -0.2311,0.270117 l -0.570248,2.380035 q 0.198086,-0.261114 0.468204,-0.657286 0.270117,-0.399173 0.417181,-0.732318 0.150065,-0.336146 0.186081,-0.582253 0.03902,-0.249108 -0.02101,-0.441192 -0.05702,-0.195085 -0.249109,-0.237103 z"
         style="fill:#917b51;fill-opacity:1;stroke-width:0.25611347"
         id="path8570"
         inkscape:connector-curvature="0" />
      <path
         d="m 26.37168,47.314791 q 0.07803,-0.06003 0.156067,-0.06003 0.02701,0 0.05402,0.006 0.111048,0.02701 0.108047,0.126055 0.402175,-0.05402 0.50722,0.04802 0.09904,0.105046 0.02101,0.450196 -0.123054,0.498216 -0.111049,0.642279 0.01501,0.144063 0.117051,0.147064 0.09604,-0.003 0.282123,-0.171075 0.189082,-0.168073 0.540235,-0.525228 0.180078,-0.05703 0.180078,0.108047 0,0.03902 -0.009,0.07503 -0.396172,0.405176 -0.639278,0.624271 -0.243106,0.216094 -0.396172,0.216094 -0.201088,-0.006 -0.288125,-0.147064 -0.102045,-0.186081 -0.06903,-0.492214 0.01501,-0.126055 0.09004,-0.405176 0.07803,-0.279121 0.05702,-0.333145 -0.02701,-0.05703 -0.306134,-0.01201 l -0.573249,0.663288 Q 25.92148,48.296203 25.92148,48.10712 l 0.453197,-0.534232 q -0.06303,-0.04202 -0.06603,-0.11405 0,-0.07503 0.06303,-0.144062 z"
         style="fill:#917b51;fill-opacity:1;stroke-width:0.25611347"
         id="path8572"
         inkscape:connector-curvature="0" />
      <path
         d="m 28.571637,47.431842 q 0.156068,-0.06003 0.333145,-0.06303 0.168073,0 0.30013,0.09304 0.09304,0.07203 0.09004,0.180078 -0.003,0.108047 -0.06903,0.213093 -0.171075,0.225098 -0.381166,0.306133 -0.20709,0.08103 -0.363158,0.09304 -0.156068,0.01201 -0.297129,-0.03001 -0.02701,0.141061 0.003,0.261114 0.03301,0.120052 0.165072,0.177077 0.165072,0.06003 0.330143,0.04802 0.165072,-0.01501 0.399174,-0.129056 0.387168,-0.264114 0.720313,-0.627272 0.168073,-0.04502 0.168073,0.108047 0,0.03601 -0.009,0.08404 -0.357155,0.366159 -0.735319,0.651283 -0.255111,0.174076 -0.64228,0.186081 -0.306133,-0.003 -0.43819,-0.09604 -0.129056,-0.09304 -0.177077,-0.18608 -0.05102,-0.09604 -0.06303,-0.29713 0,-0.270117 0.11705,-0.498216 0.105046,-0.186081 0.249109,-0.300131 0.144062,-0.11705 0.30013,-0.174075 z m 0.438191,0.222096 q -0.08704,-0.114049 -0.408178,0.02401 -0.216094,0.08704 -0.348151,0.333145 0.387168,0.05402 0.597259,-0.105046 0.213093,-0.159069 0.15907,-0.25211 z"
         style="fill:#917b51;fill-opacity:1;stroke-width:0.25611347"
         id="path8574"
         inkscape:connector-curvature="0" />
      <path
         d="m 30.471461,47.284778 q 0.234102,0.01801 0.201088,0.09004 -0.03001,0.07203 0.04502,0.174076 0.141062,0.159069 0.25211,0.504219 0.05703,0.2311 0.03902,0.387168 l 0.468203,-0.447194 q 0.180079,-0.05402 0.180079,0.120052 0,0.03001 -0.006,0.06903 -0.354154,0.348151 -0.471205,0.444193 -0.114049,0.09304 -0.228099,0.177077 -0.114049,0.08404 -0.2311,0.126055 -0.102045,0.03902 -0.201088,0.03902 -0.384167,-0.009 -0.651283,-0.327143 -0.123053,-0.180078 -0.08704,-0.249108 0.03902,-0.07203 0.108047,-0.08103 0.06903,-0.009 0.09304,0.05102 0.09304,0.192084 0.318138,0.318138 0.249108,0.105046 0.372162,-0.01801 0.156068,-0.189083 0.07503,-0.489213 -0.08404,-0.306133 -0.264114,-0.52823 l -0.71131,0.675294 q -0.192083,-0.003 -0.159069,-0.189082 z"
         style="fill:#917b51;fill-opacity:1;stroke-width:0.25611347"
         id="path8576"
         inkscape:connector-curvature="0" />
      <path
         d="m 34.514219,46.426405 q 0.06003,-0.07503 -0.003,-0.156068 -0.04802,-0.04802 -0.09604,-0.04802 -0.03602,0 -0.06903,0.02701 -0.369161,0.396172 -0.960418,0.600261 -0.06003,0.03301 -0.02701,0.141061 0.03001,0.06903 0.126055,0.05702 0.651283,-0.177077 1.029448,-0.62127 z m -0.996434,1.005437 q 0.156068,-0.06003 0.333145,-0.06303 0.168073,0 0.300131,0.09304 0.09304,0.07203 0.09004,0.180078 -0.003,0.108047 -0.06903,0.213093 -0.171075,0.225098 -0.381166,0.306133 -0.20709,0.08103 -0.363158,0.09304 -0.156068,0.01201 -0.297129,-0.03001 -0.02701,0.141061 0.003,0.261114 0.03301,0.120052 0.165072,0.177077 0.165072,0.06003 0.330144,0.04802 0.165071,-0.01501 0.399173,-0.129056 0.387169,-0.264114 0.720313,-0.627272 0.168073,-0.04502 0.168073,0.108047 0,0.03601 -0.009,0.08404 -0.357155,0.366159 -0.735319,0.651283 -0.255111,0.174076 -0.642279,0.186081 -0.306133,-0.003 -0.438191,-0.09604 -0.129056,-0.09304 -0.177077,-0.18608 -0.05102,-0.09604 -0.06303,-0.29713 0,-0.270117 0.117051,-0.498216 0.105045,-0.186081 0.249108,-0.300131 0.144063,-0.11705 0.30013,-0.174075 z m 0.438191,0.222096 q -0.08704,-0.114049 -0.408178,0.02401 -0.216093,0.08704 -0.348151,0.333145 0.387168,0.05402 0.59726,-0.105046 0.213092,-0.159069 0.159069,-0.25211 z"
         style="fill:#917b51;fill-opacity:1;stroke-width:0.25611347"
         id="path8578"
         inkscape:connector-curvature="0" />
      <path
         d="m 35.132489,47.494869 q 0.141061,-0.07803 0.258112,-0.08704 0.120052,-0.009 0.204089,0.01201 0.08404,0.02101 0.252109,0.07803 L 36.26398,45.9552 q 0.01801,-0.06303 0.09604,-0.06303 0.02401,0 0.05402,0.006 0.123053,0.03301 0.102044,0.126055 l -0.600261,2.241974 -0.04802,0.285124 q -0.006,0.186081 0.165072,0.07203 0.393171,-0.288126 0.747325,-0.654285 0.195085,-0.05402 0.195085,0.102045 0,0.03902 -0.01201,0.08103 -0.363157,0.390169 -0.654284,0.606263 -0.291127,0.216094 -0.450196,0.216094 -0.08404,0 -0.156067,-0.04802 -0.105046,-0.06903 -0.11405,-0.216094 -0.150065,0.147064 -0.270117,0.210092 -0.108047,0.05402 -0.312136,0.05402 -0.258112,-0.02101 -0.360157,-0.273118 -0.04502,-0.141062 -0.04502,-0.282123 0,-0.171074 0.06603,-0.342149 0.102045,-0.258112 0.213093,-0.381165 0.111048,-0.126055 0.25211,-0.201088 z m 0.378164,0.165072 q -0.120052,-0.006 -0.285124,0.08704 -0.165072,0.09004 -0.303132,0.450195 -0.114049,0.351153 0.09604,0.471205 0.20709,0.03902 0.384167,-0.09904 0.177077,-0.141061 0.273119,-0.453197 l 0.105045,-0.375163 q -0.147063,-0.07803 -0.270117,-0.08103 z"
         style="fill:#917b51;fill-opacity:1;stroke-width:0.25611347"
         id="path8580"
         inkscape:connector-curvature="0" />
      <path
         d="m 37.248408,47.464856 q 0.03601,-0.03602 0.108047,-0.03602 0.120052,0.01201 0.105045,0.111049 l -0.144062,0.573249 q -0.123054,0.543236 -0.02701,0.62127 0.108047,0.07803 0.330143,-0.150065 0.249109,-0.258113 0.429187,-1.029448 0.03902,-0.123053 0.156068,-0.132057 0.129056,0.009 0.117051,0.108047 -0.225098,0.963419 -0.234102,1.044454 -0.009,0.08103 0.02701,0.09004 0.05102,0.03001 0.288125,-0.162071 0.237103,-0.195084 0.585254,-0.555241 0.186081,-0.06003 0.186081,0.102044 0,0.03902 -0.01801,0.07803 -0.396172,0.405177 -0.813353,0.726316 -0.18308,0.141061 -0.363158,0.144063 -0.213093,0 -0.162071,-0.351153 -0.159069,0.237103 -0.318138,0.324141 -0.09004,0.04502 -0.204089,0.04802 -0.159069,0 -0.246107,-0.162071 -0.108047,-0.2311 0.06303,-0.885384 l -0.258112,0.264114 q -0.177077,0.02701 -0.177077,-0.123053 0,-0.03001 0.006,-0.06903 0.309135,-0.297129 0.564246,-0.579252 z"
         style="fill:#917b51;fill-opacity:1;stroke-width:0.25611347"
         id="path8582"
         inkscape:connector-curvature="0" />
      <path
         d="m 39.640448,47.31179 q 0.09304,-0.03001 0.204088,-0.03001 0.09004,0 0.195085,0.02101 0.177077,0.07203 0.246107,0.192083 0.07203,0.120052 0.07203,0.249108 0.003,0.129057 -0.05402,0.195085 -0.05402,0.06603 -0.177077,0.07803 -0.120052,0.009 -0.141061,-0.07803 -0.02101,-0.08704 0.01801,-0.144062 0.111049,-0.09304 0.05402,-0.165072 -0.05402,-0.07503 -0.18308,-0.07503 -0.126054,-0.003 -0.27612,0.07503 -0.147064,0.07503 -0.228099,0.177077 -0.07803,0.102044 -0.13806,0.219095 -0.05703,0.117051 -0.08103,0.228099 -0.02401,0.111048 0.006,0.222097 0.03001,0.111048 0.168073,0.201087 0.198086,0.06303 0.357155,0.03902 0.16207,-0.02401 0.309134,-0.120052 0.363158,-0.261114 0.696303,-0.600261 0.183079,-0.05102 0.183079,0.11405 0,0.03601 -0.009,0.07803 -0.354154,0.348152 -0.732319,0.621271 -0.20709,0.120052 -0.309134,0.141061 -0.102044,0.01801 -0.300131,0.03602 -0.273118,-0.003 -0.420182,-0.09604 -0.147064,-0.09604 -0.216094,-0.267116 -0.05102,-0.123054 -0.05102,-0.249109 0,-0.06903 0.01501,-0.13806 0.06303,-0.261113 0.13806,-0.375163 0.07803,-0.117051 0.162071,-0.219095 0.08704,-0.102044 0.204088,-0.186081 0.120053,-0.08404 0.288126,-0.144062 z"
         style="fill:#917b51;fill-opacity:1;stroke-width:0.25611347"
         id="path8584"
         inkscape:connector-curvature="0" />
      <path
         d="m 41.126094,47.49787 q 0.13806,-0.07503 0.375163,-0.07803 0.18308,0.009 0.339147,0.111048 0.02101,-0.111048 0.120053,-0.11405 0.123053,0.02401 0.108047,0.147064 l -0.204089,0.987429 q -0.006,0.186081 0.165072,0.07203 0.393171,-0.288126 0.747324,-0.654285 0.195085,-0.05402 0.195085,0.102045 0,0.03902 -0.01201,0.09004 -0.363158,0.381165 -0.810352,0.720313 -0.102045,0.08704 -0.225098,0.09904 -0.02101,0.003 -0.03902,0.003 -0.102044,0 -0.186081,-0.05703 -0.105046,-0.06903 -0.108047,-0.189082 -0.16207,0.237103 -0.531231,0.237103 -0.318138,-0.03001 -0.417181,-0.273118 -0.04802,-0.144063 -0.04802,-0.291127 0,-0.165072 0.06303,-0.333145 0.108047,-0.258112 0.219096,-0.381165 0.111048,-0.126055 0.249108,-0.198087 z m 0.186081,0.225098 q -0.255111,0.11405 -0.393171,0.474206 -0.11405,0.351153 0.09604,0.456199 0.183079,0.08404 0.390169,-0.04802 0.210092,-0.135059 0.273119,-0.420183 l 0.09004,-0.405176 q -0.16207,-0.171074 -0.456198,-0.05702 z"
         style="fill:#917b51;fill-opacity:1;stroke-width:0.25611347"
         id="path8586"
         inkscape:connector-curvature="0" />
      <path
         d="m 43.169981,45.985213 q 0.02701,-0.105046 0.156068,-0.105046 0.159069,0.006 0.144063,0.111049 l -0.111049,0.564245 0.50422,0.003 q 0.165071,-0.006 0.150065,0.132058 0,0.159069 -0.156068,0.159069 h -0.576251 l -0.288125,1.305567 q -0.111048,0.492214 0.123054,0.516225 0.108047,0.009 0.348151,-0.18308 0.240104,-0.195085 0.603262,-0.555241 0.174076,-0.05702 0.174076,0.132057 0,0.03301 -0.01201,0.06903 -0.408178,0.399174 -0.813354,0.702305 -0.186081,0.132058 -0.405176,0.141062 -0.34515,-0.009 -0.36916,-0.441192 0,-0.210092 0.108047,-0.651283 z"
         style="fill:#917b51;fill-opacity:1;stroke-width:0.25611347"
         id="path8588"
         inkscape:connector-curvature="0" />
      <path
         d="m 44.835707,47.01466 q 0.144063,-0.006 0.156068,-0.159069 -0.003,-0.141061 -0.168073,-0.150065 -0.144063,0.009 -0.150065,0.144063 -0.003,0.168073 0.16207,0.165071 z m -0.312136,0.444193 q 0.174076,-0.09304 0.213093,0.08104 -0.219095,0.963418 -0.2311,1.044454 -0.009,0.08103 0.02701,0.09304 0.05102,0.02701 0.285124,-0.165072 0.237103,-0.195084 0.588256,-0.55224 0.18308,-0.06003 0.18308,0.105046 0,0.03902 -0.006,0.07503 -0.411179,0.408177 -0.822358,0.726315 -0.159069,0.117051 -0.360156,0.117051 -0.147064,-0.01801 -0.165072,-0.159069 -0.01801,-0.141061 0.01501,-0.315137 0.03301,-0.174076 0.132057,-0.513223 L 44.1304,48.23319 q -0.174075,0.03001 -0.174075,-0.117051 0,-0.03001 0.006,-0.07203 0.303132,-0.297129 0.561244,-0.585255 z"
         style="fill:#917b51;fill-opacity:1;stroke-width:0.25611347"
         id="path8590"
         inkscape:connector-curvature="0" />
      <path
         d="m 46.420396,44.496566 q 0.09604,-0.09004 0.228099,-0.09004 0.633276,0.04202 0.669291,0.738321 0,0.786341 -0.741322,1.809786 l -0.708308,0.963419 q 0.246107,0.432188 0.579252,0.450196 0.147064,0.003 0.504219,-0.423184 0.198086,-0.05102 0.147064,0.219095 -0.417181,0.441192 -0.645281,0.450196 -0.225097,0.006 -0.468203,-0.159069 0.174076,0.885384 -0.08404,1.674728 -0.318138,0.906394 -0.711309,0.906394 -0.291126,0 -0.291126,-0.387169 0,-0.126055 0.03001,-0.294128 l 0.444193,-1.980861 q -0.255105,-0.120051 -0.10504,-0.273117 l 0.282123,-0.273119 0.543236,-2.413049 q 0.165072,-0.762331 0.327142,-0.918399 z m -0.750326,3.793649 -0.474206,2.097912 q -0.06603,0.324141 -0.006,0.34515 0.117051,0.03301 0.25211,-0.222097 0.13806,-0.255111 0.234102,-0.543236 0.09904,-0.288125 0.120052,-0.618269 0.02401,-0.330143 -0.03602,-0.687298 z m 1.068464,-3.595563 q -0.150065,-0.02701 -0.2311,0.270117 l -0.570248,2.380035 q 0.198086,-0.261114 0.468204,-0.657286 0.270117,-0.399173 0.417181,-0.732318 0.150065,-0.336146 0.186081,-0.582253 0.03902,-0.249108 -0.02101,-0.441192 -0.05702,-0.195085 -0.249108,-0.237103 z"
         style="fill:#917b51;fill-opacity:1;stroke-width:0.25611347"
         id="path8592"
         inkscape:connector-curvature="0" />
      <path
         d="m 47.65093,47.284778 q 0.234101,0.01801 0.201087,0.09004 -0.03001,0.07203 0.04502,0.174076 0.141061,0.159069 0.252109,0.504219 0.05702,0.2311 0.03902,0.387168 l 0.468204,-0.447194 q 0.180078,-0.05402 0.180078,0.120052 0,0.03001 -0.006,0.06903 -0.354154,0.348151 -0.471205,0.444193 -0.114049,0.09304 -0.228099,0.177077 -0.114049,0.08404 -0.2311,0.126055 -0.102045,0.03902 -0.201088,0.03902 -0.384167,-0.009 -0.651283,-0.327143 -0.123053,-0.180078 -0.08704,-0.249108 0.03902,-0.07203 0.108047,-0.08103 0.06903,-0.009 0.09304,0.05102 0.09304,0.192084 0.318138,0.318138 0.249108,0.105046 0.372162,-0.01801 0.156068,-0.189083 0.07503,-0.489213 -0.08404,-0.306133 -0.264115,-0.52823 l -0.711309,0.675294 q -0.192084,-0.003 -0.15907,-0.189082 z"
         style="fill:#917b51;fill-opacity:1;stroke-width:0.25611347"
         id="path8594"
         inkscape:connector-curvature="0" />
      <path
         d="m 48.776418,48.755417 q 0,-0.102044 0.06303,-0.165072 0.06303,-0.06603 0.156068,-0.06603 0.09304,0 0.156068,0.06603 0.06303,0.06303 0.06303,0.165072 0,0.102044 -0.06303,0.165072 -0.06303,0.06003 -0.156068,0.06003 -0.09304,0 -0.156068,-0.06003 -0.06303,-0.06303 -0.06303,-0.165072 z"
         style="fill:#917b51;fill-opacity:1;stroke-width:0.25611347"
         id="path8596"
         inkscape:connector-curvature="0" />
    </g>
    <g
       aria-label="Démocratiser l'accès aux 



"
       style="font-style:normal;font-variant:normal;font-weight:normal;font-stretch:normal;font-size:3.02701902px;line-height:0%;font-family:Alamain;-inkscape-font-specification:'Alamain, Normal';font-variant-ligatures:normal;font-variant-caps:normal;font-variant-numeric:normal;font-feature-settings:normal;text-align:end;letter-spacing:0px;word-spacing:0px;writing-mode:lr-tb;text-anchor:end;opacity:0.9;fill:#917b51;fill-opacity:1;stroke:none;stroke-width:0.25225368"
       id="text3497-5"
       transform="matrix(1.8979429,0,0,1.8979429,-4.847601,-34.11052)">
      <path
         d="m 6.842281,42.563405 q -0.2749148,0.0089 -0.526181,0.0089 -0.3990699,0 -0.7419744,-0.02661 -0.1478037,-0.0266 -0.1478037,-0.153716 0.020693,-0.141891 0.1478037,-0.16554 l 0.1921448,0.01478 0.8365687,-3.875412 -0.3458606,0.05912 q -0.059121,0.0059 -0.1093747,-0.115287 -0.020693,-0.115287 0.038429,-0.141891 0.1448476,-0.05617 0.4345427,-0.112331 0.2926513,-0.05912 0.7183258,-0.06503 0.6710287,0 1.0789668,0.461148 0.4079381,0.461147 0.4079381,1.312496 0,0.694678 -0.2956073,1.421872 -0.2956074,0.727194 -0.7508426,1.04645 -0.4522792,0.319255 -0.9370753,0.33108 z m 0.056165,-0.307432 q 0.4049821,-0.03547 0.7744912,-0.3163 0.3695092,-0.280827 0.6119072,-0.904558 0.242398,-0.623732 0.242398,-1.223814 0,-0.730151 -0.3547288,-1.141045 -0.3547288,-0.41385 -1.010977,-0.387245 l -0.2896952,0.0266 -0.8099641,3.955226 q 0.2985634,0.02956 0.8365687,-0.0089 z"
         style="fill:#917b51;fill-opacity:1;stroke-width:0.25225368"
         id="path8599"
         inkscape:connector-curvature="0" />
      <path
         d="m 10.294975,39.959104 q 0.05912,-0.0739 -0.003,-0.153716 -0.0473,-0.0473 -0.09459,-0.0473 -0.03547,0 -0.06799,0.0266 -0.3635974,0.390202 -0.9459439,0.591215 -0.059121,0.03252 -0.026605,0.138935 0.029561,0.06799 0.124155,0.05617 Q 9.922469,40.3966 10.294935,39.959101 Z m -0.9814167,0.990285 q 0.1537159,-0.05912 0.3281242,-0.06208 0.1655401,0 0.2956073,0.09164 0.091638,0.07095 0.088682,0.177365 -0.003,0.106419 -0.06799,0.209881 -0.1684962,0.221706 -0.3754213,0.30152 -0.203969,0.07981 -0.3576849,0.09164 -0.1537158,0.01182 -0.2926512,-0.02956 -0.026605,0.138936 0.00296,0.257178 0.032517,0.118243 0.162584,0.174409 0.162584,0.05912 0.3251681,0.0473 0.162584,-0.01478 0.3931577,-0.127111 0.3813328,-0.260135 0.7094568,-0.61782 0.16554,-0.04434 0.16554,0.106419 0,0.03547 -0.0089,0.08277 -0.351772,0.360641 -0.7242373,0.641468 -0.2512662,0.171452 -0.6325997,0.183277 -0.3015194,-0.003 -0.4315867,-0.0946 -0.1271111,-0.09164 -0.1744083,-0.183276 -0.050253,-0.09459 -0.062077,-0.292652 0,-0.266046 0.1152868,-0.490708 0.1034626,-0.183276 0.2453541,-0.295607 0.1418915,-0.115287 0.2956073,-0.171452 z m 0.4315867,0.218749 q -0.085726,-0.112331 -0.4020259,0.02365 -0.2128373,0.08573 -0.3429045,0.328124 0.3813334,0.05321 0.5882586,-0.103463 0.2098812,-0.156672 0.1566718,-0.24831 z"
         style="fill:#917b51;fill-opacity:1;stroke-width:0.25225368"
         id="path8601"
         inkscape:connector-curvature="0" />
      <path
         d="m 11.832133,40.91096 q 0.0739,0 0.112331,0.03547 0.05617,0.05617 0.05912,0.147803 0.227618,-0.177364 0.48184,-0.186232 0.07686,0 0.109375,0.05617 0.0739,0.141892 0.02365,0.416806 l -0.127111,0.644424 q -0.0266,0.147804 0.003,0.159628 0.0473,0.01478 0.183277,-0.100506 0.334036,-0.263091 0.685809,-0.623732 0.195101,-0.06208 0.195101,0.115287 0,0.03843 -0.0089,0.08277 -0.428631,0.387246 -0.694678,0.597127 -0.242398,0.215793 -0.422718,0.201013 -0.118243,-0.01478 -0.183277,-0.100506 -0.06503,-0.08573 -0.0266,-0.292652 l 0.124155,-0.626687 q 0.0473,-0.23353 -0.03252,-0.224662 -0.07981,0.0059 -0.189189,0.08573 -0.106418,0.07686 -0.138935,0.174409 l -0.201013,0.922295 q -0.02365,0.09459 -0.180321,0.100506 -0.100506,-0.003 -0.08277,-0.09755 l 0.195101,-0.96368 q 0.05025,-0.221706 -0.0473,-0.209881 -0.09459,0.01182 -0.201013,0.08277 -0.103463,0.06799 -0.124155,0.159628 l -0.203969,0.940031 q -0.01774,0.08868 -0.162584,0.08868 -0.106419,-0.003 -0.09164,-0.09755 l 0.201012,-0.975505 q 0.01182,-0.06503 0.003,-0.103462 -0.0059,-0.04138 -0.109375,0.05912 -0.103463,0.09755 -0.396114,0.378378 -0.168496,0.01774 -0.168496,-0.156672 0.484796,-0.591215 0.780403,-0.685809 0.03843,0 0.07981,0.0089 0.09755,0.02365 0.124155,0.147804 0.260135,-0.159628 0.431587,-0.159628 z"
         style="fill:#917b51;fill-opacity:1;stroke-width:0.25225368"
         id="path8603"
         inkscape:connector-curvature="0" />
      <path
         d="m 13.898428,40.955301 q 0.156672,-0.05912 0.322212,-0.06503 0.168496,0 0.292651,0.09459 0.100507,0.09164 0.127112,0.18032 0.0266,0.08868 0.02956,0.212837 0.0739,0.15076 0.156672,0.195101 0.08277,0.04434 0.215794,-0.03252 0.162584,-0.02956 0.162584,0.08573 0,0.0473 -0.02956,0.121199 -0.227618,0.192144 -0.416806,0.147803 -0.127112,-0.04139 -0.201013,-0.115287 -0.06503,0.168497 -0.162584,0.304476 -0.09755,0.135979 -0.263091,0.257178 -0.162584,0.118243 -0.342905,0.124155 -0.212837,-0.0089 -0.33108,-0.09164 -0.133023,-0.08868 -0.201013,-0.304475 -0.02069,-0.07686 -0.02069,-0.159628 0,-0.15076 0.06799,-0.322212 0.06503,-0.165541 0.141892,-0.277871 0.07981,-0.115287 0.189189,-0.206925 0.109374,-0.09164 0.26309,-0.147804 z m 0.334036,0.183276 q -0.242398,-0.003 -0.431586,0.147804 -0.153716,0.115287 -0.251266,0.396114 -0.103463,0.366553 0.103462,0.484796 0.174408,0.09459 0.416806,-0.141892 0.20397,-0.212837 0.319256,-0.508444 -0.06503,-0.109375 -0.09755,-0.192145 -0.03252,-0.08573 -0.05912,-0.186233 z"
         style="fill:#917b51;fill-opacity:1;stroke-width:0.25225368"
         id="path8605"
         inkscape:connector-curvature="0" />
      <path
         d="m 15.775534,40.831146 q 0.09164,-0.02956 0.201013,-0.02956 0.08868,0 0.192145,0.02069 0.174409,0.07095 0.242398,0.189188 0.07095,0.118243 0.07095,0.245354 0.003,0.127112 -0.05321,0.192145 -0.05321,0.06503 -0.174409,0.07686 -0.118243,0.0089 -0.138935,-0.07686 -0.02069,-0.08573 0.01774,-0.141891 0.109375,-0.09164 0.05321,-0.162584 -0.05321,-0.0739 -0.180321,-0.0739 -0.124155,-0.003 -0.271959,0.0739 -0.144847,0.0739 -0.224661,0.174408 -0.07686,0.100506 -0.13598,0.215793 -0.05617,0.115287 -0.07981,0.224662 -0.02365,0.109375 0.0059,0.218749 0.02956,0.109375 0.16554,0.198057 0.195101,0.06208 0.351772,0.03843 0.159628,-0.02365 0.304476,-0.118243 0.357685,-0.257178 0.685809,-0.591214 0.18032,-0.05025 0.18032,0.11233 0,0.03547 -0.0089,0.07686 -0.348816,0.342905 -0.721282,0.611907 -0.203969,0.118243 -0.304475,0.138936 -0.100507,0.01774 -0.295607,0.03547 -0.269003,-0.003 -0.413851,-0.09459 -0.144847,-0.09459 -0.212837,-0.26309 -0.05025,-0.121199 -0.05025,-0.245354 0,-0.06799 0.01478,-0.13598 0.06208,-0.257178 0.135979,-0.369509 0.07686,-0.115287 0.159628,-0.215793 0.08573,-0.100507 0.201013,-0.183277 0.118243,-0.08277 0.283783,-0.141891 z"
         style="fill:#917b51;fill-opacity:1;stroke-width:0.25225368"
         id="path8607"
         inkscape:connector-curvature="0" />
      <path
         d="m 17.215142,40.834102 q 0.07686,-0.05912 0.153716,-0.05912 0.0266,0 0.05321,0.0059 0.109375,0.0266 0.106419,0.124155 0.396114,-0.05321 0.499576,0.0473 0.09755,0.103462 0.02069,0.443411 -0.121199,0.490708 -0.109375,0.632599 0.01478,0.141892 0.115287,0.144848 0.09459,-0.003 0.277871,-0.168496 0.186232,-0.16554 0.532093,-0.517313 0.177364,-0.05617 0.177364,0.106419 0,0.03843 -0.0089,0.0739 -0.390202,0.399069 -0.629644,0.614863 -0.239442,0.212837 -0.390201,0.212837 -0.198057,-0.0059 -0.283783,-0.144848 -0.100507,-0.183276 -0.06799,-0.484796 0.01478,-0.124155 0.08868,-0.399069 0.07686,-0.274915 0.05617,-0.328125 -0.0266,-0.05617 -0.30152,-0.01182 l -0.56461,0.653292 q -0.168496,0.02069 -0.168496,-0.16554 l 0.446367,-0.526181 q -0.06208,-0.04138 -0.06503,-0.112331 0,-0.0739 0.06208,-0.141891 z"
         style="fill:#917b51;fill-opacity:1;stroke-width:0.25225368"
         id="path8609"
         inkscape:connector-curvature="0" />
      <path
         d="m 19.231184,41.014422 q 0.135979,-0.0739 0.369509,-0.07686 0.180321,0.0089 0.334036,0.109375 0.02069,-0.109375 0.118243,-0.112331 0.121199,0.02365 0.106419,0.144848 l -0.201013,0.972548 q -0.0059,0.183277 0.162584,0.07095 0.387246,-0.283783 0.736062,-0.644424 0.192145,-0.05321 0.192145,0.100506 0,0.03843 -0.01182,0.08868 -0.357685,0.375421 -0.79814,0.709457 -0.100506,0.08573 -0.221705,0.09755 -0.02069,0.003 -0.03843,0.003 -0.100507,0 -0.183277,-0.05617 -0.103463,-0.06799 -0.106419,-0.186232 -0.159628,0.233529 -0.523225,0.233529 -0.313343,-0.02956 -0.410894,-0.269002 -0.0473,-0.141892 -0.0473,-0.286739 0,-0.162584 0.06208,-0.328125 0.106418,-0.254222 0.215793,-0.375421 0.109375,-0.124155 0.245354,-0.195101 z m 0.183277,0.221706 q -0.251267,0.112331 -0.387246,0.467059 -0.112331,0.345861 0.09459,0.449324 0.180321,0.08277 0.38429,-0.0473 0.206925,-0.133023 0.269003,-0.41385 l 0.08868,-0.39907 q -0.159628,-0.168496 -0.449323,-0.05617 z"
         style="fill:#917b51;fill-opacity:1;stroke-width:0.25225368"
         id="path8611"
         inkscape:connector-curvature="0" />
      <path
         d="m 21.24427,39.524561 q 0.0266,-0.103462 0.153716,-0.103462 0.156672,0.0059 0.141891,0.109375 l -0.109374,0.555741 0.49662,0.003 q 0.162584,-0.0059 0.147804,0.130068 0,0.156672 -0.153716,0.156672 h -0.567566 l -0.283783,1.285891 q -0.109375,0.484796 0.121199,0.508445 0.106418,0.0089 0.342904,-0.18032 0.236486,-0.192145 0.594171,-0.546874 0.171452,-0.05617 0.171452,0.130067 0,0.03252 -0.01182,0.06799 -0.402026,0.393158 -0.801096,0.691721 -0.183276,0.130067 -0.39907,0.138935 -0.339948,-0.0089 -0.363597,-0.434542 0,-0.206925 0.106419,-0.641468 z"
         style="fill:#917b51;fill-opacity:1;stroke-width:0.25225368"
         id="path8613"
         inkscape:connector-curvature="0" />
      <path
         d="m 22.884891,40.538495 q 0.141891,-0.0059 0.153716,-0.156672 -0.003,-0.138936 -0.165541,-0.147804 -0.141891,0.0089 -0.147803,0.141892 -0.003,0.16554 0.159628,0.162584 z m -0.307432,0.437498 q 0.171452,-0.09164 0.209881,0.07981 -0.215793,0.9489 -0.227617,1.028714 -0.0089,0.07981 0.0266,0.09164 0.05025,0.02661 0.280827,-0.162584 0.23353,-0.192145 0.579391,-0.543917 0.18032,-0.05912 0.18032,0.103462 0,0.03843 -0.0059,0.0739 -0.404982,0.402026 -0.809964,0.71537 -0.156672,0.115287 -0.354729,0.115287 -0.144848,-0.01774 -0.162584,-0.156672 -0.01774,-0.138936 0.01478,-0.310388 0.03252,-0.171452 0.130068,-0.505488 l -0.248311,0.233529 q -0.171452,0.02956 -0.171452,-0.115287 0,-0.02956 0.0059,-0.07095 0.298564,-0.292652 0.552786,-0.576435 z"
         style="fill:#917b51;fill-opacity:1;stroke-width:0.25225368"
         id="path8615"
         inkscape:connector-curvature="0" />
      <path
         d="m 24.132353,40.804541 q 0.230574,0.01774 0.198057,0.08868 -0.02956,0.07095 0.04434,0.171453 0.138936,0.156671 0.24831,0.49662 0.05617,0.227618 0.03843,0.381333 l 0.461148,-0.440455 q 0.177364,-0.05321 0.177364,0.118243 0,0.02956 -0.0059,0.06799 -0.348817,0.342905 -0.464103,0.437499 -0.112331,0.09164 -0.224662,0.174408 -0.112331,0.08277 -0.227618,0.124155 -0.100506,0.03843 -0.198057,0.03843 -0.378377,-0.0089 -0.641467,-0.322212 -0.121199,-0.177364 -0.08573,-0.245354 0.03843,-0.07095 0.106419,-0.07981 0.06799,-0.0089 0.09164,0.05025 0.09164,0.189189 0.313344,0.313344 0.245354,0.103463 0.366553,-0.01774 0.153716,-0.186233 0.0739,-0.48184 -0.08277,-0.30152 -0.260134,-0.520269 l -0.70059,0.665116 q -0.189188,-0.003 -0.156672,-0.186232 z"
         style="fill:#917b51;fill-opacity:1;stroke-width:0.25225368"
         id="path8617"
         inkscape:connector-curvature="0" />
      <path
         d="m 25.660645,40.949389 q 0.153715,-0.05912 0.328124,-0.06208 0.16554,0 0.295607,0.09164 0.09164,0.07095 0.08868,0.177365 -0.003,0.106419 -0.06799,0.209881 -0.168497,0.221706 -0.375422,0.30152 -0.203969,0.07981 -0.357685,0.09164 -0.153715,0.01182 -0.292651,-0.02956 -0.0266,0.138936 0.003,0.257178 0.03252,0.118243 0.162584,0.174409 0.162584,0.05912 0.325168,0.0473 0.162584,-0.01478 0.393158,-0.127111 0.381334,-0.260135 0.709458,-0.61782 0.16554,-0.04434 0.16554,0.106419 0,0.03547 -0.0089,0.08277 -0.351773,0.360641 -0.724238,0.641468 -0.251267,0.171452 -0.6326,0.183277 -0.30152,-0.003 -0.431587,-0.0946 -0.127111,-0.09164 -0.174408,-0.183276 -0.05025,-0.09459 -0.06208,-0.292652 0,-0.266046 0.115287,-0.490708 0.103463,-0.183276 0.245354,-0.295607 0.141892,-0.115287 0.295608,-0.171452 z m 0.431586,0.218749 q -0.08573,-0.112331 -0.402026,0.02365 -0.212837,0.08573 -0.342904,0.328124 0.381333,0.05321 0.588258,-0.103463 0.209882,-0.156672 0.156672,-0.24831 z"
         style="fill:#917b51;fill-opacity:1;stroke-width:0.25225368"
         id="path8619"
         inkscape:connector-curvature="0" />
      <path
         d="m 27.200758,40.834102 q 0.07686,-0.05912 0.153716,-0.05912 0.0266,0 0.05321,0.0059 0.109375,0.0266 0.106418,0.124155 0.396114,-0.05321 0.499577,0.0473 0.09755,0.103462 0.02069,0.443411 -0.121199,0.490708 -0.109374,0.632599 0.01478,0.141892 0.115287,0.144848 0.09459,-0.003 0.27787,-0.168496 0.186233,-0.16554 0.532094,-0.517313 0.177364,-0.05617 0.177364,0.106419 0,0.03843 -0.0089,0.0739 -0.390202,0.399069 -0.629644,0.614863 -0.239442,0.212837 -0.390202,0.212837 -0.198056,-0.0059 -0.283783,-0.144848 -0.100506,-0.183276 -0.06799,-0.484796 0.01478,-0.124155 0.08868,-0.399069 0.07686,-0.274915 0.05617,-0.328125 -0.0266,-0.05617 -0.301519,-0.01182 l -0.56461,0.653292 q -0.168496,0.02069 -0.168496,-0.16554 l 0.446367,-0.526181 q -0.06208,-0.04138 -0.06503,-0.112331 0,-0.0739 0.06208,-0.141891 z"
         style="fill:#917b51;fill-opacity:1;stroke-width:0.25225368"
         id="path8621"
         inkscape:connector-curvature="0" />
      <path
         d="m 31.47524,37.987403 q 0.546874,0.02069 0.603039,0.756755 -0.03252,0.753799 -0.721282,1.782512 l -0.685809,0.925251 -0.0739,0.271959 q -0.04434,0.206925 -0.03547,0.33108 0.01182,0.121199 0.153716,0.13598 0.118243,0.01182 0.360641,-0.183277 0.242398,-0.195101 0.594171,-0.540961 0.215793,-0.07095 0.16554,0.198056 -0.39907,0.38429 -0.603039,0.538006 -0.201013,0.153716 -0.313344,0.215793 -0.109374,0.06208 -0.310387,0.06799 -0.186233,-0.0089 -0.277871,-0.221706 -0.07095,-0.215793 -0.05617,-0.416806 -0.124155,-0.08277 -0.124155,-0.15076 0.0059,-0.06208 0.05617,-0.130067 l 0.153715,-0.195101 0.517313,-2.370771 q 0.186233,-0.804051 0.304476,-0.904558 0.121199,-0.103463 0.292651,-0.109375 z m 0.0473,0.295608 q -0.147803,-0.02661 -0.227617,0.266046 l -0.561654,2.344166 q 0.1951,-0.257178 0.461147,-0.64738 0.266047,-0.393157 0.410894,-0.721282 0.147804,-0.33108 0.183277,-0.573478 0.03843,-0.245354 -0.02069,-0.434543 -0.05617,-0.192144 -0.245354,-0.233529 z"
         style="fill:#917b51;fill-opacity:1;stroke-width:0.25225368"
         id="path8623"
         inkscape:connector-curvature="0" />
      <path
         d="m 32.376841,39.64576 q 0.280827,-0.34586 0.348817,-0.741974 0.01182,-0.06503 0.127111,-0.06503 0.09459,0.0089 0.106419,0.103463 -0.05912,0.472972 -0.396114,0.842481 -0.02365,0.02956 -0.05912,0.02956 -0.03547,0 -0.07981,-0.0266 -0.06208,-0.05025 -0.06208,-0.09755 0,-0.02365 0.01478,-0.04434 z"
         style="fill:#917b51;fill-opacity:1;stroke-width:0.25225368"
         id="path8625"
         inkscape:connector-curvature="0" />
      <path
         d="m 33.662734,41.014422 q 0.135979,-0.0739 0.369509,-0.07686 0.180321,0.0089 0.334037,0.109375 0.02069,-0.109375 0.118242,-0.112331 0.121199,0.02365 0.106419,0.144848 l -0.201013,0.972548 q -0.0059,0.183277 0.162584,0.07095 0.387246,-0.283783 0.736062,-0.644424 0.192145,-0.05321 0.192145,0.100506 0,0.03843 -0.01182,0.08868 -0.357685,0.375421 -0.79814,0.709457 -0.100506,0.08573 -0.221705,0.09755 -0.02069,0.003 -0.03843,0.003 -0.100507,0 -0.183277,-0.05617 -0.103462,-0.06799 -0.106419,-0.186232 -0.159628,0.233529 -0.523225,0.233529 -0.313343,-0.02956 -0.410894,-0.269002 -0.0473,-0.141892 -0.0473,-0.286739 0,-0.162584 0.06208,-0.328125 0.106418,-0.254222 0.215793,-0.375421 0.109375,-0.124155 0.245354,-0.195101 z m 0.183277,0.221706 q -0.251267,0.112331 -0.387246,0.467059 -0.112331,0.345861 0.09459,0.449324 0.180321,0.08277 0.38429,-0.0473 0.206925,-0.133023 0.269003,-0.41385 l 0.08868,-0.39907 Q 34.1357,41.123795 33.846005,41.236121 Z"
         style="fill:#917b51;fill-opacity:1;stroke-width:0.25225368"
         id="path8627"
         inkscape:connector-curvature="0" />
      <path
         d="m 35.97734,40.831146 q 0.09164,-0.02956 0.201013,-0.02956 0.08868,0 0.192144,0.02069 0.174409,0.07095 0.242398,0.189188 0.07095,0.118243 0.07095,0.245354 0.003,0.127112 -0.05321,0.192145 -0.05321,0.06503 -0.174409,0.07686 -0.118243,0.0089 -0.138935,-0.07686 -0.02069,-0.08573 0.01774,-0.141891 0.109375,-0.09164 0.05321,-0.162584 -0.05321,-0.0739 -0.180321,-0.0739 -0.124155,-0.003 -0.271958,0.0739 -0.144848,0.0739 -0.224662,0.174408 -0.07686,0.100506 -0.135979,0.215793 -0.05617,0.115287 -0.07981,0.224662 -0.02365,0.109375 0.0059,0.218749 0.02956,0.109375 0.16554,0.198057 0.195101,0.06208 0.351773,0.03843 0.159628,-0.02365 0.304475,-0.118243 0.357685,-0.257178 0.685809,-0.591214 0.180321,-0.05025 0.180321,0.11233 0,0.03547 -0.0089,0.07686 -0.348816,0.342905 -0.721282,0.611907 -0.203969,0.118243 -0.304475,0.138936 -0.100507,0.01774 -0.295607,0.03547 -0.269003,-0.003 -0.413851,-0.09459 -0.144847,-0.09459 -0.212837,-0.26309 -0.05025,-0.121199 -0.05025,-0.245354 0,-0.06799 0.01478,-0.13598 0.06208,-0.257178 0.13598,-0.369509 0.07686,-0.115287 0.159628,-0.215793 0.08573,-0.100507 0.201013,-0.183277 0.118242,-0.08277 0.283783,-0.141891 z"
         style="fill:#917b51;fill-opacity:1;stroke-width:0.25225368"
         id="path8629"
         inkscape:connector-curvature="0" />
      <path
         d="m 37.745072,40.831146 q 0.09164,-0.02956 0.201013,-0.02956 0.08868,0 0.192145,0.02069 0.174408,0.07095 0.242398,0.189188 0.07095,0.118243 0.07095,0.245354 0.003,0.127112 -0.05321,0.192145 -0.05321,0.06503 -0.174408,0.07686 -0.118243,0.0089 -0.138935,-0.07686 -0.02069,-0.08573 0.01774,-0.141891 0.109375,-0.09164 0.05321,-0.162584 -0.05321,-0.0739 -0.18032,-0.0739 -0.124155,-0.003 -0.271959,0.0739 -0.144847,0.0739 -0.224661,0.174408 -0.07686,0.100506 -0.13598,0.215793 -0.05617,0.115287 -0.07981,0.224662 -0.02365,0.109375 0.0059,0.218749 0.02956,0.109375 0.16554,0.198057 0.195101,0.06208 0.351773,0.03843 0.159628,-0.02365 0.304476,-0.118243 0.357685,-0.257178 0.685809,-0.591214 0.18032,-0.05025 0.18032,0.11233 0,0.03547 -0.0089,0.07686 -0.348817,0.342905 -0.721282,0.611907 -0.203969,0.118243 -0.304475,0.138936 -0.100507,0.01774 -0.295608,0.03547 -0.269002,-0.003 -0.41385,-0.09459 -0.144848,-0.09459 -0.212837,-0.26309 -0.05025,-0.121199 -0.05025,-0.245354 0,-0.06799 0.01478,-0.13598 0.06208,-0.257178 0.135979,-0.369509 0.07686,-0.115287 0.159628,-0.215793 0.08573,-0.100507 0.201013,-0.183277 0.118243,-0.08277 0.283783,-0.141891 z"
         style="fill:#917b51;fill-opacity:1;stroke-width:0.25225368"
         id="path8631"
         inkscape:connector-curvature="0" />
      <path
         d="m 39.362045,40.949389 q 0.153716,-0.05912 0.322212,-0.05912 0.168496,-0.003 0.30152,0.08868 0.09164,0.07095 0.08868,0.177365 -0.003,0.106419 -0.06799,0.209881 -0.168496,0.221706 -0.375421,0.30152 -0.203969,0.07981 -0.357685,0.09164 -0.153716,0.01182 -0.292651,-0.02956 -0.0266,0.138936 0.003,0.257178 0.03252,0.118243 0.162584,0.174409 0.162584,0.05912 0.325168,0.0473 0.162584,-0.01478 0.393158,-0.127111 0.381333,-0.260135 0.709457,-0.61782 0.16554,-0.04434 0.16554,0.106419 0,0.03547 -0.0089,0.08277 -0.351773,0.360641 -0.724238,0.641468 -0.251266,0.171452 -0.6326,0.183277 -0.301519,-0.003 -0.431586,-0.0946 -0.127112,-0.09164 -0.174409,-0.183276 -0.05025,-0.09459 -0.06208,-0.292652 0,-0.266046 0.115287,-0.490708 0.103462,-0.183276 0.245354,-0.295607 0.141891,-0.115287 0.295607,-0.171452 z m 0.431587,0.218749 q -0.08573,-0.112331 -0.402026,0.02365 -0.212837,0.08573 -0.342905,0.328124 0.381334,0.05321 0.588259,-0.103463 0.209881,-0.156672 0.156672,-0.24831 z m -0.502533,-1.209034 q 0.307432,0.470016 0.922295,0.594171 0.0739,0.01478 0.130067,-0.05617 0.04139,-0.08277 -0.02956,-0.138936 -0.555742,-0.15076 -0.845437,-0.573478 -0.04434,-0.01774 -0.07981,-0.01774 -0.06503,0 -0.106419,0.05025 -0.05025,0.06799 0.0089,0.141891 z"
         style="fill:#917b51;fill-opacity:1;stroke-width:0.25225368"
         id="path8633"
         inkscape:connector-curvature="0" />
      <path
         d="m 41.248019,40.804541 q 0.230573,0.01774 0.198057,0.08868 -0.02956,0.07095 0.04434,0.171453 0.138935,0.156671 0.24831,0.49662 0.05617,0.227618 0.03843,0.381333 l 0.461147,-0.440455 q 0.177365,-0.05321 0.177365,0.118243 0,0.02956 -0.0059,0.06799 -0.348816,0.342905 -0.464103,0.437499 -0.112331,0.09164 -0.224662,0.174408 -0.11233,0.08277 -0.227617,0.124155 -0.100507,0.03843 -0.198057,0.03843 -0.378377,-0.0089 -0.641468,-0.322212 -0.121199,-0.177364 -0.08573,-0.245354 0.03843,-0.07095 0.106418,-0.07981 0.06799,-0.0089 0.09164,0.05025 0.09164,0.189189 0.313344,0.313344 0.245354,0.103463 0.366553,-0.01774 0.153715,-0.186233 0.0739,-0.48184 -0.08277,-0.30152 -0.260134,-0.520269 l -0.700589,0.665116 q -0.189189,-0.003 -0.156672,-0.186232 z"
         style="fill:#917b51;fill-opacity:1;stroke-width:0.25225368"
         id="path8635"
         inkscape:connector-curvature="0" />
      <path
         d="m 44.085847,41.014422 q 0.135979,-0.0739 0.369509,-0.07686 0.180321,0.0089 0.334036,0.109375 0.02069,-0.109375 0.118243,-0.112331 0.121199,0.02365 0.106419,0.144848 l -0.201013,0.972548 q -0.0059,0.183277 0.162584,0.07095 0.387246,-0.283783 0.736062,-0.644424 0.192145,-0.05321 0.192145,0.100506 0,0.03843 -0.01182,0.08868 -0.357685,0.375421 -0.79814,0.709457 -0.100507,0.08573 -0.221706,0.09755 -0.02069,0.003 -0.03843,0.003 -0.100506,0 -0.183276,-0.05617 -0.103463,-0.06799 -0.106419,-0.186232 -0.159628,0.233529 -0.523225,0.233529 -0.313343,-0.02956 -0.410894,-0.269002 -0.0473,-0.141892 -0.0473,-0.286739 0,-0.162584 0.06208,-0.328125 0.106418,-0.254222 0.215793,-0.375421 0.109375,-0.124155 0.245354,-0.195101 z m 0.183276,0.221706 q -0.251266,0.112331 -0.387245,0.467059 -0.112331,0.345861 0.09459,0.449324 0.180321,0.08277 0.38429,-0.0473 0.206925,-0.133023 0.269002,-0.41385 l 0.08868,-0.39907 q -0.159628,-0.168496 -0.449324,-0.05617 z"
         style="fill:#917b51;fill-opacity:1;stroke-width:0.25225368"
         id="path8637"
         inkscape:connector-curvature="0" />
      <path
         d="m 46.190573,40.981906 q 0.03547,-0.03547 0.106419,-0.03547 0.118243,0.01182 0.103462,0.109374 l -0.141891,0.56461 q -0.121199,0.53505 -0.02661,0.611908 0.106419,0.07686 0.325168,-0.147804 0.245354,-0.254222 0.422719,-1.013933 0.03843,-0.121199 0.153715,-0.130067 0.127112,0.0089 0.115287,0.106418 -0.221705,0.9489 -0.230573,1.028714 -0.0089,0.07981 0.0266,0.08868 0.05025,0.02956 0.283783,-0.159628 0.23353,-0.192145 0.576435,-0.546874 0.183276,-0.05912 0.183276,0.100507 0,0.03843 -0.01774,0.07686 -0.390202,0.39907 -0.801096,0.715369 -0.180321,0.138936 -0.357685,0.141892 -0.209881,0 -0.159628,-0.345861 -0.156672,0.23353 -0.313344,0.319256 -0.08868,0.04434 -0.201013,0.0473 -0.156672,0 -0.242398,-0.159627 -0.106418,-0.227618 0.06208,-0.872042 l -0.254222,0.260134 q -0.174409,0.0266 -0.174409,-0.121199 0,-0.02956 0.0059,-0.06799 0.304476,-0.292652 0.555742,-0.570522 z"
         style="fill:#917b51;fill-opacity:1;stroke-width:0.25225368"
         id="path8639"
         inkscape:connector-curvature="0" />
      <path
         d="m 48.525872,40.919828 q 0.109375,-0.03843 0.295608,-0.01774 0.135979,0.02069 0.203969,0.106418 0.07094,0.08573 0.08573,0.177365 0.124155,-0.174409 0.271959,-0.248311 0.115286,-0.05912 0.239442,-0.05912 0.224661,0.01478 0.307431,0.124155 0.08573,0.109375 0.08868,0.242398 0.0059,0.133023 -0.05025,0.180321 -0.05617,0.04434 -0.138935,0.03547 -0.08277,-0.01182 -0.118243,-0.06799 -0.03547,-0.05617 0.03547,-0.147804 0.0089,-0.09459 -0.09755,-0.115287 -0.103462,-0.02365 -0.203969,0.04434 -0.100506,0.06799 -0.171452,0.15076 -0.07095,0.08277 -0.144848,0.266047 -0.0739,0.221705 -0.05912,0.41385 0.01478,0.192145 0.171452,0.215793 0.156672,0.02069 0.41385,-0.159628 0.366553,-0.251266 0.70059,-0.597127 0.186232,-0.05321 0.186232,0.118243 0,0.03252 -0.0059,0.0739 -0.360641,0.354729 -0.741974,0.629644 -0.30152,0.177364 -0.540962,0.177364 -0.141891,-0.01478 -0.209881,-0.05617 -0.06799,-0.04434 -0.115287,-0.109375 -0.04434,-0.06503 -0.05617,-0.224661 -0.141892,0.198056 -0.322212,0.307431 -0.130067,0.07981 -0.236486,0.07981 -0.144848,-0.003 -0.230574,-0.127111 -0.03843,-0.06503 -0.04139,-0.141891 -0.003,-0.07981 0.04139,-0.13598 0.0473,-0.05912 0.112331,-0.05912 0.09459,0.0059 0.115287,0.115287 0.02365,0.106418 0.103463,0.05912 0.08277,-0.0473 0.159628,-0.118243 0.07686,-0.07095 0.141891,-0.153716 0.06503,-0.08573 0.153716,-0.280827 0.05617,-0.192144 0.05025,-0.298563 -0.0059,-0.106419 -0.135979,-0.16554 -0.118243,-0.04434 -0.21875,0.01478 -0.100506,0.05617 -0.203969,0.162584 -0.103462,0.106419 -0.410894,0.39907 -0.174408,0.03252 -0.174408,-0.115287 0,-0.02956 0.0059,-0.06799 l 0.393162,-0.40792 q 0.189188,-0.171452 0.351772,-0.218749 z"
         style="fill:#917b51;fill-opacity:1;stroke-width:0.25225368"
         id="path8641"
         inkscape:connector-curvature="0" />
    </g>
  </g>
</svg>
